<?xml version="1.0" encoding="UTF-8"?><svg id="a" xmlns="http://www.w3.org/2000/svg" xmlns:xlink="http://www.w3.org/1999/xlink" viewBox="0 0 133.23 19.84"><defs><style>.c{fill:none;}.d{fill:#e60012;}.e{fill:#fff;}.f{clip-path:url(#b);}</style><clipPath id="b"><rect class="c" x="-210.69" y="-1138.33" width="566.93" height="725.67"/></clipPath></defs><g class="f"><g/></g><g><g><path class="e" d="M26.57,2.07h-1.06v1.88h-3.24v4.77h3.24v2.5h1.06v-2.5h3.28V3.95h-3.28v-1.88Zm-3.22,5.64v-2.75h2.16v2.75h-2.16Zm5.42-2.75v2.75h-2.2v-2.75h2.2Z"/><path class="e" d="M37.5,2.1h-1v.82h-.97v.89h.97v.6h-2.34v-.6h1.04v-.89h-1.04v-.82h-1.02v.82h-2.07v.89h2.07v.6h-1.66v.85h1.13v.68h-1.3v.89h1.3v.88h-1.49v.85h3.75v.68h-3.42v.86h3.42v1.15h.99v-1.15h3.42v-.86h-3.42v-.68h3.75v-.85h-1.43v-.88h1.24v-.89h-1.24v-.68h.95v-.85h-1.64v-.6h2.12v-.89h-2.12v-.82Zm-2.62,4.73v.88h-1.3v-.88h1.3Zm-1.3-.89v-.68h1.3v.68h-1.3Zm3.66,.89v.88h-1.37v-.88h1.37Zm-1.37-.89v-.68h1.37v.68h-1.37Z"/><path class="e" d="M48.2,8.58c-.18,1.15-.26,1.35-.29,1.39-.04,.06-.1,.09-.18,.09-.18,0-.44-.15-.76-.45-.31-.31-.6-.76-.85-1.32-.09-.21-.18-.47-.25-.78h2.86v-.98h-3.06c-.04-.3-.08-.63-.12-.99h2.71V2.49h-7.1v7.25c-.21,.03-.42,.06-.64,.09h-.07l.3,1.01h.05c1.48-.24,2.81-.5,3.96-.78h.05v-1.01l-.08,.02c-.79,.18-1.65,.35-2.57,.51v-2.07h2.74c.08,.33,.18,.64,.29,.91,.33,.86,.78,1.54,1.31,2.05,.48,.46,.95,.69,1.41,.69,.27,0,.48-.1,.62-.29,.21-.25,.41-.84,.6-1.79v-.04l-.91-.53v.09Zm-.95-5.13v1.1h-5.11v-1.1h5.11Zm-2.58,3.07h-2.53v-.99h2.4c.04,.34,.08,.68,.14,.99Z"/><path class="e" d="M53.78,5.4h-2.33v2.4h2.33v-2.4Zm-1.56,1.61v-.82h.79v.82h-.79Z"/><path class="e" d="M50.03,11.14h.92v-.32h6.12v.32h.93V2.29h-7.96V11.14Zm5.13-2.14c.06,.11,.13,.22,.21,.31,.27,.37,.55,.56,.83,.56,.2,0,.36-.09,.48-.25,.09-.12,.22-.47,.4-1.08v1.39h-2.9c.38-.29,.71-.6,.99-.93Zm1.16-1.38l-.02,.11c-.12,.81-.18,1.03-.21,1.09-.07-.01-.18-.1-.34-.43-.02-.03-.04-.07-.05-.11,.35-.55,.73-1.42,1.16-2.59l.02-.05-.72-.5-.03,.08c-.27,.84-.53,1.51-.78,2-.06-.23-.11-.48-.16-.74-.06-.38-.11-.86-.14-1.44h1.88v-.87h-.26l-.03-.07c-.13-.32-.28-.61-.44-.85l-.03-.04-.77,.26,.04,.07c.11,.2,.21,.41,.3,.64h-.72c0-.26,0-.55,0-.85v-.06h-.89v.06c0,.29,0,.57,0,.85h-2.99v.87h3.03c.05,.81,.13,1.48,.25,2,.09,.4,.2,.77,.33,1.11-.13,.16-.27,.32-.43,.48v-.81l-.08,.02c-1,.27-2.04,.46-3.08,.56h-.07l.2,.98h.06c1.1-.23,2.07-.46,2.89-.69-.19,.18-.39,.36-.62,.53l-.05,.04,.48,.68h-3.12V3.18h6.12v5.04l-.75-.6Z"/><path class="e" d="M67.28,3.28l.03-.05-.7-.59-.04,.05c-.38,.5-.76,.96-1.13,1.38v-.78h-2.21v-1.23h-1.02v1.23h-2.57v.93h2.57v.95h-3.19v.98h3.99c-1.04,.65-2.38,1.25-3.98,1.79l-.06,.02,.41,1,.06-.02c.69-.27,1.33-.54,1.91-.8v1.86c0,.28,.09,.52,.26,.7,.16,.17,.39,.25,.67,.25h3.38c.53,0,.89-.09,1.09-.29,.24-.19,.4-.78,.5-1.82v-.05l-.95-.3v.08c-.07,.99-.19,1.22-.25,1.27-.1,.08-.26,.12-.49,.12h-2.95c-.18,0-.26-.08-.26-.24v-.7c1.82-.35,3.44-.79,4.8-1.3l.08-.03-.55-.79-.05,.02c-1.14,.41-2.58,.79-4.28,1.13v-.39c.75-.38,1.38-.78,1.89-1.17,.15-.11,.29-.22,.43-.33h2.95v-.98h-1.91c.54-.56,1.07-1.2,1.57-1.9Zm-2.94,1.9h-1.1v-.95h2.07c-.32,.35-.65,.67-.96,.95Z"/><path class="e" d="M74.48,7.92c-.61-.9-1.07-2.08-1.38-3.49V2.03h-1.13v2.4c-.03,.95-.31,1.93-.84,2.93-.53,1.04-1.49,2.01-2.87,2.89l-.05,.03,.64,.98,.05-.03c1.13-.65,1.99-1.34,2.54-2.03,.51-.58,.91-1.41,1.21-2.45,.37,1.01,.85,1.87,1.43,2.57,.48,.62,1.19,1.26,2.12,1.9l.05,.04,.69-.98-.05-.04c-1.11-.79-1.92-1.58-2.41-2.34Z"/><path class="e" d="M81.08,3.64v2.42h4.6V3.64h-4.6Zm.96,1.57v-.72h2.67v.72h-2.67Z"/><path class="e" d="M80.75,7.22l-.03-.03c-.29-.34-.61-.65-.96-.93,.28-.45,.56-1.03,.86-1.72v-.9h-.85c-.15-.57-.32-1.09-.5-1.53l-.02-.05-.99,.12,.03,.08c.19,.43,.36,.9,.5,1.38h-1.17v.98h1.9c-.32,.74-.61,1.27-.89,1.59-.25,.35-.63,.76-1.13,1.22l-.03,.03,.33,1.17,.08-.07c.28-.27,.53-.54,.77-.8v3.48h.96v-3.91c.19,.21,.39,.44,.58,.69l.06,.07,.5-.84v3.98h.93v-.39h3.36v.39h.93V6.52h-5.21v.7Zm3.04,.98v-.83h1.25v.83h-1.25Zm1.25,.82v.94h-1.25v-.94h1.25Zm-2.17,0v.94h-1.19v-.94h1.19Zm0-1.65v.83h-1.19v-.83h1.19Z"/><rect class="e" x="80.72" y="2.29" width="5.33" height=".89"/><path class="e" d="M89.82,5.76h1.68v-1.02h-1.68v-1.2c.54-.11,1.04-.25,1.48-.4l.06-.02-.32-1-.06,.02c-1.12,.39-2.41,.65-3.84,.77h-.07l.2,1h.06c.54-.05,1.06-.12,1.53-.19v1.02h-1.93v1.02h1.6c-.18,.5-.38,.95-.6,1.34-.33,.58-.72,1.09-1.15,1.51l-.03,.03,.54,.99,.06-.07c.46-.51,.85-1.05,1.15-1.59,.11-.2,.23-.45,.36-.75v3.99h.96V6.98c.32,.43,.71,.99,1.17,1.67l.05,.08,.58-.93-.03-.04c-.59-.74-1.19-1.41-1.77-2.01Z"/><path class="e" d="M94.01,9.88s0,.16-.29,.16c-.37,0-.85-.03-1.41-.08h-.08l.2,1.13h1.54c.41,0,.68-.09,.83-.26,.17-.15,.26-.43,.26-.81V2.1h-1.04v7.79Z"/><rect class="e" x="91.94" y="2.83" width="1" height="6.37"/><path class="e" d="M102.93,8.48h1.46v-.89h-1.46v-1.02h1.43v-.89h-1.43v-.96h1.67v-.93h-2.06l.64-.29-.02-.06c-.19-.47-.41-.93-.67-1.34l-.03-.04-.88,.31,.04,.07c.23,.39,.45,.85,.64,1.35h-1.43c.17-.42,.33-.9,.5-1.41l.02-.07-.95-.22-.02,.06c-.27,.94-.64,1.83-1.11,2.64v-.92h-.99v-1.77h-.96v1.77h-1.13v.93h1.13v2.14c-.38,.15-.75,.26-1.11,.32h-.06l.12,1.13,.07-.02c.33-.11,.66-.23,.97-.36v1.95c0,.08-.03,.18-.26,.18-.18,0-.4-.03-.68-.09l-.09-.02,.22,1.11h.78c.37,0,.63-.08,.77-.25,.15-.15,.23-.4,.23-.78v-2.56c.3-.16,.6-.33,.89-.52l.03-.02v-1.05l.29,.39,.05-.06c.05-.06,.1-.13,.14-.2v5.14h.96v-.74h4.11v-.93h-1.83v-1.06Zm-.96-3.76v.96h-1.33v-.96h1.33Zm0,1.85v1.02h-1.33v-1.02h1.33Zm0,1.91v1.06h-1.33v-1.06h1.33Zm-2.87-2.53c-.27,.19-.54,.36-.82,.52v-1.67h.98c-.13,.22-.26,.43-.4,.63l-.02,.04,.32,.44-.06,.04Z"/><path class="e" d="M112.34,2.13h-.93v1.77h-1.01v.93h.99c-.04,1.12-.15,2-.3,2.62-.22,.92-.58,1.79-1.07,2.61v-.18h-.07c-.47,.08-.99,.14-1.56,.19v-.62h1.63v-.79h-1.63v-.44h1.83v-3.17h-1.83v-.37h1.89v-.86h-1.89v-.52c.62-.05,1.18-.12,1.66-.2h.09l-.42-.82h-.04c-1.08,.16-2.41,.24-3.96,.24h-.08l.26,.86h.05c.56,0,1.08,0,1.57-.03v.47h-2.1v.86h2.1v.37h-1.7v3.17h1.7v.44h-1.63v.79h1.63v.68c-.61,.04-1.27,.06-1.97,.07h-.07l.13,.94h.06c2.05-.14,3.51-.28,4.33-.43h.05v-.02l.54,.48,.04-.07c.68-1.15,1.14-2.29,1.37-3.39,.18-.8,.29-1.77,.34-2.89h.78c-.01,2.67-.05,4.26-.1,4.75-.03,.55-.28,.55-.35,.55-.28,0-.56-.03-.82-.09l-.09-.02,.18,1.11h.05c.26,.03,.49,.04,.69,.04,.47,0,.79-.1,.96-.31,.15-.16,.25-.48,.32-.98,.07-.61,.1-2.61,.1-5.93v-.06h-1.68v-1.77Zm-3.96,4.18v-.52h.9v.52h-.9Zm0,1.15v-.48h.9v.48h-.9Zm-.89-.48v.48h-.77v-.48h.77Zm0-1.19v.52h-.77v-.52h.77Z"/><path class="e" d="M123.09,5.02v-.05l-.65,.09c.36-.56,.64-1.06,.84-1.49l.02-.05-.7-.45-.03,.07c-.11,.26-.24,.55-.4,.84-.18,.01-.36,.03-.54,.04,.25-.42,.49-.95,.73-1.55l.02-.06-.8-.33-.02,.06c-.29,.8-.57,1.44-.84,1.92-.1,0-.2,0-.31,0h-.07l.1,.77h.06c.42-.03,.83-.05,1.22-.09-.22,.35-.47,.7-.75,1.05l-.44,.02,.05,.55c-.1-.5-.2-.98-.32-1.42v-.05l-.6,.07c.45-.6,.8-1.13,1.05-1.58l.03-.05-.68-.46-.03,.06c-.16,.31-.35,.64-.56,.98-.15,.02-.29,.03-.43,.04,.26-.42,.53-.94,.78-1.54l.03-.06-.81-.32-.02,.06c-.31,.79-.61,1.43-.9,1.91-.12,0-.24,0-.35,0h-.07l.09,.81h.06c.35-.03,.7-.05,1.04-.08-.24,.31-.51,.64-.8,.97-.13,.01-.26,.02-.4,.03h0V3.31h.4v-.93h-3.35v.93h.33v5.71c-.11,.03-.23,.05-.35,.06h-.07l.24,1.1,.06-.02c.68-.2,1.3-.41,1.84-.63v1.71h.89V6.29l.04,.32h.06c.73-.07,1.41-.16,2.03-.26,.01,.1,.03,.2,.04,.32v.06l.8-.05v-.03h.03c.7-.05,1.35-.12,1.93-.2,.01,.09,.03,.18,.04,.28v.06l.83-.05v-.07c-.12-.59-.24-1.15-.38-1.66Zm-7.15-.61v-1.1h.85v1.1h-.85Zm0,2.07v-1.18h.85v1.18h-.85Zm0,2.32v-1.43h.85v1.16c-.28,.1-.56,.19-.85,.27Zm3.22-3.18c.15-.19,.29-.37,.43-.55,.04,.15,.07,.31,.1,.47-.18,.03-.35,.06-.53,.08Zm3.33,.06c-.17,.02-.33,.03-.5,.05,.14-.21,.28-.41,.4-.61h0c.03,.17,.07,.36,.1,.56Z"/><polygon class="e" points="122.28 8.59 121.64 8.59 121.64 6.87 120.75 6.87 120.75 11.21 121.64 11.21 121.64 9.49 123.17 9.49 123.17 7.01 122.28 7.01 122.28 8.59"/><path class="e" d="M119.48,8.35h-.64v-1.34h-.85v2.24h1.44c-.05,.21-.15,.39-.29,.55-.23,.24-.67,.44-1.3,.6l-.08,.02,.47,.82h.05c.72-.21,1.24-.49,1.57-.85,.34-.39,.52-.92,.54-1.58v-1.93h-.89v1.49Z"/><path class="e" d="M131.86,10.04v-2.33h-3.39c.26-.49,.46-1.01,.58-1.53h2.2v.28c0,.17-.08,.2-.16,.2l-1.06-.04,.22,.94h1.07c.3,0,.52-.09,.66-.25,.14-.16,.2-.39,.2-.68V2.45h-3.87v2.06c0,.38-.04,.8-.12,1.25-.1,.43-.28,.85-.54,1.25l-.02,.03V2.52h-3.08V7.14h3.08v-.07l.69,.65h-3.57v2.33h-.66v.93h8.53v-.93h-.76Zm-6.37-5.6v-1h1.23v1h-1.23Zm0,1.76v-.95h1.23v.95h-1.23Zm3.69-.87c.02-.19,.03-.38,.04-.57h2.04v.57h-2.07Zm.05-1.43v-.56h2.03v.56h-2.03Zm1.63,4.79v1.35h-1.12v-1.35h1.12Zm-2.04,0v1.35h-1.07v-1.35h1.07Zm-2,0v1.35h-1.07v-1.35h1.07Z"/></g><g><g><path class="d" d="M15.58,7.29v9.24c2.12-.47,3.7-2.36,3.7-4.62,0-2.26-1.58-4.15-3.7-4.62Z"/><path class="d" d="M10.81,3.76l8,4.62c.65-2.07-.19-4.39-2.15-5.51-1.96-1.13-4.38-.7-5.85,.89Z"/><path class="d" d="M4.96,6.26L12.96,1.64C11.49,.04,9.07-.39,7.11,.74c-1.96,1.13-2.8,3.44-2.15,5.51Z"/><path class="d" d="M4.31,12.34V3.1C2.19,3.57,.61,5.46,.61,7.72c0,2.26,1.58,4.15,3.7,4.62Z"/><path class="d" d="M9.34,15.99L1.34,11.37c-.65,2.07,.19,4.39,2.15,5.51,1.96,1.13,4.38,.7,5.85-.89Z"/><path class="d" d="M14.99,13.59l-8,4.62c1.47,1.6,3.89,2.03,5.85,.9,1.96-1.13,2.8-3.45,2.15-5.51Z"/></g><path class="d" d="M13.47,9.59l-1.89,1.69h-1.17v-1.16c.96-.2,1.68-1.06,1.68-2.07,0-1.17-2.13-3.54-2.13-3.54-.72,.89-2.11,2.37-2.11,3.54,0,1,.7,1.84,1.63,2.06v1.17h-1.17l-1.89-1.69c-.47,0-.55,.38-.55,.85v2.43c0,.47,.38,.85,.85,.85h6.45c.47,0,.85-.38,.85-.85v-2.43c0-.47-.08-.85-.55-.85Z"/></g><g><path class="e" d="M25.17,14.83h-1.76v1.48h1.51v.38h-1.51v1.96h-.38v-4.21h2.15v.38Z"/><path class="e" d="M27.82,17.08v.18h-1.72c.03,.7,.26,1.06,.68,1.06,.29,0,.52-.18,.69-.54l.32,.19c-.13,.23-.25,.4-.36,.5-.17,.15-.39,.23-.65,.23-.32,0-.58-.14-.76-.42-.19-.28-.29-.64-.29-1.09s.11-.82,.32-1.08c.2-.24,.44-.37,.74-.37s.53,.11,.72,.34c.21,.24,.31,.58,.31,.99Zm-.37-.2c-.09-.5-.31-.75-.65-.75s-.56,.25-.66,.75h1.32Z"/><path class="e" d="M30.59,18.65h-.38v-.5c-.18,.37-.46,.55-.85,.55-.28,0-.53-.13-.73-.4-.22-.28-.32-.65-.32-1.1,0-.4,.1-.75,.3-1.03,.2-.28,.46-.42,.79-.42,.35,0,.62,.16,.82,.49v-1.78h.38v4.21Zm-.38-1.39c0-.31-.08-.58-.23-.81-.15-.22-.34-.33-.56-.33-.24,0-.43,.11-.56,.33-.12,.2-.18,.45-.18,.75s.06,.62,.19,.82c.13,.2,.31,.3,.52,.3,.24,0,.43-.1,.58-.29,.15-.2,.23-.45,.23-.77Z"/><path class="e" d="M33.18,17.08v.18h-1.72c.03,.7,.26,1.06,.68,1.06,.29,0,.52-.18,.69-.54l.32,.19c-.13,.23-.25,.4-.36,.5-.17,.15-.39,.23-.65,.23-.32,0-.58-.14-.76-.42-.19-.28-.29-.64-.29-1.09,0-.46,.11-.82,.32-1.08,.2-.24,.44-.37,.74-.37s.53,.11,.72,.34c.21,.24,.31,.58,.31,.99Zm-.37-.2c-.09-.5-.31-.75-.65-.75s-.56,.25-.66,.75h1.32Z"/><path class="e" d="M35.61,16.13c-.28,.01-.5,.11-.68,.28-.18,.19-.28,.44-.28,.76v1.48h-.38v-2.86h.38v.55c.11-.23,.25-.38,.42-.46,.13-.06,.3-.09,.53-.1v.34Z"/><path class="e" d="M38.55,18.64h-.37c-.04-.15-.06-.28-.06-.38v-.15c-.28,.4-.59,.59-.92,.59-.22,0-.41-.07-.55-.2-.14-.14-.21-.31-.21-.54,0-.36,.14-.62,.41-.8,.27-.17,.7-.27,1.28-.29-.02-.27-.07-.46-.17-.58-.09-.12-.24-.18-.43-.18-.27,0-.45,.12-.55,.37l-.38-.18c.18-.38,.49-.58,.93-.58,.32,0,.56,.11,.73,.32,.16,.21,.25,.51,.25,.9v1.3c0,.15,.02,.28,.06,.38Zm-.43-1.39c-.38,0-.66,.05-.85,.11-.3,.11-.44,.31-.44,.6s.13,.37,.38,.37,.45-.1,.62-.3c.17-.2,.27-.46,.3-.77Z"/><path class="e" d="M40.91,16.18h-.66v1.77c0,.21,.08,.32,.24,.32h.41v.38h-.44c-.21,0-.36-.06-.45-.17-.08-.12-.13-.31-.13-.58v-1.73h-.43v-.38h.43v-.76h.37v.76h.66v.38Z"/><path class="e" d="M43.06,14.92h-.41v-.47h.41v.47Zm-.01,3.73h-.39v-2.86h.39v2.86Z"/><path class="e" d="M46.67,17.25c0,.44-.11,.8-.34,1.07-.21,.25-.48,.38-.8,.38s-.58-.13-.8-.38c-.23-.27-.34-.63-.34-1.07,0-.43,.1-.79,.31-1.08,.21-.29,.49-.43,.83-.43s.61,.14,.83,.43c.21,.29,.31,.65,.31,1.08Zm-.38,0c0-.32-.07-.59-.2-.81-.14-.21-.32-.32-.55-.32s-.42,.11-.55,.32c-.14,.22-.2,.49-.2,.81,0,.32,.07,.58,.21,.77,.14,.19,.32,.29,.54,.29s.4-.1,.54-.29c.14-.2,.21-.45,.21-.77Z"/><path class="e" d="M49.29,17.01v1.64h-.39v-1.64c0-.31-.05-.53-.14-.67-.09-.14-.24-.21-.46-.21-.32,0-.59,.21-.79,.63v1.89h-.39v-2.86h.39v.46c.15-.18,.28-.31,.4-.39,.12-.08,.26-.12,.42-.12,.63,0,.95,.42,.95,1.27Z"/><path class="e" d="M54.34,16.18h-.64v2.48h-.38v-2.48h-.49v-.38h.49v-.59c0-.24,.06-.42,.17-.56,.12-.14,.28-.2,.49-.2h.36v.38h-.27c-.15,0-.24,.03-.29,.1-.05,.06-.08,.17-.08,.33v.54h.64v.38Z"/><path class="e" d="M57.39,17.25c0,.44-.11,.8-.34,1.07-.21,.25-.48,.38-.8,.38s-.58-.13-.8-.38c-.23-.27-.34-.63-.34-1.07,0-.43,.1-.79,.31-1.08,.21-.29,.49-.43,.83-.43s.61,.14,.83,.43c.21,.29,.31,.65,.31,1.08Zm-.38,0c0-.32-.07-.59-.2-.81-.14-.21-.32-.32-.55-.32s-.42,.11-.55,.32c-.14,.22-.2,.49-.2,.81,0,.32,.07,.58,.21,.77,.14,.19,.32,.29,.54,.29s.4-.1,.54-.29c.14-.2,.21-.45,.21-.77Z"/><path class="e" d="M59.73,16.13c-.28,.01-.5,.11-.68,.28-.18,.19-.28,.44-.28,.76v1.48h-.38v-2.86h.38v.55c.11-.23,.25-.38,.42-.46,.13-.06,.3-.09,.53-.1v.34Z"/><path class="e" d="M65.03,16.18h-.66v1.77c0,.21,.08,.32,.24,.32h.41v.38h-.44c-.21,0-.36-.06-.45-.17-.08-.12-.13-.31-.13-.58v-1.73h-.43v-.38h.43v-.76h.37v.76h.66v.38Z"/><path class="e" d="M68.05,18.65h-.38v-1.72c0-.28-.03-.48-.1-.59-.09-.14-.25-.21-.49-.21-.31,0-.58,.28-.79,.83v1.7h-.39v-4.21h.39v1.85c.18-.37,.44-.55,.79-.55,.65,0,.97,.4,.97,1.19v1.72Z"/><path class="e" d="M70.71,17.08v.18h-1.72c.03,.7,.26,1.06,.68,1.06,.29,0,.52-.18,.69-.54l.32,.19c-.13,.23-.25,.4-.36,.5-.17,.15-.39,.23-.65,.23-.32,0-.58-.14-.76-.42-.19-.28-.29-.64-.29-1.09s.11-.82,.32-1.08c.2-.24,.44-.37,.74-.37s.53,.11,.72,.34c.21,.24,.31,.58,.31,.99Zm-.37-.2c-.09-.5-.31-.75-.65-.75s-.56,.25-.66,.75h1.32Z"/><path class="e" d="M76.27,14.44l-.55,4.21h-.34l-.36-2.8-.36,2.8h-.34l-.55-4.21h.37l.36,2.89,.35-2.89h.35l.35,2.89,.36-2.89h.37Z"/><path class="e" d="M78.75,17.08v.18h-1.72c.03,.7,.26,1.06,.68,1.06,.29,0,.52-.18,.69-.54l.32,.19c-.13,.23-.25,.4-.36,.5-.17,.15-.39,.23-.65,.23-.32,0-.58-.14-.76-.42-.19-.28-.29-.64-.29-1.09s.11-.82,.32-1.08c.2-.24,.44-.37,.74-.37s.53,.11,.72,.34c.21,.24,.31,.58,.31,.99Zm-.37-.2c-.09-.5-.31-.75-.65-.75s-.56,.25-.66,.75h1.32Z"/><path class="e" d="M80.57,18.65h-.38v-4.21h.38v4.21Z"/><path class="e" d="M83.82,16.18h-.64v2.48h-.38v-2.48h-.49v-.38h.49v-.59c0-.24,.06-.42,.17-.56,.12-.14,.28-.2,.49-.2h.36v.38h-.27c-.15,0-.24,.03-.29,.1-.05,.06-.08,.17-.08,.33v.54h.64v.38Z"/><path class="e" d="M86.8,18.64h-.37c-.04-.15-.06-.28-.06-.38v-.15c-.28,.4-.59,.59-.92,.59-.22,0-.41-.07-.55-.2-.14-.14-.21-.31-.21-.54,0-.36,.14-.62,.41-.8,.27-.17,.7-.27,1.28-.29-.02-.27-.07-.46-.17-.58-.09-.12-.24-.18-.43-.18-.27,0-.45,.12-.55,.37l-.38-.18c.18-.38,.49-.58,.93-.58,.32,0,.56,.11,.73,.32,.16,.21,.25,.51,.25,.9v1.3c0,.15,.02,.28,.06,.38Zm-.43-1.39c-.38,0-.66,.05-.85,.11-.3,.11-.44,.31-.44,.6,0,.24,.13,.37,.38,.37s.45-.1,.62-.3c.17-.2,.27-.46,.3-.77Z"/><path class="e" d="M89.22,16.13c-.28,.01-.5,.11-.68,.28-.18,.19-.28,.44-.28,.76v1.48h-.38v-2.86h.38v.55c.11-.23,.25-.38,.42-.46,.13-.06,.3-.09,.53-.1v.34Z"/><path class="e" d="M92.15,17.08v.18h-1.72c.03,.7,.26,1.06,.68,1.06,.29,0,.52-.18,.69-.54l.32,.19c-.13,.23-.25,.4-.36,.5-.17,.15-.39,.23-.65,.23-.32,0-.58-.14-.76-.42-.19-.28-.29-.64-.29-1.09s.11-.82,.32-1.08c.2-.24,.44-.37,.74-.37s.53,.11,.72,.34c.21,.24,.31,.58,.31,.99Zm-.37-.2c-.09-.5-.31-.75-.65-.75s-.56,.25-.66,.75h1.32Z"/><path class="e" d="M97.6,17.25c0,.44-.11,.8-.34,1.07-.21,.25-.48,.38-.8,.38s-.58-.13-.8-.38c-.23-.27-.34-.63-.34-1.07s.1-.79,.31-1.08c.21-.29,.49-.43,.83-.43s.61,.14,.83,.43c.21,.29,.31,.65,.31,1.08Zm-.38,0c0-.32-.07-.59-.2-.81-.14-.21-.32-.32-.55-.32s-.42,.11-.56,.32c-.14,.22-.2,.49-.2,.81s.07,.58,.21,.77c.14,.19,.32,.29,.54,.29s.4-.1,.54-.29c.14-.2,.21-.45,.21-.77Z"/><path class="e" d="M99.9,16.18h-.64v2.48h-.38v-2.48h-.49v-.38h.49v-.59c0-.24,.06-.42,.17-.56,.12-.14,.28-.2,.49-.2h.36v.38h-.27c-.15,0-.24,.03-.29,.1-.05,.06-.08,.17-.08,.33v.54h.64v.38Z"/><path class="e" d="M105.24,16.18h-.66v1.77c0,.21,.08,.32,.24,.32h.41v.38h-.44c-.21,0-.36-.06-.44-.17-.08-.12-.13-.31-.13-.58v-1.73h-.43v-.38h.43v-.76h.37v.76h.66v.38Z"/><path class="e" d="M108.26,18.65h-.38v-1.72c0-.28-.04-.48-.1-.59-.09-.14-.25-.21-.49-.21-.31,0-.58,.28-.79,.83v1.7h-.39v-4.21h.39v1.85c.18-.37,.44-.55,.79-.55,.65,0,.97,.4,.97,1.19v1.72Z"/><path class="e" d="M110.91,17.08v.18h-1.72c.03,.7,.26,1.06,.68,1.06,.29,0,.52-.18,.69-.54l.32,.19c-.13,.23-.25,.4-.36,.5-.17,.15-.39,.23-.65,.23-.32,0-.58-.14-.76-.42-.19-.28-.29-.64-.29-1.09s.11-.82,.32-1.08c.2-.24,.44-.37,.74-.37s.53,.11,.72,.34c.21,.24,.31,.58,.31,.99Zm-.37-.2c-.09-.5-.31-.75-.65-.75s-.56,.25-.66,.75h1.32Z"/><path class="e" d="M116.29,18.65h-2.14v-4.21h2.14v.38h-1.75v1.49h1.52v.38h-1.52v1.58h1.75v.37Z"/><path class="e" d="M118.1,18.65h-.38v-4.21h.38v4.21Z"/><path class="e" d="M121.73,18.65h-.38v-.5c-.18,.37-.46,.55-.85,.55-.28,0-.53-.13-.73-.4-.22-.28-.32-.65-.32-1.1,0-.4,.1-.75,.3-1.03,.2-.28,.46-.42,.79-.42,.35,0,.62,.16,.82,.49v-1.78h.38v4.21Zm-.38-1.39c0-.31-.08-.58-.22-.81-.15-.22-.34-.33-.56-.33-.24,0-.43,.11-.56,.33-.12,.2-.18,.45-.18,.75,0,.35,.06,.62,.19,.82,.13,.2,.31,.3,.52,.3,.24,0,.43-.1,.58-.29,.15-.2,.23-.45,.23-.77Z"/><path class="e" d="M124.31,17.08v.18h-1.72c.03,.7,.26,1.06,.68,1.06,.29,0,.52-.18,.69-.54l.32,.19c-.13,.23-.25,.4-.36,.5-.17,.15-.39,.23-.65,.23-.32,0-.58-.14-.76-.42-.19-.28-.29-.64-.29-1.09s.11-.82,.32-1.08c.2-.24,.44-.37,.74-.37s.53,.11,.72,.34c.21,.24,.31,.58,.31,.99Zm-.37-.2c-.09-.5-.31-.75-.65-.75s-.56,.25-.66,.75h1.32Z"/><path class="e" d="M126.74,16.13c-.28,.01-.5,.11-.68,.28-.18,.19-.28,.44-.28,.76v1.48h-.38v-2.86h.38v.55c.11-.23,.25-.38,.42-.46,.13-.06,.3-.09,.53-.1v.34Z"/><path class="e" d="M128.82,18.65h-.38v-4.21h.38v4.21Z"/><path class="e" d="M132.38,15.79l-1.03,3.05c-.08,.24-.18,.42-.3,.51-.12,.1-.3,.15-.53,.15v-.41c.16,0,.28-.04,.35-.11,.05-.05,.1-.17,.17-.34l.09-.27-.87-2.59h.38l.69,2.01,.68-2.01h.39Z"/></g></g></svg>