<?xml version="1.0" encoding="UTF-8"?><svg id="a" xmlns="http://www.w3.org/2000/svg" viewBox="0 0 27.41 17.66"><defs><style>.b{fill:#fff;fill-rule:evenodd;}</style></defs><path class="b" d="M.92,1.65c.72,.4,11,5.93,11.4,6.12,.4,.2,.88,.32,1.36,.32,.52,0,1-.12,1.4-.32,.4-.19,10.69-5.72,11.4-6.12,.76-.39,1.44-1.65,.08-1.65H.84C-.52,0,.16,1.25,.92,1.65H.92Zm25.9,3.05c-.84,.44-11.21,5.88-11.73,6.11-.52,.29-.88,.33-1.4,.33-.48,0-.84-.04-1.36-.33-.52-.23-10.89-5.67-11.73-6.11-.6-.33-.6,.03-.6,.31v11.17c0,.63,.88,1.49,1.52,1.49H25.9c.64,0,1.52-.86,1.52-1.49V5.01c0-.28,0-.64-.6-.31h0Z"/></svg>