<?xml version="1.0" encoding="utf-8"?>
<!-- Generator: Adobe Illustrator 26.1.0, SVG Export Plug-In . SVG Version: 6.00 Build 0)  -->
<svg version="1.1" id="a" xmlns="http://www.w3.org/2000/svg" xmlns:xlink="http://www.w3.org/1999/xlink" x="0px" y="0px"
	 viewBox="0 0 680.3 320.2" style="enable-background:new 0 0 680.3 320.2;" xml:space="preserve">
<style type="text/css">
	.st0{fill:#FFE9B3;}
	.st1{fill:#FFFFFF;}
	.st2{fill:#F5C934;}
</style>
<g>
	<g>
		<g>
			<path class="st0" d="M63.2,301c-1-1.4-2.4-3-3.5-4.2c-0.5-0.5-0.5-1.1-0.1-1.6c0.4-0.4,0.9-0.5,1.5-0.2c1.5,0.7,3.4,1.9,5,3.1
				c1.2,1,1.3,2.2,0.3,3.2C65.3,302.4,64.2,302.3,63.2,301z M68,305c-0.7,4-1.9,8.7-3,12c-0.7,1.8-1.9,2.3-3.4,1.5s-1.7-2-0.8-3.5
				c1.6-2.8,3.5-6.6,5.2-10.6c0.3-0.7,0.8-0.9,1.3-0.7C67.9,303.8,68.1,304.3,68,305z M67.4,293.9c-1.1,1.1-2.2,0.9-3.2-0.4
				c-1-1.4-2.2-2.8-3.3-4.1c-0.4-0.5-0.4-1.1-0.1-1.5c0.4-0.5,0.9-0.6,1.5-0.3c1.6,0.7,3.3,1.8,4.8,3.1
				C68.3,291.7,68.5,292.8,67.4,293.9z M90.5,299c0,0.9-0.5,1.3-1.3,1.3h-7.7v4.9h5.2c1.3,0,2,0.7,2,2v10.4c0,1.4-0.8,2-2.1,2
				c-1.4,0-2.2-0.6-2.2-2v-0.7H74.2v0.7c0,1.4-0.8,2-2.1,2c-1.4,0-2.2-0.6-2.2-2v-10.5c0-1.3,0.7-2,2-2H77v-4.9h-7.5
				c-0.8,0-1.3-0.6-1.3-1.3c0-0.8,0.5-1.3,1.3-1.3H77v-4.4c-2.2,0.2-4.5,0.4-6.4,0.4c-0.7,0-1.2-0.3-1.2-1c-0.1-0.6,0.2-1.1,0.9-1.2
				c4.4-0.5,10.2-2,14.5-3.9c1.4-0.6,2.7-0.3,3.2,1.1c0.5,1.3-0.1,2.5-1.6,2.9c-1.4,0.4-3.1,0.8-5,1.1v5h7.7
				C90,297.7,90.5,298.2,90.5,299z M74.6,307.8c-0.2,0-0.4,0.2-0.4,0.4v6.3h10.2v-6.3c0-0.2-0.2-0.4-0.4-0.4H74.6z"/>
			<path class="st0" d="M107.2,312.5c0.3,0.6,0.2,1.1-0.4,1.5c-2.8,1.9-6.1,3.5-9.3,4.5c-1.3,0.4-2.5-0.1-2.8-1.5
				c-0.2-1.2,0.3-2.1,1.4-2.4v-10.4c0-1,0.6-1.5,1.6-1.5s1.6,0.5,1.6,1.5v9.8c0.3-0.1,0.7-0.2,1.1-0.3V300h-2.1c-1.3,0-2-0.7-2-2
				v-6.9c0-1.3,0.7-2,2-2h6c1.3,0,2,0.7,2,2v6.9c0,1.3-0.7,2-2,2H104v3.2h2.1c0.8,0,1.2,0.4,1.2,1.2c0,0.8-0.4,1.2-1.2,1.2H104v7.2
				c0.7-0.2,1.3-0.4,1.9-0.6C106.4,311.9,107,312,107.2,312.5z M100.1,297.6h2.2c0.2,0,0.4-0.2,0.4-0.4v-5.3c0-0.2-0.2-0.4-0.4-0.4
				h-2.2c-0.2,0-0.4,0.2-0.4,0.4v5.3C99.7,297.4,99.9,297.6,100.1,297.6z M125.8,316.6c0,0.8-0.4,1.2-1.2,1.2h-12.7v0.2
				c0,1.2-0.7,1.8-2,1.8s-1.9-0.6-1.9-1.8v-8.9c-0.4,0.4-0.9,0.8-1.3,1.1c-0.6,0.4-1,0.4-1.4,0s-0.4-0.9,0-1.4
				c1.6-2,2.9-4.5,3.8-7.2c0.4-1.3,1.4-1.6,2.4-1.2c1.1,0.4,1.4,1.3,0.9,2.5c-0.1,0.2-0.1,0.3-0.2,0.5h3.1v-1.3
				c0-1.1,0.7-1.8,1.9-1.8c1.2,0,1.9,0.7,1.9,1.8v1.3h4.8c0.8,0,1.2,0.4,1.2,1.1c0,0.8-0.4,1.2-1.2,1.2h-4.8v1.7h4.2
				c0.7,0,1.1,0.4,1.1,1.1s-0.4,1.1-1.1,1.1h-4.2v1.7h4.2c0.7,0,1.1,0.4,1.1,1.1s-0.4,1.1-1.1,1.1h-4.2v1.9h5.4
				C125.3,315.4,125.8,315.9,125.8,316.6z M107.7,297.1c1.4-0.3,2.9-0.8,4.5-1.4v-4.2c0-0.2-0.2-0.4-0.4-0.4h-4
				c-0.7,0-1.1-0.4-1.1-1.1s0.4-1.1,1.1-1.1h5.9c1.3,0,2,0.7,2,2v8c0,1-0.6,1.5-1.7,1.5s-1.8-0.6-1.8-1.5V298
				c-1.1,0.8-2.3,1.5-3.5,1.9c-0.9,0.3-1.7,0-2-0.9C106.4,298.1,106.7,297.3,107.7,297.1z M109.3,295.1c-0.6-0.7-1.4-1.5-2-2.1
				c-0.3-0.4-0.4-0.8-0.2-1.1c0.3-0.4,0.6-0.4,1.1-0.3c0.9,0.3,2.1,1,2.9,1.7c0.7,0.6,0.8,1.3,0.1,2
				C110.6,295.8,109.9,295.8,109.3,295.1z M115.3,305.8h-3.4v1.7h3.4V305.8z M115.3,309.7h-3.4v1.7h3.4V309.7z M111.9,315.4h3.4
				v-1.9h-3.4V315.4z M117.1,296.9c1.4-0.3,2.9-0.7,4.3-1.3v-4.2c0-0.2-0.2-0.4-0.4-0.4h-3.8c-0.7,0-1.1-0.4-1.1-1.1
				s0.4-1.1,1.1-1.1h5.7c1.3,0,2,0.7,2,2v8.9c0,1-0.6,1.6-1.8,1.6s-1.7-0.6-1.7-1.6v-1.9c-1,0.7-2.2,1.3-3.3,1.8
				c-0.9,0.3-1.7,0-2-0.9C115.8,297.9,116.1,297.2,117.1,296.9z M116.5,293c-0.3-0.3-0.4-0.7-0.1-1.1s0.6-0.4,1.1-0.2
				c0.9,0.3,2.1,1,2.9,1.6c0.7,0.6,0.8,1.3,0.1,2c-0.7,0.7-1.3,0.7-2,0C117.9,294.4,117.2,293.7,116.5,293z"/>
			<path class="st0" d="M160.8,301.2c0,0.9-0.5,1.4-1.3,1.4h-10.4c-2,1.9-4.1,3.5-6.4,5v1.9c3.7-1.2,6.8-2.8,9.4-4.8
				c1.3-1,2.6-0.8,3.4,0.3c0.9,1.2,0.6,2.4-0.9,3.1c-3.4,1.8-7.7,3-12,3.5v0.6c0,2.1,0.2,2.4,2.6,2.5c2.7,0.1,5.2,0.1,8.1-0.1
				c2.1-0.1,2.4-0.7,2.4-4.4c0-0.8,0.3-1.2,1-1.2c0.6,0,1,0.3,1.2,1.1c1.2,6,0.7,8.3-3.7,8.6c-3.3,0.2-6.3,0.3-9.9,0.1
				c-5.2-0.2-6.2-1-6.2-5.2V310c-2.2,1-4.4,1.9-6.9,2.6c-0.7,0.2-1.2,0-1.4-0.6s0-1.1,0.7-1.4c2.8-1.1,5.3-2.4,7.6-3.8V306
				c0-1.4,0.8-2.1,2.2-2.1c0.6,0,1,0.1,1.4,0.3c0.7-0.5,1.3-1.1,2-1.7h-12.6c-0.8,0-1.3-0.5-1.3-1.4s0.5-1.3,1.3-1.3h9.6V295h-6.2
				c-0.8,0-1.2-0.5-1.2-1.3c0-0.9,0.4-1.3,1.2-1.3h6.2v-2.9c0-1.3,0.8-2.1,2.2-2.1s2.2,0.7,2.2,2.1v2.9h4.4c0.8,0,1.2,0.5,1.2,1.3
				l0,0c0.6-0.9,1.1-1.9,1.6-2.9c0.8-1.5,2.1-1.8,3.4-1.1c1.3,0.7,1.6,1.9,0.5,3.6c-1.4,2.4-3,4.5-4.8,6.5h7.8
				C160.3,299.8,160.8,300.3,160.8,301.2z M145.3,299.8h1.2c1.3-1.4,2.5-3.1,3.7-4.9c-0.1,0-0.3,0.1-0.4,0.1h-4.4v4.8H145.3z"/>
			<path class="st0" d="M177.2,290.6c-0.5,1.9-1.3,3.8-2.3,5.8v21.2c0,1.4-0.8,2.1-2.2,2.1s-2.2-0.7-2.2-2.1V303
				c-1.2,1.4-2.4,2.7-3.6,3.6c-0.6,0.4-1.2,0.4-1.6,0c-0.4-0.5-0.4-1,0.1-1.6c3.5-4.3,5.8-9.5,7.4-15.6c0.4-1.5,1.5-2,2.9-1.7
				C177.1,287.9,177.6,288.9,177.2,290.6z M191.9,318.6c-2.7,0.2-5.3,0.2-7.7,0c-3.9-0.2-4.8-1.2-4.8-5.3v-23.6c0-1.3,0.8-2,2.2-2
				s2.2,0.7,2.2,2V301c2.2-1.7,4.4-3.8,6.1-5.9c1.1-1.3,2.4-1.3,3.5-0.4c1.2,1,1.1,2.4-0.3,3.7c-2.6,2.3-5.9,4.2-9.2,5.5v8.6
				c0,1.5,0.4,2,1.8,2.1c1.7,0.1,3.5,0.1,5.3,0s2-0.6,2-6.3c0-0.8,0.4-1.2,1-1.2c0.7,0,1.1,0.3,1.2,1
				C196.8,315.7,196,318.3,191.9,318.6z"/>
			<path class="st0" d="M269.5,292.5c0,0.8-0.5,1.3-1.3,1.3h-27.5c-0.8,0-1.3-0.5-1.3-1.3s0.5-1.3,1.3-1.3H252v-1.8
				c0-1.3,0.9-2.1,2.5-2.1c1.6,0,2.5,0.8,2.5,2.1v1.8h11.3C269,291.2,269.5,291.7,269.5,292.5z M268.2,305.6v9.9
				c0,3.9-3.5,5-8.8,3.1c-0.7-0.3-0.9-0.7-0.8-1.3c0.1-0.6,0.6-0.9,1.3-0.8c3.4,0.3,3.9,0,3.9-1.7v-8.3c0-0.2-0.2-0.4-0.4-0.4h-18
				c-0.2,0-0.4,0.2-0.4,0.4v11.2c0,1.3-0.8,2-2.2,2s-2.2-0.7-2.2-2v-12.1c0-1.3,0.8-2.1,2.1-2.1h23.4
				C267.4,303.5,268.2,304.3,268.2,305.6z M247.3,302.2c-1.3,0-2-0.7-2-2v-3.1c0-1.3,0.7-2,2-2h14.1c1.3,0,2,0.7,2,2v3.1
				c0,1.3-0.7,2-2,2H247.3z M258.9,315.3h-9.1c-1.3,0-2-0.7-2-2v-3.8c0-1.3,0.7-2,2-2h9.1c1.3,0,2,0.7,2,2v3.8
				C260.9,314.6,260.2,315.3,258.9,315.3z M249.4,299.3c0,0.2,0.2,0.4,0.4,0.4h9c0.2,0,0.4-0.2,0.4-0.4v-1.4c0-0.2-0.2-0.4-0.4-0.4
				h-9c-0.2,0-0.4,0.2-0.4,0.4V299.3z M257,310.2c0-0.2-0.2-0.4-0.4-0.4h-4.5c-0.2,0-0.4,0.2-0.4,0.4v2.3c0,0.2,0.2,0.4,0.4,0.4h4.5
				c0.2,0,0.4-0.2,0.4-0.4V310.2z"/>
			<path class="st0" d="M290,297.3h-14.7c-0.8,0-1.2-0.4-1.2-1.2c0-0.8,0.4-1.2,1.2-1.2h1.4v-4.6c0-1,0.6-1.5,1.7-1.5
				s1.7,0.5,1.7,1.5v4.6h1.7v-6c0-1.1,0.7-1.6,1.8-1.6c1.2,0,1.8,0.6,1.8,1.6v1.6h3.8c0.8,0,1.2,0.4,1.2,1.2s-0.4,1.2-1.2,1.2h-3.8
				v2.1h4.7c0.8,0,1.2,0.4,1.2,1.2C291.3,296.8,290.8,297.3,290,297.3z M304.6,300.9c-0.9,1-2.1,1.1-3.2-0.2c-1.7-2-3.1-4.8-4-7.8
				c-0.6,1.3-1.2,2.6-1.9,3.8c0.3,0,0.5,0.1,0.8,0.4c0.9,0.9,1.9,2.1,2.6,3.4c0.6,1,0.3,1.9-0.7,2.4s-1.9,0.2-2.3-0.9
				c-0.4-1.2-0.9-2.6-1.4-3.7c0,0,0,0,0-0.1c-1.1,1.4-2.2,2.7-3.4,3.5c-0.5,0.4-0.9,0.4-1.2,0.1v16.4c0,0.9-0.6,1.4-1.5,1.4
				s-1.5-0.5-1.5-1.4v-0.6h-8.5v0.7c0,0.9-0.5,1.4-1.5,1.4s-1.5-0.5-1.5-1.4v-18.9c0-0.9,0.6-1.4,1.5-1.4c1,0,1.5,0.5,1.5,1.4v4.5
				c0.6-1.2,1-2.9,1.2-5.3c0.1-0.8,0.5-1.1,1.2-1.1c0.7,0.1,1.1,0.5,1,1.2c-0.1,0.6-0.2,1.2-0.3,1.8c0.5,0.5,0.9,1.1,1.3,1.7
				c0,0.1,0.1,0.1,0.1,0.2c0.3-1.1,0.6-2.4,0.8-3.8c0.1-0.8,0.6-1.1,1.3-1c0.7,0.1,1.1,0.4,1,1.2c-0.1,0.7-0.3,1.5-0.5,2.3
				c0.5,0.6,1.1,1.3,1.4,1.9c0,0,0,0,0,0.1v-3.9c0-0.9,0.6-1.4,1.5-1.4c1,0,1.5,0.5,1.5,1.4v0.8c2.3-3,3.6-6.6,4.8-11.4
				c0.3-1.4,1.1-1.8,2.4-1.6c1.2,0.2,1.8,1.1,1.5,2.5c0,0.1,0,0.2-0.1,0.2c1.2,3,3.2,5.8,5.6,7.8
				C305.3,298.7,305.5,299.8,304.6,300.9z M278.4,304.9v0.9h8.5v-1.5c-0.1,0.1-0.2,0.2-0.3,0.3c-0.8,0.4-1.2,0.1-1.4-0.6
				c-0.1-0.3-0.2-0.7-0.3-1c-0.4,1-0.9,1.8-1.4,2.4c-0.3,0.3-0.8,0.4-1.1,0.1c-0.3-0.3-0.4-0.6-0.2-1c0.1-0.2,0.2-0.4,0.3-0.7
				c-0.6,0.3-1.1,0.1-1.2-0.5c-0.1-0.2-0.1-0.5-0.2-0.7c-0.4,1-0.9,1.9-1.3,2.4c-0.3,0.4-0.8,0.4-1.1,0.2
				C278.5,305,278.4,304.9,278.4,304.9z M278.4,313.9c0.6-1.2,1-2.8,1.2-5c0.1-0.7,0.4-1,1.1-1.1h-2.2v6.1H278.4z M278.4,315.4h4.4
				c-0.1,0-0.3-0.1-0.4-0.2c-0.3-0.3-0.4-0.7-0.1-1.1c0.1-0.2,0.2-0.4,0.3-0.6c-0.6,0.4-1.1,0.2-1.3-0.4c-0.1-0.2-0.2-0.5-0.3-0.8
				c-0.4,1.1-0.9,2-1.4,2.6c-0.3,0.4-0.8,0.3-1.1,0.1l0,0v0.4H278.4z M285.8,309.1c-0.1,0.7-0.2,1.3-0.4,2c0.5,0.4,1,1,1.4,1.7v-4.9
				h-6c0.7,0.1,1.1,0.5,1,1.2c-0.1,0.5-0.2,1-0.3,1.5c0.4,0.5,0.9,1.1,1.3,1.6l0.1,0.2c0.3-1,0.4-2.1,0.6-3.5c0.1-0.8,0.6-1.1,1.3-1
				C285.5,307.9,285.9,308.4,285.8,309.1z M286.9,315.4v-0.8c0,0,0,0-0.1,0c-0.7,0.4-1.2,0.2-1.5-0.5c-0.1-0.4-0.3-0.9-0.5-1.3
				c-0.4,0.9-0.8,1.7-1.3,2.2c-0.2,0.2-0.4,0.3-0.6,0.3L286.9,315.4L286.9,315.4z M303.3,306.3c-1,2.6-2.9,5.4-4.9,7.4
				c0.8,0.8,1.4,1.6,2,2.3c1,1.2,0.9,2.4-0.3,3.2c-1.2,0.8-2.2,0.5-3-0.9c-1.3-2.5-3.3-5.2-4.9-7.2c-0.4-0.5-0.4-1,0-1.4
				s0.9-0.4,1.4-0.1c1,0.7,2.2,1.7,3.3,2.7c1.1-2,2.1-4.1,2.6-6.2c0.1-0.3-0.1-0.5-0.4-0.5h-7.3c-0.8,0-1.2-0.4-1.2-1.2
				s0.4-1.2,1.2-1.2h9.4C303.1,303.2,303.9,304.7,303.3,306.3z"/>
			<path class="st0" d="M314.9,309.6c-1,2.7-2.5,5.3-4.3,7.1c-0.4,0.4-0.9,0.5-1.3,0.1s-0.5-0.8-0.2-1.3c1-1.7,1.9-4.2,2.6-7.1
				c0.3-1.2,1.1-1.7,2.3-1.3C315.1,307.3,315.4,308.3,314.9,309.6z M309.3,293.4c0-0.8,0.4-1.2,1.2-1.2h5.3v-3
				c0-1.3,0.8-2.1,2.3-2.1c1.4,0,2.3,0.8,2.3,2.1v3h5.3c0.8,0,1.2,0.4,1.2,1.2c0,0.8-0.4,1.2-1.2,1.2h-15.2
				C309.7,294.6,309.3,294.2,309.3,293.4z M320.1,305.6v10.3c0,3.4-3.1,4.5-7.6,2.7c-0.6-0.3-0.9-0.7-0.7-1.3
				c0.1-0.6,0.6-0.8,1.3-0.7c2.7,0.3,2.9-0.1,2.9-1.6v-9.4h-3c-1.3,0-2-0.7-2-2v-5.1c0-1.3,0.7-2,2-2h9.7c1.3,0,2,0.7,2,2v5.1
				c0,1.3-0.7,2-2,2H320.1z M315.5,303.2h4.8c0.2,0,0.4-0.2,0.4-0.4v-3.5c0-0.2-0.2-0.4-0.4-0.4h-4.8c-0.2,0-0.4,0.2-0.4,0.4v3.5
				C315.1,303,315.3,303.2,315.5,303.2z M336.3,318.8c-4.4,0-5.1-0.6-5.1-3.9v-8.2c-1.2,6.4-3.6,9.9-7.6,12.7
				c-0.6,0.4-1,0.3-1.4-0.1c-0.3-0.4-0.3-0.9,0.1-1.3c1-1.1,1.9-2.2,2.6-3.4c-0.1,0.1-0.3,0.2-0.5,0.3c-1.1,0.5-2,0-2.3-1.3
				c-0.4-1.7-1-3.5-1.6-5.3c-0.2-0.6,0-1.1,0.5-1.3c0.5-0.2,1-0.1,1.3,0.4c1.1,1.4,2.2,3.2,3,5c0.2,0.3,0.2,0.7,0.2,0.9
				c1.4-3.2,2-7.2,2.2-13.6h-1.6c-0.8,0-1.2-0.5-1.2-1.3s0.4-1.2,1.2-1.2h1.7c0.1-2.3,0.1-4.8,0.1-7.7c0-1.5,0.8-2.1,2.1-2.1
				c1.3,0,1.9,0.5,2,2.1c0.1,2.9,0.1,5.4,0,7.8h6.6c0.7,0,1.2,0.4,1.2,1.2c0,0.8-0.5,1.3-1.2,1.3H332c0,0.7-0.1,1.3-0.1,2
				c0.3-0.2,0.7-0.3,1.2-0.3c1.2,0,1.9,0.7,1.9,1.9v10.3c0,1.5,0.2,1.8,1.4,1.8c1.4,0,1.3-0.5,1.4-5.1c0-0.8,0.4-1.1,1-1.1
				s1,0.4,1.1,1.1C340.9,317.3,340.3,318.8,336.3,318.8z M333.4,290.1c-0.2-0.6-0.1-1.1,0.3-1.4c0.5-0.3,0.9-0.2,1.3,0.2
				c1.2,1.1,2.4,2.7,3.3,4.3c0.7,1.2,0.5,2.2-0.7,2.8c-1.1,0.6-2,0.1-2.4-1.2C334.7,293.3,334.1,291.6,333.4,290.1z"/>
			<path class="st0" d="M375.1,316.9c-0.3,1.4-1.3,1.8-2.8,1.4c-3.3-0.7-7.8-3.2-10.3-6.1v5.7c0,1.3-0.8,2-2.2,2
				c-1.4,0-2.2-0.7-2.2-2v-5.1c-2.7,2.5-7.3,4.8-11.9,5.7c-0.7,0.1-1.2-0.1-1.3-0.7c-0.2-0.6,0.1-1,0.7-1.2c3.7-1.3,7.1-3.4,9.7-6.2
				h-8.7c-0.8,0-1.2-0.5-1.2-1.3s0.4-1.3,1.2-1.3h11.5v-1.4h-8.3c-0.8,0-1.2-0.4-1.2-1.2c0-0.8,0.4-1.2,1.2-1.2h8.3v-1.4h-10.1
				c-0.8,0-1.2-0.5-1.2-1.3s0.4-1.3,1.2-1.3h6.3c-0.7-1.1-1.3-2.1-1.9-3c-0.1-0.2-0.2-0.3-0.2-0.5h-5.1c-0.8,0-1.2-0.4-1.2-1.3
				s0.4-1.3,1.2-1.3h3.7l-0.2-0.4c-0.7-1.3-1.5-2.8-2.1-3.9c-0.3-0.6-0.2-1,0.2-1.4c0.4-0.3,0.9-0.3,1.4,0c1.2,0.9,2.5,2.2,3.4,3.4
				c0.7,0.8,0.7,1.7,0,2.3h1.9v-5c0-1.2,0.7-1.8,2-1.8s2,0.6,2,1.8v5h2.1v-5c0-1.2,0.7-1.8,2-1.8s2,0.6,2,1.8v5h1.2
				c0.7-1.4,1.4-3,2.1-4.7c0.5-1.2,1.6-1.4,2.7-0.9c1.1,0.6,1.3,1.6,0.6,2.7c-0.7,1-1.5,2-2.4,2.9h4.1c0.8,0,1.2,0.4,1.2,1.3
				s-0.4,1.3-1.2,1.3h-5.5c0.3,0.6,0.2,1.2-0.3,1.9c-0.4,0.6-0.9,1.1-1.4,1.5h6.4c0.8,0,1.2,0.4,1.2,1.3c0,0.8-0.4,1.3-1.2,1.3
				h-10.2v1.4h8.4c0.8,0,1.2,0.4,1.2,1.2c0,0.8-0.4,1.2-1.2,1.2h-8.4v1.4h11.5c0.8,0,1.2,0.4,1.2,1.3c0,0.8-0.4,1.3-1.2,1.3h-10.2
				c2.7,1.8,6.4,3.1,10.3,3.9C375.2,314.6,375.5,315.6,375.1,316.9z M357.2,300h5.4c0.6-1.1,1.1-2.2,1.5-3.2c0-0.1,0.1-0.2,0.1-0.3
				h-9.3c0.7,0.5,1.3,1,1.8,1.6C357.3,298.9,357.4,299.5,357.2,300z"/>
			<path class="st0" d="M448.9,311.2c0,0.9-0.4,1.3-1.2,1.3H436v5.5c0,1.5-0.8,2.2-2.3,2.2c-1.4,0-2.3-0.7-2.3-2.2v-5.5h-11.6
				c-0.8,0-1.3-0.5-1.3-1.3c0-0.9,0.5-1.3,1.3-1.3h11.6v-3.2h-9.7c-0.8,0-1.2-0.4-1.2-1.3c0-0.8,0.4-1.3,1.2-1.3h6
				c0,0,0-0.1-0.1-0.1c-0.6-1.2-1.3-2.5-2.1-3.7c-0.2-0.4-0.3-0.7-0.2-1h-4.7c-0.8,0-1.2-0.5-1.2-1.3s0.4-1.3,1.2-1.3h10.8v-3h-8
				c-0.8,0-1.2-0.4-1.2-1.3s0.4-1.3,1.2-1.3h8v-1.9c0-1.4,0.8-2.1,2.3-2.1s2.3,0.7,2.3,2.1v1.9h8.1c0.8,0,1.2,0.4,1.2,1.3
				s-0.4,1.3-1.2,1.3H436v3h11.1c0.8,0,1.2,0.5,1.2,1.3c0,0.9-0.4,1.3-1.2,1.3h-5.4c0.7,0.6,0.7,1.5-0.1,2.4c-0.7,0.9-1.3,1.7-2,2.4
				h6.3c0.8,0,1.2,0.4,1.2,1.3s-0.4,1.3-1.2,1.3H436v3.2h11.7C448.4,309.9,448.9,310.3,448.9,311.2z M436.2,304.1
				c0.6-1.3,1.2-2.9,1.7-4.2c0.1-0.3,0.2-0.5,0.3-0.7h-10.3c1,0.7,1.9,1.6,2.7,2.6c0.7,0.8,0.9,1.6,0.4,2.3L436.2,304.1L436.2,304.1
				z"/>
			<path class="st0" d="M483.2,306v11.8c0,1.2-0.7,1.8-2,1.8s-2-0.7-2-1.8v-0.3h-9.8v0.4c0,1.1-0.7,1.8-2,1.8s-2-0.7-2-1.8v-10.2
				c-0.9,0.7-1.8,0.6-2.5-0.4c-0.4-0.7-0.8-1.3-1.2-1.9v12.5c0,1.2-0.7,1.8-2,1.8s-2-0.6-2-1.8v-10.7c-1,0.8-1.9,1.5-2.9,2.1
				c-0.6,0.3-1.1,0.2-1.4-0.3s-0.3-1,0.2-1.4c3.5-3.1,6.2-6.8,7.3-10.5c0.1-0.3-0.1-0.5-0.3-0.5h-6.1c-0.8,0-1.2-0.5-1.2-1.2
				c0-0.8,0.4-1.2,1.2-1.2h3v-4.6c0-1.1,0.7-1.9,2-1.9s2,0.7,2,1.9v4.6h1.5c1.5,0,2.5,1.1,2,2.6c-0.7,2-1.7,3.9-2.9,5.7
				c1.3,0.7,2.5,1.7,3.4,2.5l0.1,0.1c0.2-0.8,0.9-1.2,1.9-1.2h13.7C482.5,303.9,483.2,304.8,483.2,306z M465.4,290.7
				c0-0.8,0.4-1.2,1.2-1.2h15.5c0.8,0,1.2,0.4,1.2,1.2c0,0.8-0.4,1.3-1.2,1.3h-15.5C465.8,292,465.4,291.5,465.4,290.7z
				 M479.6,293.7c1.3,0,2,0.7,2,2v4.4c0,1.3-0.7,2-2,2h-10.4c-1.3,0-2-0.7-2-2v-4.4c0-1.3,0.7-2,2-2H479.6z M469.4,309.5h3v-3.1
				h-2.6c-0.2,0-0.4,0.2-0.4,0.4V309.5z M469.4,315.1h3v-3.3h-3V315.1z M477.7,296.5c0-0.2-0.2-0.4-0.4-0.4h-5.7
				c-0.2,0-0.4,0.2-0.4,0.4v3c0,0.2,0.2,0.4,0.4,0.4h5.7c0.2,0,0.4-0.2,0.4-0.4V296.5z M476.2,309.5h3v-2.7c0-0.2-0.2-0.4-0.4-0.4
				h-2.6V309.5z M479.2,315.1v-3.3h-3v3.3H479.2z"/>
			<path class="st0" d="M518.1,316c-0.3,4-3.7,4.5-8.2,2.3c-0.6-0.3-0.8-0.7-0.6-1.3c0.1-0.6,0.6-0.8,1.3-0.7c3,0.6,3.5,0.4,3.7-1.4
				c0.3-3.4,0.5-7.6,0.5-13.1c0-0.3-0.2-0.4-0.4-0.4h-9.9c-0.9,1.2-2,2.2-3.1,3.1c0.2-0.1,0.4-0.1,0.7-0.1h2.8v-0.7
				c0-1.2,0.7-1.9,2-1.9c1.2,0,1.9,0.7,1.9,1.9v0.7h2.8c1.3,0,2,0.7,2,2v2.4c0,1.3-0.7,2-2,2h-2.8v2.2c0.6-0.1,1.1-0.1,1.6-0.2
				c-0.1-0.1-0.2-0.2-0.2-0.4c-0.2-0.6-0.2-1,0.2-1.3c0.4-0.3,0.9-0.3,1.3,0.1c0.8,0.7,1.6,1.5,2.1,2.5c0.5,0.8,0.3,1.5-0.5,2
				s-1.6,0.3-1.9-0.7c-0.1-0.2-0.2-0.4-0.2-0.6c-2.7,1-6.3,2-9.8,2.4c-1.2,0.2-2.1-0.3-2.3-1.5c-0.1-1.1,0.4-1.9,1.8-1.9
				c1.3,0,2.7-0.1,4-0.1v-2.5h-2.8c-1.3,0-2-0.7-2-2v-2.4c0-0.5,0.1-0.9,0.3-1.2c-0.2,0.1-0.4,0.3-0.6,0.4c-0.5,0.3-1,0.3-1.3-0.1
				c0,0.8,0.1,1.7,0.1,2.5c0,7.2-0.9,11.6-4.9,11.6c-1.6,0-3.1-0.8-4.5-2.3c-0.4-0.5-0.4-1-0.2-1.5c0.2-0.5,0.8-0.6,1.4-0.3
				c0.9,0.4,1.7,0.7,2.3,0.6c1.6,0,1.9-3.5,1.9-9v-0.7c-1.2,1.7-2.7,3.2-4.5,4.4c-0.6,0.4-1.1,0.4-1.5-0.1c-0.3-0.5-0.3-1,0.1-1.5
				c2.2-2.3,4.1-5.1,5.4-8.8c-0.2-1-0.4-2-0.7-3c-1,1-2.1,2-3.3,2.7c-0.6,0.4-1.1,0.3-1.5-0.2c-0.3-0.5-0.3-1,0.2-1.5
				c1.2-1.1,2.3-2.5,3.3-4.1c-0.7-1.4-1.6-2.9-2.7-4.4c-0.3-0.5-0.3-1,0.1-1.4s0.9-0.4,1.3,0.1c1,0.9,1.9,1.9,2.7,2.9
				c0.3-0.8,0.7-1.6,1-2.5c0.4-1.3,1.4-1.8,2.5-1.3c1.2,0.4,1.6,1.4,1,2.7c-0.7,1.5-1.5,2.9-2.4,4.2c1.5,2.8,2.3,5.9,2.6,9.5
				c0.1-0.1,0.1-0.2,0.2-0.3c1.9-1.9,3.3-4,4.2-6.5h-1.3c-1.3,0-2-0.7-2-2v-4.5c0-1.3,0.7-2,2-2h14.4c1.3,0,2,0.7,2,2v4.5
				c0,1.3-0.7,2-2,2h-9c-0.2,0.5-0.4,1-0.8,1.5h10.4c1.3,0,2,0.7,2,2C518.6,307.1,518.5,312,518.1,316z M503.3,294.6
				c0,0.2,0.2,0.4,0.4,0.4h1.3v-3.7h-1.3c-0.2,0-0.4,0.2-0.4,0.4V294.6z M503.4,308.1c0,0.2,0.2,0.4,0.4,0.4h1.3v-2h-1.3
				c-0.2,0-0.4,0.2-0.4,0.4V308.1z M507.8,295.1h1.7v-3.7h-1.7V295.1z M509.9,306.6h-1.4v2h1.4c0.2,0,0.4-0.2,0.4-0.4V307
				C510.4,306.7,510.2,306.6,509.9,306.6z M512.4,295.1h1.3c0.2,0,0.4-0.2,0.4-0.4v-2.9c0-0.2-0.2-0.4-0.4-0.4h-1.3V295.1z"/>
			<path class="st0" d="M553.9,302.7c0,0.8-0.4,1.3-1.2,1.3h-8.6v3.5h5.7c1.3,0,2,0.7,2,2v8.3c0,1.3-0.8,1.9-2.1,1.9
				c-1.4,0-2.1-0.6-2.1-1.9v-0.4h-11.2v0.4c0,1.3-0.8,1.9-2.1,1.9c-1.4,0-2.1-0.6-2.1-1.9v-8.3c0-1.3,0.7-2,2-2h5.7V304H532
				c-0.4,0-0.8-0.2-1-0.4c-0.4,6.6-1.7,11.9-5,15.7c-0.5,0.6-1.1,0.7-1.6,0.2c-0.6-0.4-0.6-1-0.3-1.7c2.3-4.5,2.6-10.3,2.6-20.8
				v-6.1c0-1.3,0.7-2,2-2h21.8c1.3,0,2,0.7,2,2v4.9c0,1.3-0.7,2-2,2h-6.4v3.7h8.6C553.5,301.4,553.9,301.9,553.9,302.7z
				 M539.7,301.4v-3.7h-8.6v1.1c0,1,0,2,0,2.9c0.2-0.2,0.5-0.3,0.9-0.3H539.7z M531.1,295.3h16.6c0.2,0,0.4-0.2,0.4-0.4v-3.1
				c0-0.2-0.2-0.4-0.4-0.4h-16.2c-0.2,0-0.4,0.2-0.4,0.4L531.1,295.3L531.1,295.3z M536.7,309.9c-0.2,0-0.4,0.2-0.4,0.4v4.7h11.2
				v-4.7c0-0.2-0.2-0.4-0.4-0.4H536.7z"/>
		</g>
		<circle class="st1" cx="217.4" cy="303" r="6"/>
		<circle class="st1" cx="398" cy="303" r="6"/>
	</g>
	<g>
		<g>
			<g>
				<g>
					<rect x="315.3" y="57.7" class="st1" width="142.9" height="6.5"/>
					<rect x="388.4" y="116.6" class="st1" width="21.5" height="6.5"/>
					<rect x="339" y="146.4" class="st1" width="125.7" height="6.5"/>
					<rect x="328.4" y="36.9" class="st1" width="21.3" height="115.9"/>
					<rect x="364" y="13.3" class="st1" width="21.3" height="115.7"/>
					<rect x="413.2" y="36.9" class="st1" width="21.3" height="92.1"/>
				</g>
				<g>
					<rect x="219.3" y="57.8" class="st1" width="98.4" height="6.5"/>
					<rect x="208.8" y="88" class="st1" width="115.8" height="6.5"/>
					<rect x="197.5" y="145.6" class="st1" width="125.1" height="6.5"/>
					<rect x="257.9" y="69.5" class="st1" width="21.3" height="71.1"/>
					<path class="st1" d="M299.1,99.4c-2.4,7.2-6.3,15.4-12.1,20.8v18.9c17.3-7.9,25.2-27.3,28.6-39.7
						C315.6,99.4,299.1,99.4,299.1,99.4z"/>
					<path class="st1" d="M236.6,99.4c2.4,7.2,6.3,15.4,12.1,20.8v18.9c-17.3-7.9-25.2-27.3-28.6-39.7
						C220.1,99.4,236.6,99.4,236.6,99.4z"/>
					<path class="st1" d="M265.6,0c-0.3,0.4-27.7,36.5-71.1,57.9c1.5,3.6,2.6,7.3,3.4,11.1c46.9-22.4,75.7-60.5,77-62.1L265.6,0z"/>
					<path class="st1" d="M322.6,41.5C306.9,36,285.4,25.3,266,4.7l-12.5,11.8c24.3,25.8,51.1,37.7,69.1,43.2V41.5z"/>
				</g>
				<g>
					<rect x="501.8" y="93.9" class="st1" width="147.7" height="6.5"/>
					<rect x="473" y="85.4" class="st1" width="21.3" height="68.1"/>
					<path class="st1" d="M483.9,48.5c-5.8,10.2-14.9,23.4-27.5,34.7v20.1c23.9-17,38.5-40.9,45.5-54.8
						C501.9,48.5,483.9,48.5,483.9,48.5z"/>
					<path class="st1" d="M574.6,86.6h19.8c-16.8-24.6-37.9-37.5-43-40.4V65C557.5,69.4,566.2,76.5,574.6,86.6z"/>
					<path class="st1" d="M600.9,183.1l-3.1,8.4c-3.7,8.2-11.1,12.7-19.8,12c-9.5-0.8-22.4-8.5-27.3-27.9
						c-5-19.5-7.3-107.1-7.9-146.5h-21.1c0.4,27.5,2.4,127.2,8.6,151.6c6.3,24.8,24.4,42,46.1,43.7c1.2,0.1,2.4,0.1,3.6,0.1
						c16.2,0,30-9,37-24.1L600.9,183.1z"/>
				</g>
				<g>
					<rect x="68" y="31.2" class="st1" width="149.1" height="6.5"/>
					<rect y="62.8" class="st1" width="191.5" height="6.5"/>
					<rect x="96.1" y="84.2" class="st1" width="64.9" height="6.5"/>
					<rect x="96.1" y="120" class="st1" width="64.9" height="6.5"/>
					<rect x="96.1" y="100.9" class="st1" width="64.9" height="6.5"/>
					<rect x="113.9" y="49.7" class="st1" width="27" height="6.5"/>
					<rect x="89.5" y="12.7" class="st1" width="21.3" height="43.4"/>
					<rect x="117.8" y="74.7" class="st1" width="21.3" height="49.7"/>
					<rect x="144.5" y="12.7" class="st1" width="21.3" height="43.4"/>
					<path class="st1" d="M96.9,135.3c-8.1,8.5-21.9,12.9-30.2,14.6v16c7.7-1.2,38.6-7.6,49.1-30.6H96.9z"/>
					<path class="st1" d="M161.2,135.3c8.1,8.5,21.9,12.9,30.2,14.6v16c-7.7-1.2-38.6-7.6-49.1-30.6H161.2z"/>
					<g>
						<path class="st1" d="M166.1,131.5H184c3.2-7.4,5-15.5,5-24.1c0-9.4-2.1-18.3-6-26.2h-18.3c5.4,7.4,8.5,16.4,8.5,26.2
							C173.2,116.3,170.6,124.5,166.1,131.5z"/>
						<path class="st1" d="M90.9,131.5c-4.5-7-7.1-15.2-7.1-24.1c0-9.8,3.2-18.8,8.5-26.2H74c-3.8,7.9-6,16.8-6,26.2
							c0,8.6,1.8,16.7,5,24.1H90.9z"/>
					</g>
				</g>
			</g>
		</g>
		<path class="st2" d="M616.6,237.5c5.5-29.7,34.1-49.2,63.7-43.7c-29.7-5.5-49.2-34.1-43.7-63.7c-5.5,29.7-34.1,49.2-63.7,43.7
			C602.5,179.3,622.1,207.8,616.6,237.5z"/>
	</g>
	<g>
		<g>
			<path class="st1" d="M65.1,223.8v-3.2c7.1-6.6,14.5-16.3,16.9-23.5c0.7-2.4,1.1-5.2,0.2-7.5c-0.7-1.7-2.1-2.6-3.5-2.6
				c-1.4-0.1-2.8,0.7-3.6,2.3c-1.2,2.5-1.5,6.3-1.4,9.8h-8.3c0.1-3.2,0.6-6.5,2.1-9.3c1.5-2.9,4.1-4.9,7.2-5.8
				c3.2-0.9,7.5-0.7,10.7,0.9c3.1,1.6,4.7,4.3,5.1,7.4c0.4,2.9-0.2,6.1-1.5,8.9c-2.6,5.6-7.6,13.4-13,19.1h14.9v3.4H65.1V223.8z"/>
			<path class="st1" d="M119.5,214.6c-0.9,2.8-2.3,5.4-4.6,7.2c-2,1.5-4.3,2.4-6.8,2.4c-3.4,0-6.2-1.3-8.3-3.4
				c-2.1-2.1-3.4-5-4.1-8.1c-1.1-5.1-0.9-15.9,1.3-21c1.3-3.2,3.6-5.9,7-7.3c3.2-1.3,6.8-1.1,9.8,0.6c2.9,1.7,4.6,4.6,5.7,7.8
				C121.4,198.7,121.3,208.9,119.5,214.6z M109.9,187.5c-0.9-0.5-2.1-0.6-3.2,0.2c-1.1,0.7-1.8,2.2-2.1,3.5
				c-1.6,6.1-1.6,17.3-0.4,25.4c0.2,1.5,1,2.6,1.9,3.2c1.2,0.7,2.5,0.8,3.6,0.1c0.8-0.5,1.5-1.5,1.8-2.8c1.6-7.2,1.8-19.3,0.4-26.6
				C111.7,189.3,110.9,188,109.9,187.5z"/>
			<path class="st1" d="M125,223.8v-3.2c7.1-6.6,14.5-16.3,16.9-23.5c0.7-2.4,1.1-5.2,0.2-7.5c-0.7-1.7-2.1-2.6-3.5-2.6
				c-1.4-0.1-2.8,0.7-3.6,2.3c-1.2,2.5-1.5,6.3-1.4,9.8h-8.3c0.1-3.2,0.6-6.5,2.1-9.3c1.5-2.9,4.1-4.9,7.2-5.8
				c3.2-0.9,7.5-0.7,10.7,0.9c3.1,1.6,4.7,4.3,5.1,7.4c0.4,2.9-0.2,6.1-1.5,8.9c-2.6,5.6-7.6,13.4-13,19.1h14.9v3.4H125V223.8z"/>
			<path class="st1" d="M154.9,223.8v-3.2c7.1-6.6,14.5-16.3,16.9-23.5c0.7-2.4,1.1-5.2,0.2-7.5c-0.7-1.7-2.1-2.6-3.5-2.6
				c-1.4-0.1-2.8,0.7-3.6,2.3c-1.2,2.5-1.5,6.3-1.4,9.8h-8.3c0.1-3.2,0.6-6.5,2.1-9.3c1.5-2.9,4.1-4.9,7.2-5.8
				c3.2-0.9,7.5-0.7,10.7,0.9c3.1,1.6,4.7,4.3,5.1,7.4c0.4,2.9-0.2,6.1-1.5,8.9c-2.6,5.6-7.6,13.4-13,19.1h14.9v3.4h-25.8V223.8z"/>
		</g>
		<g>
			<path class="st1" d="M217.4,184c-0.9,1-1.9,2-2.8,3c-3.2,3.3-10,6.6-14.4,8.2c2.9,0,5.9,0,8.8,0c5.8-0.1,11.5-0.4,17.2-0.5
				c-2-3.5-4.4-6-7.7-8.3l0.5-0.4c4.6,1.6,8.5,1.4,13,5.3c1.4,1.2,3.4,4.4,3.4,6.3c0,2.1-1.9,3.1-3.8,3.1c-0.7,0-2.2-0.5-2.7-1.1
				c-0.6-0.9-1.1-1.8-1.6-2.8l-0.6-1c-2.8,1-5.6,1.8-8.4,2.4c-7.1,1.7-14.9,2.2-22.2,2.9l-1-6c0.6,0,1.2-0.1,1.8-0.3
				c1-0.3,2.6-1.8,3.3-2.4c2.8-2.6,5.2-5,7-8.4H217.4z M207,202.7v1.8h16.1l2.2-2.2l7.3,1.5l-2.3,2.2v20.2h-7v-3.5H207v3.6h-7.1
				v-23.6H207z M223.3,219.6v-12.1H207v12.1H223.3z"/>
			<path class="st1" d="M253.4,208.9c-0.5,0-1-0.2-1.4-0.4c0,3.4-0.2,6.7-0.6,10c-0.2,1.3-0.3,2.8-0.7,4.1l-0.8,2.6l-6.5-5.5
				c3.5-4.5,5.9-10,7.4-15.6h0.8l0.4,2.3c1.9-1.7,2.9-3.1,3.5-5.7h0.6c0.2,1.2,0.5,2.4,0.5,3.7C256.5,206.3,255.7,208.9,253.4,208.9
				z M249.1,201.4c-1,0-2.2-0.6-2.5-1.7c-0.3-1.4-0.2-3.1-1-4.5c-0.3-0.7-1-1.4-1.6-1.9l0.6-0.5c1.6,0.5,4.9,1.9,6.4,2.9
				c0.8,0.6,1.4,2.2,1.4,3.1C252.4,200.5,250.6,201.4,249.1,201.4z M250.8,191.7c-2.1,0-2.7-0.8-3-2.8c-0.2-0.8-0.5-1.6-1-2.3
				c-0.6-1-1.4-1.8-2.2-2.5l0.5-0.5c2.2,0.5,8.7,1.6,8.5,5.1C253.5,190.4,252.4,191.7,250.8,191.7z M274.3,206.8
				c-0.5,0-1-0.2-1.3-0.6v1h-3.7v-1.4H267v1.4h-3.7v-1c-0.4,0.2-1,0.5-1.5,0.5c-0.4,0-0.6-0.1-0.7-0.5c-0.4-1.1-0.4-2.3-0.6-3.5
				c-0.1-0.9-0.4-1.4-0.8-2.2l0.5-0.2c1,0.9,2.1,1.8,2.9,2.9v-3.8c-0.5,0.2-1.1,0.4-1.7,0.4c-1,0-1.3-0.8-1.5-1.6
				c-2,0.8-3.9,1.8-5.9,2.7l-1.8-2.8c2.5-1.1,3.2-2.2,4.7-4.4l-3.3,1.5l-1.8-2.7c0.3-0.2,0.7-0.4,1-0.7c0.6-0.5,2.5-4.6,2.8-5.6
				l0.4-1.4l5,0.7c-1.7,2.5-3.9,4.5-6,6.6l3.3-0.7c0.4-0.7,0.7-1.3,1-2l4.2,0.9l-3.9,4.4c1.8,0.9,3.9,1.7,4.2,3.9h3.2v0.8h2.1l1.3-1
				l3.4,1.7l-0.9,0.6v4.4c1.2-1.5,1.7-2.5,2.1-4.5h0.6c0.5,1.3,1,2.7,1,4.1C276.6,205.8,275.8,206.8,274.3,206.8z M285.1,218.4
				c-0.3,1.8-0.5,3.5-1,5.2c-0.7,2.3-2.9,2.8-4.9,2.9c-0.8,0.1-1.5,0.1-2.3,0.1c-1.4,0-0.4-1.1-1.6-2.2c-0.6-0.6-3.3-1-4.1-1.1
				l0.1-0.7c1.7,0.1,3.4,0.3,5.1,0.3c1.1,0,2.2-0.1,2.4-1.5c0.2-1,0.3-1.9,0.5-2.8h-19.5l-2,1.9l-4.7-2.2l2-1.5l1-5.2l5.4,0.1
				l-0.2,0.5h16.3v-2h-21.7v-2.3h21.5l1.9-1.4l5.8,1l-2,1.6v6.1h-1.6l5.4,1.6L285.1,218.4z M259,195.2l-2.5,2.2l3.3-0.6
				C259.6,196.2,259.4,195.8,259,195.2z M258,207.4c-0.8,0-1.1-0.3-1.1-1.1c0-1,0.5-1.9,0.5-2.9c0-0.9-0.1-1.8-0.2-2.7l0.6-0.1
				c1.2,1.4,2.6,2.9,2.6,4.9C260.4,206.9,259.4,207.4,258,207.4z M277.6,215.4v-0.9H261l-0.5,2.1h18.6l1.7-1.2L277.6,215.4
				L277.6,215.4z M262.2,189.1V187h4.4c-1.2-1.3-0.1-1.7-2-3.4l0.4-0.4c1.6-0.1,5.3,0,5.2,2.5c0,0.5-0.4,1-0.7,1.3h3.5v2.1
				L262.2,189.1L262.2,189.1z M263.7,196.7v-2h8.5v2H263.7z M263.8,193v-2h8.3v2H263.8z M269.4,201.1h-2.3v2.8h2.3V201.1z
				 M283.9,199.8c-1.7,0-1.7-0.9-2.2-2.3c-2.4,1-4.9,1.9-7.3,2.8l-1.9-2.7c2.4-1.1,3.9-2.9,5.3-5l-4.6,1.2l-0.6-2.8
				c0.3-0.2,0.6-0.4,1-0.7c1.5-1.2,2.8-5,3.4-6.8l4.5,0.8c-1.1,1.4-2.4,3.3-3.8,4.5l-2.5,2.1l3.8-0.3c0.8-1.2,1-1.8,1.6-3.2l4.5,0.7
				c-1.5,2-2.8,3.5-4.5,5.3c1.6,0.7,5.4,2.2,5.4,4.3C285.9,198.9,284.9,199.8,283.9,199.8z M279.7,194l-3.6,3.1l5.2-0.9
				C280.7,195,280.6,195,279.7,194z M279.6,206.4c-1,0-1.7-0.6-1.7-1.6c0-0.7,0.1-1.4,0.1-2.1c0-1-0.2-1.4-0.7-2.4l0.6-0.2
				c1.3,1.1,3.6,2.9,3.6,4.7C281.5,205.9,280.7,206.4,279.6,206.4z M284.5,206.7c-0.3,0-0.7,0-1-0.2c-0.9-0.5-0.8-1.1-0.9-2.1
				c0-0.7-0.1-1.3-0.4-1.9c-0.2-0.7-0.6-1.3-1-1.9l0.5-0.3c1.2,0.8,2.4,1.7,3.5,2.7c0.6,0.5,1.2,1.2,1.2,2.1
				C286.4,206.3,285.6,206.7,284.5,206.7z"/>
			<path class="st1" d="M312.8,188.5c-1.4-1-1.2-2.9-2.7-3.7l-1.1-0.6l0.1-0.5c1.1,0,3.9-0.7,5-0.7c2,0,5.1,0.6,5.1,3.5
				c0,0.8-0.6,1.4-1.1,2h18.6v3.2h-41.9v-3.2H312.8z M303.7,205v1.3H327l1.9-2.1l8.1,1.4l-2.4,2.1v14.5c0,0.8-0.2,1.4-0.6,2
				c-1,1.7-5.6,2.1-7.4,2.1c-3,0-0.6-1.9-3.1-3.1c-1-0.5-3.2-0.8-4.3-1l0.1-0.7c2,0.1,4,0.2,6,0.2c1.5,0,2,0,2-1.7v-10.9h-23.6V226
				h-6.9v-21H303.7z M308.4,193.8H322l1.9-1.8l7.8,1.4l-2.2,1.8v8.7h-7V203h-14.1v1.1h-6.7v-11.4h6.7L308.4,193.8L308.4,193.8z
				 M313.1,211.7h4.2l1.6-1.7l6.8,1.2l-2.1,1.7v8.1h-5.9v-1h-4.5v1.1h-5.8v-10.6h5.8v1.2H313.1z M322.5,199.9v-3h-14.1v3H322.5z
				 M317.7,217.3v-2.8h-4.6v2.8H317.7z"/>
			<path class="st1" d="M368.9,226h-4.8v-1.4h-12.2l-2.4,1.9l-4.3-2.9l2.1-1.4v-24.5h4.4v6.9c1.1-2.5,1.7-4.9,1.9-7.5h4
				c-0.5,1.2-0.8,2.4-1.3,3.6c0.5,0.3,1,0.7,1.5,1.1c0.9-1.9,1-2.7,1.2-4.7l4.6,0.1c-0.4,0.7-0.8,1.5-1.1,2.3
				c-0.3,0.8-0.8,1.4-1.2,2.1c1,0.6,2,1.2,2.9,2V198h4.4c2-2.9,3.8-6.8,4.4-10.4c0.2-1.3,0.4-2.7,0.5-4h7.8
				c-0.2,0.6-0.4,1.2-0.7,1.8c0.3,0.9,0.6,1.7,1,2.5c0.5,1.2,1.8,2.7,2.7,3.6c1.2,1.4,2.8,2.5,4.6,2.9v0.6c-1.8,0.7-2.2,1.1-2.7,3
				c-0.1,0.6-0.3,1.4-0.3,2c0,0.5,0.2,1.1,0.3,1.7l-0.7,0.3c-1.6-1.4-2.1-2-3.2-3.9c-2.2-3.7-2.6-5.4-3.3-9.8
				c-1.3,2.5-3.1,4.6-4.9,6.8c1.1,0.3,3.2,0.6,4.6,1.5c1.4,0.8,2.5,1.9,2.5,3.4c0,1.9-1.9,2.9-3.6,3.1c-1.1,0.1-2.8-0.3-3.1-1.8
				c-0.1-0.5,0-1.5,0-2c0-0.3-0.5-2.2-0.7-2.5l-0.6-0.8c-1.3,1.3-2.7,2.7-4.2,3.9L368.9,226L368.9,226z M354,193.3h2.8v-9.6h4.9v3.7
				h5.5v2.8h-5.5v3.1h7.5v2.7H346v-2.7h3.2v-6.8h4.8V193.3z M353.3,210.8h4c-0.3,1.1-0.7,2.3-1.1,3.4c0.6,0.4,1.1,0.9,1.6,1.4
				c0.5-1.5,0.8-3,1-4.6h4.5c-0.4,1.3-1,2.6-1.6,3.8c0.9,0.6,1.7,1.3,2.4,2V210h-12.4v8.6C352.9,215.7,353.1,213.9,353.3,210.8z
				 M355.2,221.9c0.5-1,1-2,1.4-3c-0.9,0-1.5-0.1-1.5-1.1c0-0.6,0.1-1.1,0.2-1.7c-0.2,0.5-0.4,1-0.7,1.4c-0.5,1-2.2,2.9-2.9,3.9v0.6
				L355.2,221.9L355.2,221.9z M355.1,207.3l1.5-2.3c-1.1,0-1-0.8-1.1-1.6l-0.1-1.1c-1,1.9-2.2,3.5-3.5,5.1L355.1,207.3L355.1,207.3z
				 M364.1,221.9v-1.7c-0.5,0.3-1.1,0.7-1.7,0.7c-0.2,0-0.4-0.1-0.6-0.2c-1-0.8-0.6-1.4-0.7-2.6c0-0.5-0.2-1-0.2-1.5
				c-1.3,2-2.8,3.7-4.5,5.3H364.1z M364.1,207.3v-1.5c-0.5,0.6-1,0.9-1.7,0.9c-0.6,0-1.5-0.3-1.6-1c0-0.4,0-0.9-0.1-1.2
				s-0.4-0.8-0.5-1.1c-1.1,1.4-2.2,2.7-3.5,4L364.1,207.3L364.1,207.3z M378.9,208.9h-8.8v-2.8h9.9l2-2.1l6,2.6l-2.4,1.7
				c-2.1,4-4.1,6.6-7.2,9.9c1.9,1.1,4.8,3,4.8,5.5c0,2.1-2,3.2-3.9,3.2c-1.2,0-2.3-0.6-2.9-1.7c-0.9-1.6-1.3-3.5-2.2-5.1
				c-1.2-2-2.9-3.9-4.6-5.4l0.4-0.4c2.2,0.8,4.3,1.6,6.5,2.6C377.9,213.7,378.1,212.2,378.9,208.9z"/>
			<path class="st1" d="M395.3,192.8v-3h6.9c-2.2-0.7-1.6-2.2-2-4.1c-0.1-0.8-0.8-1.3-1.3-1.8l0.2-0.3c2.6-0.5,7.8-0.3,7.8,3.7
				c0,1.3-0.6,1.7-1.5,2.5h4.6v3L395.3,192.8L395.3,192.8z M396.7,205.9v-3h12.5v3H396.7z M396.9,199.4v-3h12v3H396.9z M409.5,211.3
				v13.8h-5v-2.3h-2.3v2.6h-5.3v-16.3h5.3v0.9h2l1.8-1.9l4.9,1.6L409.5,211.3z M404.5,212.9h-2.3v6.9h2.3V212.9z M435.7,197.2
				c0,0.6,0.2,1.1,0.3,1.7l-0.4,0.3c-1.5-0.8-2.9-1.7-4.3-2.8v1.5h-16.4v-1.8c-1.7,1-3.5,2-5.3,2.7l-0.3-0.3
				c1.4-1.3,2.7-2.8,3.9-4.2c2.8-3.4,4-6.5,5.3-10.7h8.8c-0.4,0.5-0.6,1-0.9,1.5c0.6,1,1.3,2,2,2.9c2.2,2.6,7.4,4,10.7,4.5l0.1,0.4
				C437.3,193.7,435.7,194.8,435.7,197.2z M435.9,203.1V222c0,0.7,0,1.6-0.3,2.2c-0.2,0.6-0.7,1-1.2,1.3c-1,0.6-3.9,1.2-5,1.2
				c-2.4,0-0.9-2.3-2.6-3.2c-0.9-0.5-2.2-0.7-3.2-0.9l0.1-0.6c1.3,0.1,2.6,0.1,3.9,0.1c1.1,0,2.8,0.2,2.8-1.4v-7.6h-2.1v7.9h-3.9
				v-7.9h-1.8v8.3h-4v-8.3h-2.1v12.1h-5.3v-24.7h5.3v1.3h13.8l1.9-2.1l5.8,1.7L435.9,203.1z M418.5,204.6h-2.1v5.7h2.1V204.6z
				 M425,187.1c-2.4,3-4.9,5.6-8.2,7.8h12.7C427.2,192.6,425.8,190.3,425,187.1z M424.3,204.6h-1.8v5.7h1.8V204.6z M430.4,204.6
				h-2.1v5.7h2.1V204.6z"/>
			<path class="st1" d="M450.4,212.3v-17.6h-3.8V192h3.8v-8h5.7v7.9h2.2v2.7h-2.2v14.9c1-0.5,2.1-1,3-1.7v-16.3h5.8v1H481l1.8-1.5
				l5.5,1l-1.8,1.8V209h-2l2.7,0.5l-2,1.5v10.2h-6v-0.9h-12v0.9H461v-12h6.2v0.6H479l2.2-1.5v-0.4h-16.3v1h-5
				c-3.6,4.1-7.3,7.4-11.8,10.5l-2.1-5.6C447.5,213.4,448.9,212.9,450.4,212.3z M488.5,222.4v2.6h-32.1v-2.6H488.5z M471.5,188.2
				c-1.6-1-0.7-2.6-2.4-3.8l-0.9-0.6l0.3-0.4c1.6-1,8.3-1.2,8.5,3c0,0.7-0.9,1.4-1.4,1.8h12.8v2.5h-30.2v-2.5H471.5z M481.2,205.5
				v-10.4h-16.3v10.4H481.2z M474.9,197.2l1.5-1.4l4.2,1l-1.6,1.4v6.6h-4v-1.1h-3.8v1.1H467v-8.6h4.2v1H474.9z M479.1,213.9v-1.6
				h-12v1.6H479.1z M479.1,218v-1.9h-12v1.9H479.1z M475,201.4v-2.3h-3.8v2.3H475z"/>
		</g>
	</g>
	<g>
		<path class="st1" d="M201.5,259.8c-0.1,0-0.2-0.2-0.2-0.5v-13.8c0-0.2,0-0.2,0-0.3c0-0.1-0.1-0.1-0.2-0.1h-3.5
			c-0.3,0-0.4-0.1-0.4-0.3v-2.1c0-0.3,0.2-0.4,0.5-0.4h10.1c0.3,0,0.4,0.1,0.4,0.3v2c0,0.2,0,0.4-0.1,0.4s-0.2,0.1-0.5,0.1h-3.3
			c-0.1,0-0.2,0.1-0.2,0.3v14c0,0.1,0,0.2-0.1,0.3s-0.2,0.1-0.3,0.1H201.5z"/>
		<path class="st1" d="M217.8,256.9c0.2,0,0.3,0,0.4,0.1s0.1,0.2,0.1,0.3v2.1c0,0.1-0.1,0.2-0.2,0.2s-0.2,0-0.4,0
			c-0.6,0-1.2,0-1.6-0.1s-0.8-0.2-1.1-0.5c-0.4,0.3-0.8,0.5-1.2,0.5c-0.4,0.1-0.8,0.1-1.1,0.1c-0.4,0-0.8,0-1.3-0.2
			c-0.5-0.1-0.9-0.4-1.4-0.8s-0.8-1-1.1-1.9s-0.4-2-0.4-3.5c0-1.5,0.1-2.6,0.4-3.4s0.6-1.5,1.1-1.9s0.9-0.7,1.4-0.8
			c0.5-0.1,0.9-0.2,1.3-0.2c0.2,0,0.4,0,0.6,0s0.4,0.1,0.7,0.1c0.1-0.1,0.2-0.2,0.4-0.2h2.2c0.1,0,0.2,0,0.2,0.1
			c0.1,0.1,0.1,0.2,0.1,0.3v7.6c0,0.4,0.1,0.8,0.2,1.1C217.3,256.8,217.5,256.9,217.8,256.9z M212.8,256.9c0.1,0,0.3,0,0.4-0.1
			c0.2,0,0.3-0.2,0.4-0.4c0.1-0.2,0.2-0.6,0.3-1s0.1-1.1,0.1-1.9s0-1.4-0.1-1.9c-0.1-0.5-0.2-0.8-0.3-1c-0.1-0.2-0.3-0.3-0.4-0.4
			c-0.1,0-0.3-0.1-0.4-0.1c-0.1,0-0.3,0-0.4,0.1c-0.2,0-0.3,0.2-0.4,0.4c-0.1,0.2-0.2,0.6-0.3,1c-0.1,0.5-0.1,1.1-0.1,1.9
			s0,1.4,0.1,1.9s0.2,0.8,0.3,1c0.1,0.2,0.3,0.4,0.4,0.4C212.5,256.9,212.7,256.9,212.8,256.9z"/>
		<path class="st1" d="M225.3,242.3c0.3,0,0.4,0.1,0.4,0.3v2c0,0.1,0,0.2-0.1,0.3c0,0.2-0.2,0.2-0.5,0.2h-1.9
			c-0.2,0-0.3-0.1-0.3-0.3v-2.1c0-0.1,0-0.3,0.1-0.3c0.1-0.1,0.2-0.1,0.4-0.1H225.3z M223.4,247.3c-0.1,0-0.2,0-0.3,0.1
			c-0.1,0-0.2,0.2-0.2,0.5v11.4c0,0.1,0,0.2,0.1,0.3c0,0.1,0.1,0.2,0.3,0.2h2.2c0.2,0,0.3-0.2,0.3-0.5v-11.4c0-0.2,0-0.3-0.1-0.4
			c0-0.1-0.1-0.2-0.3-0.2H223.4z"/>
		<path class="st1" d="M241.2,259.4c0,0.1-0.1,0.2-0.2,0.3s-0.1,0.1-0.3,0.1h-2.5c-0.1,0-0.2,0-0.3-0.1c0-0.1-0.1-0.2-0.1-0.3
			l-1.2-6.3c0-0.2-0.1-0.2-0.1,0l-1.1,6.3c0,0.1-0.1,0.2-0.1,0.3s-0.1,0.1-0.3,0.1h-2.4c-0.1,0-0.2,0-0.3-0.1s-0.1-0.2-0.2-0.3
			l-2.3-11.6l0-0.2c0-0.2,0-0.3,0-0.3s0.1,0,0.2,0h1.9c0.1,0,0.2,0,0.4,0.1s0.2,0.2,0.3,0.5l1,6.7c0,0.1,0.1,0.2,0.2,0.2
			c0.1,0,0.2-0.1,0.2-0.2l0.9-6.7c0-0.2,0.1-0.3,0.1-0.4c0.1-0.1,0.2-0.1,0.3-0.1h2.3c0.1,0,0.2,0.1,0.3,0.2c0,0.1,0.1,0.2,0.1,0.3
			l1,6.7c0,0.1,0.1,0.2,0.2,0.2c0.1,0,0.2-0.1,0.2-0.2l0.7-4.6c0.2-1.7,0.5-3,0.9-4c0.3-1,0.8-1.8,1.2-2.3c0.5-0.5,1-0.9,1.6-1
			c0.6-0.2,1.3-0.2,2.1-0.2c0.3,0,0.4,0,0.5,0s0.1,0.1,0.1,0.2v1.8c0,0.2,0,0.3-0.1,0.4c-0.1,0.1-0.3,0.1-0.5,0.1
			c-0.4,0-0.8,0-1.1,0.1c-0.3,0.1-0.6,0.2-0.8,0.6c-0.2,0.3-0.5,0.8-0.7,1.5s-0.4,1.7-0.6,2.9L241.2,259.4z"/>
		<path class="st1" d="M256.1,256.9c0.2,0,0.3,0,0.4,0.1s0.1,0.2,0.1,0.3v2.1c0,0.1-0.1,0.2-0.2,0.2s-0.2,0-0.4,0
			c-0.6,0-1.2,0-1.6-0.1s-0.8-0.2-1.1-0.5c-0.4,0.3-0.8,0.5-1.2,0.5c-0.4,0.1-0.8,0.1-1.1,0.1c-0.4,0-0.8,0-1.3-0.2
			c-0.5-0.1-0.9-0.4-1.4-0.8s-0.8-1-1.1-1.9s-0.4-2-0.4-3.5c0-1.5,0.1-2.6,0.4-3.4s0.6-1.5,1.1-1.9s0.9-0.7,1.4-0.8
			c0.5-0.1,0.9-0.2,1.3-0.2c0.2,0,0.4,0,0.6,0s0.4,0.1,0.7,0.1c0.1-0.1,0.2-0.2,0.4-0.2h2.2c0.1,0,0.2,0,0.2,0.1
			c0.1,0.1,0.1,0.2,0.1,0.3v7.6c0,0.4,0.1,0.8,0.2,1.1C255.5,256.8,255.8,256.9,256.1,256.9z M251.1,256.9c0.1,0,0.3,0,0.4-0.1
			c0.2,0,0.3-0.2,0.4-0.4c0.1-0.2,0.2-0.6,0.3-1s0.1-1.1,0.1-1.9s0-1.4-0.1-1.9c-0.1-0.5-0.2-0.8-0.3-1c-0.1-0.2-0.3-0.3-0.4-0.4
			c-0.1,0-0.3-0.1-0.4-0.1c-0.1,0-0.3,0-0.4,0.1c-0.2,0-0.3,0.2-0.4,0.4c-0.1,0.2-0.2,0.6-0.3,1c-0.1,0.5-0.1,1.1-0.1,1.9
			s0,1.4,0.1,1.9s0.2,0.8,0.3,1c0.1,0.2,0.3,0.4,0.4,0.4C250.8,256.9,251,256.9,251.1,256.9z"/>
		<path class="st1" d="M265.8,247.3c0.8,0,1.5,0.2,2,0.5c0.6,0.3,1,0.7,1.4,1.3s0.7,1.1,0.8,1.7c0.2,0.6,0.3,1.3,0.3,1.9v6.5
			c0,0.2,0,0.4-0.1,0.5c0,0.1-0.2,0.2-0.4,0.2h-2c-0.2,0-0.3,0-0.3-0.2c0-0.1,0-0.3,0-0.5v-6.5c0-0.8-0.1-1.4-0.4-1.9
			s-0.7-0.7-1.3-0.7c-0.6,0-1.1,0.2-1.3,0.7s-0.4,1.1-0.4,1.9v6.6c0,0.3-0.1,0.5-0.4,0.5h-2.2c-0.1,0-0.2,0-0.2-0.1
			c-0.1-0.1-0.1-0.2-0.1-0.3v-7.6c0-0.4-0.1-0.8-0.2-1.1c-0.1-0.3-0.4-0.5-0.7-0.5c-0.2,0-0.3,0-0.4-0.1c-0.1-0.1-0.1-0.2-0.1-0.3
			v-2.1c0-0.1,0.1-0.2,0.2-0.2c0.1,0,0.2,0,0.4,0c0.7,0,1.3,0,1.8,0.2c0.5,0.1,0.9,0.3,1.2,0.7C264,247.6,264.9,247.3,265.8,247.3z"
			/>
		<path class="st1" d="M288.1,255.2c0-0.6-0.2-1-0.5-1.4c-0.3-0.4-0.7-0.8-1.2-1.1c-0.5-0.3-1-0.7-1.5-1c-0.5-0.3-1.1-0.7-1.5-1.2
			s-0.9-0.9-1.2-1.5s-0.5-1.3-0.5-2.1c0-1.6,0.4-2.8,1.1-3.5c0.7-0.7,1.9-1,3.4-1c0.7,0,1.2,0.1,1.8,0.3c0.5,0.2,1,0.5,1.4,0.9
			c0.4,0.4,0.7,0.8,1,1.3c0.2,0.5,0.3,1.1,0.3,1.8c0,0.4-0.1,0.6-0.3,0.6h-2.1c-0.1,0-0.2,0-0.3-0.1s-0.1-0.2-0.1-0.4
			c0-0.5-0.2-0.9-0.5-1.1s-0.7-0.3-1.2-0.3c-0.6,0-1.1,0.1-1.4,0.3c-0.3,0.2-0.5,0.6-0.5,1.1c0,0.6,0.2,1.2,0.5,1.6s0.7,0.9,1.2,1.2
			s1,0.7,1.6,1c0.6,0.3,1.1,0.7,1.6,1.1c0.5,0.4,0.9,0.8,1.2,1.4s0.5,1.1,0.5,1.9c0,0.9-0.1,1.7-0.4,2.3c-0.3,0.7-0.7,1.2-1.1,1.6
			s-1,0.7-1.5,0.9c-0.6,0.2-1.1,0.3-1.6,0.3c-0.4,0-0.9-0.1-1.5-0.3c-0.5-0.2-1.1-0.5-1.5-0.8c-0.5-0.4-0.9-0.8-1.2-1.4
			s-0.5-1.2-0.5-2c0-0.1,0-0.2,0-0.2c0,0,0.1-0.1,0.1-0.1h2.4c0.1,0,0.2,0,0.2,0.1c0.1,0,0.1,0.2,0.1,0.4c0,0.3,0,0.6,0.2,0.8
			c0.1,0.2,0.2,0.4,0.4,0.5c0.2,0.1,0.3,0.2,0.6,0.2c0.2,0,0.4,0.1,0.7,0.1c0.3,0,0.6,0,0.8-0.1c0.2,0,0.4-0.1,0.6-0.2
			c0.1-0.1,0.3-0.3,0.3-0.5S288.1,255.6,288.1,255.2z"/>
		<path class="st1" d="M297.8,242.3c0.3,0,0.4,0.1,0.4,0.3v2c0,0.1,0,0.2-0.1,0.3c0,0.2-0.2,0.2-0.5,0.2h-1.9
			c-0.2,0-0.3-0.1-0.3-0.3v-2.1c0-0.1,0-0.3,0.1-0.3c0.1-0.1,0.2-0.1,0.4-0.1H297.8z M295.9,247.3c-0.1,0-0.2,0-0.3,0.1
			c-0.1,0-0.2,0.2-0.2,0.5v11.4c0,0.1,0,0.2,0.1,0.3c0,0.1,0.1,0.2,0.3,0.2h2.2c0.2,0,0.3-0.2,0.3-0.5v-11.4c0-0.2,0-0.3-0.1-0.4
			c0-0.1-0.1-0.2-0.3-0.2H295.9z"/>
		<path class="st1" d="M307.1,259.8c-0.4,0-0.9-0.1-1.4-0.2c-0.5-0.1-0.9-0.4-1.4-0.9c-0.4-0.5-0.8-1.1-1-2
			c-0.3-0.9-0.4-2.1-0.4-3.6v-10.2c0-0.2,0.1-0.3,0.2-0.5c0.1-0.1,0.2-0.2,0.4-0.2h2c0.1,0,0.2,0.1,0.2,0.2c0.1,0.1,0.1,0.3,0.1,0.5
			l0,10c0,0.8,0,1.5,0.1,2s0.2,0.9,0.4,1.2c0.1,0.3,0.3,0.5,0.4,0.6c0.1,0.1,0.3,0.2,0.4,0.2c0.2,0,0.3,0,0.4,0.1s0.1,0.2,0.1,0.3
			v2.1c0,0.1-0.1,0.2-0.2,0.2S307.2,259.8,307.1,259.8z"/>
		<path class="st1" d="M313.3,259.8c-0.1,0-0.2,0-0.3-0.1s-0.1-0.2-0.2-0.3l-2.5-11.6l0-0.1c0-0.2,0-0.3,0-0.3s0.1,0,0.2,0h1.9
			c0.1,0,0.2,0,0.4,0c0.2,0,0.2,0.2,0.3,0.5l1,6.7c0,0.1,0.1,0.2,0.2,0.2c0.1,0,0.2-0.1,0.2-0.2l0.9-6.7c0.1-0.2,0.1-0.4,0.2-0.5
			c0-0.1,0.1-0.1,0.2-0.1h2.2c0.1,0,0.1,0,0.2,0.1c0,0.1,0,0.2,0,0.5l-2.4,11.5c-0.1,0.1-0.1,0.2-0.2,0.3s-0.1,0.1-0.3,0.1H313.3z"
			/>
		<path class="st1" d="M325.1,254.9c0,0.5,0.1,0.8,0.2,1.1c0.1,0.3,0.2,0.5,0.3,0.6s0.2,0.2,0.4,0.3c0.1,0,0.2,0,0.3,0
			c0.1,0,0.2,0,0.3,0c0.1,0,0.2-0.1,0.3-0.2c0.1-0.1,0.2-0.2,0.3-0.4s0.2-0.5,0.2-0.8c0-0.1,0.1-0.2,0.2-0.2h2.6
			c0.1,0,0.2,0.1,0.2,0.2c-0.1,1-0.4,1.8-0.7,2.4c-0.3,0.6-0.7,1-1,1.3c-0.4,0.3-0.8,0.5-1.2,0.5c-0.4,0.1-0.8,0.1-1.1,0.1
			c-0.4,0-0.8,0-1.3-0.2c-0.5-0.1-0.9-0.4-1.4-0.8s-0.8-1-1.1-1.9s-0.4-2-0.4-3.5c0-1.5,0.1-2.6,0.4-3.4s0.6-1.5,1.1-1.9
			s0.9-0.7,1.4-0.8c0.5-0.1,0.9-0.2,1.3-0.2c0.3,0,0.7,0,1.1,0.1c0.4,0.1,0.8,0.3,1.2,0.6c0.4,0.3,0.7,0.7,1,1.3
			c0.3,0.6,0.5,1.4,0.7,2.4c0,0.1,0,0.2,0,0.3c0,0.1,0,0.2,0,0.2v1.9c0,0.1,0,0.2-0.1,0.3c0,0.1-0.2,0.2-0.5,0.2h-4.5
			C325.1,254.7,325.1,254.7,325.1,254.9z M325.1,252.1c0,0.1,0,0.2,0.1,0.2h2.1c0.1,0,0.1-0.1,0.1-0.2c-0.1-0.7-0.3-1.2-0.5-1.5
			c-0.2-0.3-0.4-0.4-0.7-0.4s-0.4,0.1-0.7,0.4S325.3,251.3,325.1,252.1z"/>
		<path class="st1" d="M340.6,247.3c0.2,0,0.4,0,0.5,0c0.1,0,0.2,0.1,0.2,0.3v2.2c0,0.1-0.1,0.2-0.2,0.2s-0.3,0.1-0.5,0.1
			c-0.3,0-0.6,0-0.9,0.2c-0.3,0.1-0.6,0.2-0.9,0.4c-0.3,0.2-0.5,0.4-0.7,0.7c-0.2,0.3-0.3,0.6-0.3,0.9v2.4v4.4c0,0.2,0,0.3-0.1,0.4
			s-0.2,0.2-0.3,0.2h-2c-0.2,0-0.3-0.1-0.4-0.2c0-0.1-0.1-0.2-0.1-0.4v-4.5l0-6.8c0-0.2,0-0.4,0.1-0.5s0.1-0.2,0.2-0.2h2
			c0.1,0,0.3,0.1,0.4,0.2c0.1,0.1,0.2,0.3,0.2,0.5l0,0.2c0.4-0.2,0.9-0.5,1.3-0.6C339.6,247.4,340.1,247.3,340.6,247.3z"/>
		<path class="st1" d="M362.2,252.3c0,1.7-0.1,3-0.4,4c-0.3,1-0.7,1.7-1.1,2.2c-0.5,0.5-1,0.8-1.6,1c-0.6,0.1-1.2,0.2-1.9,0.2
			c-0.5,0-0.9,0-1.3-0.1s-0.8-0.2-1.2-0.4s-0.7-0.5-1-0.9s-0.6-0.9-0.8-1.6c-0.2-0.6-0.4-1.4-0.5-2.4c-0.1-0.9-0.2-2.1-0.2-3.4
			c0-1.9,0.1-3.5,0.3-4.6c0.2-1.2,0.6-2,1-2.6s1-1,1.6-1.2c0.6-0.2,1.3-0.3,2.1-0.3c0.6,0,1.2,0.1,1.8,0.2s1,0.4,1.5,0.8
			s0.8,0.9,1.1,1.6c0.3,0.7,0.5,1.6,0.6,2.8c0,0.3,0,0.5-0.2,0.5l-2.5,0.1c-0.1,0-0.2,0-0.2-0.1c0-0.1-0.1-0.2-0.1-0.4
			c-0.2-1-0.4-1.7-0.8-2c-0.3-0.3-0.7-0.5-1.2-0.5c-0.3,0-0.6,0.1-0.9,0.2c-0.3,0.2-0.5,0.5-0.7,0.9c-0.2,0.4-0.4,1-0.5,1.8
			c-0.1,0.8-0.2,1.7-0.1,3c0,1.2,0.1,2.3,0.2,3s0.3,1.4,0.5,1.8s0.4,0.7,0.7,0.8c0.3,0.1,0.5,0.2,0.8,0.2c0.3,0,0.5-0.1,0.8-0.2
			s0.4-0.3,0.6-0.6c0.2-0.3,0.3-0.7,0.5-1.3c0.1-0.5,0.2-1.2,0.3-2.1h-2c-0.3,0-0.4-0.1-0.4-0.3v-2.1c0-0.3,0.2-0.4,0.5-0.4h4.4
			c0.3,0,0.4,0.1,0.4,0.3v0.8v1.1V252.3L362.2,252.3z"/>
		<path class="st1" d="M372.4,247.3c0.2,0,0.4,0,0.5,0c0.1,0,0.2,0.1,0.2,0.3v2.2c0,0.1-0.1,0.2-0.2,0.2s-0.3,0.1-0.5,0.1
			c-0.3,0-0.6,0-0.9,0.2c-0.3,0.1-0.6,0.2-0.9,0.4c-0.3,0.2-0.5,0.4-0.7,0.7c-0.2,0.3-0.3,0.6-0.3,0.9v2.4v4.4c0,0.2,0,0.3-0.1,0.4
			s-0.2,0.2-0.3,0.2h-2c-0.2,0-0.3-0.1-0.4-0.2c0-0.1-0.1-0.2-0.1-0.4v-4.5l0-6.8c0-0.2,0-0.4,0.1-0.5s0.1-0.2,0.2-0.2h2
			c0.1,0,0.3,0.1,0.4,0.2c0.1,0.1,0.2,0.3,0.2,0.5l0,0.2c0.4-0.2,0.9-0.5,1.3-0.6C371.4,247.4,371.9,247.3,372.4,247.3z"/>
		<path class="st1" d="M380.7,247.3c0.4,0,0.8,0.1,1.3,0.2c0.5,0.1,0.9,0.4,1.4,0.8s0.8,1,1.1,1.9c0.3,0.8,0.4,2,0.4,3.4
			c0,1.5-0.1,2.6-0.4,3.5c-0.3,0.8-0.6,1.5-1.1,1.9s-0.9,0.7-1.4,0.8c-0.5,0.1-0.9,0.2-1.3,0.2c-0.4,0-0.8,0-1.3-0.2
			c-0.5-0.1-0.9-0.4-1.4-0.8s-0.8-1-1.1-1.9s-0.4-2-0.4-3.5c0-1.5,0.1-2.6,0.4-3.4s0.6-1.5,1.1-1.9s0.9-0.7,1.4-0.8
			C379.9,247.4,380.3,247.3,380.7,247.3z M380.7,256.9c0.1,0,0.3,0,0.4-0.1c0.2,0,0.3-0.2,0.4-0.4c0.1-0.2,0.2-0.6,0.3-1
			s0.1-1.1,0.1-1.9s0-1.4-0.1-1.9c-0.1-0.5-0.2-0.8-0.3-1c-0.1-0.2-0.3-0.3-0.4-0.4c-0.1,0-0.3-0.1-0.4-0.1c-0.1,0-0.3,0-0.4,0.1
			c-0.2,0-0.3,0.2-0.4,0.4c-0.1,0.2-0.2,0.6-0.3,1c-0.1,0.5-0.1,1.1-0.1,1.9s0,1.4,0.1,1.9s0.2,0.8,0.3,1c0.1,0.2,0.3,0.4,0.4,0.4
			C380.4,256.9,380.6,256.9,380.7,256.9z"/>
		<path class="st1" d="M399.4,256.9c0.2,0,0.3,0,0.4,0.1c0.1,0.1,0.1,0.2,0.1,0.3v2.1c0,0.1-0.1,0.2-0.2,0.2s-0.2,0-0.4,0
			c-0.7,0-1.3,0-1.8-0.2c-0.5-0.1-0.9-0.3-1.2-0.7c-0.7,0.5-1.5,0.8-2.5,0.8c-0.8,0-1.5-0.2-2-0.5s-1-0.7-1.4-1.3s-0.7-1.1-0.8-1.7
			c-0.2-0.6-0.3-1.3-0.3-1.9V248c0-0.2,0-0.4,0.1-0.5c0-0.1,0.2-0.2,0.4-0.2h2c0.2,0,0.3,0,0.3,0.2c0,0.1,0,0.3,0,0.5v6.5
			c0,0.8,0.1,1.4,0.4,1.9s0.7,0.7,1.3,0.7c0.6,0,1.1-0.2,1.3-0.7s0.4-1.1,0.4-1.9v-6.6c0-0.3,0.1-0.5,0.4-0.5h0.1h2
			c0.1,0,0.2,0,0.2,0.1c0.1,0.1,0.1,0.2,0.1,0.3v7.6c0,0.4,0.1,0.8,0.2,1.1C398.8,256.8,399,256.9,399.4,256.9z"/>
		<path class="st1" d="M408.5,247.3c0.4,0,0.8,0.1,1.3,0.2c0.5,0.1,0.9,0.4,1.3,0.8s0.8,1,1.1,1.9s0.4,2,0.4,3.4
			c0,1.5-0.1,2.6-0.4,3.5s-0.6,1.5-1.1,1.9s-0.9,0.7-1.3,0.8c-0.5,0.1-0.9,0.2-1.3,0.2c-0.2,0-0.4,0-0.6,0c-0.2,0-0.4,0-0.6-0.1v4.5
			c0,0.2,0,0.3-0.1,0.4c-0.1,0.1-0.2,0.2-0.3,0.2h-2c-0.2,0-0.3-0.1-0.4-0.2c-0.1-0.1-0.1-0.2-0.1-0.4v-4.5l0-11.8
			c0-0.2,0-0.4,0.1-0.5s0.1-0.2,0.2-0.2h2c0.2,0,0.3,0.1,0.4,0.2c0.2-0.1,0.5-0.1,0.7-0.2C408.1,247.3,408.3,247.3,408.5,247.3z
			 M408.5,256.9c0.1,0,0.3,0,0.4-0.1s0.3-0.2,0.4-0.4c0.1-0.2,0.2-0.6,0.3-1s0.1-1.1,0.1-1.9s0-1.4-0.1-1.9c-0.1-0.5-0.2-0.8-0.3-1
			c-0.1-0.2-0.3-0.3-0.4-0.4s-0.3-0.1-0.4-0.1s-0.3,0-0.4,0c-0.1,0-0.3,0.1-0.4,0.3s-0.2,0.4-0.3,0.7c-0.1,0.3-0.1,0.8-0.1,1.3v1.9
			c0,0.6,0,1,0.1,1.3c0.1,0.3,0.2,0.6,0.3,0.7s0.2,0.3,0.4,0.3C408.3,256.9,408.4,256.9,408.5,256.9z"/>
		<path class="st1" d="M424.2,259.8c-0.2,0-0.3-0.1-0.3-0.4v-16.5c0-0.3,0.1-0.5,0.2-0.5c0.2,0,0.3-0.1,0.3-0.1h8.6
			c0.3,0,0.4,0.1,0.4,0.3v2c0,0.1,0,0.2-0.1,0.3c0,0.2-0.2,0.2-0.5,0.2H427c-0.1,0-0.2,0-0.3,0.1c-0.1,0-0.1,0.2-0.1,0.3v3.6
			c0,0.2,0.1,0.3,0.2,0.4c0.1,0.1,0.2,0.1,0.4,0.1h4.2c0.3,0,0.4,0.1,0.4,0.3v2c0,0.1,0,0.2-0.1,0.3c0,0.1-0.2,0.2-0.5,0.2h-4.2
			c-0.2,0-0.3,0-0.4,0.1c0,0.1,0,0.2,0,0.3v6.4c0,0.2,0,0.3,0,0.4c0,0.1-0.1,0.1-0.2,0.1H424.2z"/>
		<path class="st1" d="M439.8,247.3c0.4,0,0.8,0.1,1.3,0.2c0.5,0.1,0.9,0.4,1.4,0.8s0.8,1,1.1,1.9c0.3,0.8,0.4,2,0.4,3.4
			c0,1.5-0.1,2.6-0.4,3.5c-0.3,0.8-0.6,1.5-1.1,1.9s-0.9,0.7-1.4,0.8c-0.5,0.1-0.9,0.2-1.3,0.2c-0.4,0-0.8,0-1.3-0.2
			c-0.5-0.1-0.9-0.4-1.4-0.8s-0.8-1-1.1-1.9s-0.4-2-0.4-3.5c0-1.5,0.1-2.6,0.4-3.4s0.6-1.5,1.1-1.9s0.9-0.7,1.4-0.8
			C439,247.4,439.4,247.3,439.8,247.3z M439.8,256.9c0.1,0,0.3,0,0.4-0.1c0.2,0,0.3-0.2,0.4-0.4c0.1-0.2,0.2-0.6,0.3-1
			s0.1-1.1,0.1-1.9s0-1.4-0.1-1.9c-0.1-0.5-0.2-0.8-0.3-1c-0.1-0.2-0.3-0.3-0.4-0.4c-0.1,0-0.3-0.1-0.4-0.1c-0.1,0-0.3,0-0.4,0.1
			c-0.2,0-0.3,0.2-0.4,0.4c-0.1,0.2-0.2,0.6-0.3,1c-0.1,0.5-0.1,1.1-0.1,1.9s0,1.4,0.1,1.9s0.2,0.8,0.3,1c0.1,0.2,0.3,0.4,0.4,0.4
			C439.5,256.9,439.7,256.9,439.8,256.9z"/>
		<path class="st1" d="M454.2,247.3c0.2,0,0.4,0,0.5,0c0.1,0,0.2,0.1,0.2,0.3v2.2c0,0.1-0.1,0.2-0.2,0.2s-0.3,0.1-0.5,0.1
			c-0.3,0-0.6,0-0.9,0.2c-0.3,0.1-0.6,0.2-0.9,0.4c-0.3,0.2-0.5,0.4-0.7,0.7c-0.2,0.3-0.3,0.6-0.3,0.9v2.4v4.4c0,0.2,0,0.3-0.1,0.4
			s-0.2,0.2-0.3,0.2h-2c-0.2,0-0.3-0.1-0.4-0.2c0-0.1-0.1-0.2-0.1-0.4v-4.5l0-6.8c0-0.2,0-0.4,0.1-0.5s0.1-0.2,0.2-0.2h2
			c0.1,0,0.3,0.1,0.4,0.2c0.1,0.1,0.2,0.3,0.2,0.5l0,0.2c0.4-0.2,0.9-0.5,1.3-0.6C453.2,247.4,453.7,247.3,454.2,247.3z"/>
		<path class="st1" d="M469,256.9c0.2,0,0.3,0,0.4,0.1c0.1,0.1,0.1,0.2,0.1,0.3v2.1c0,0.1-0.1,0.2-0.2,0.2s-0.2,0-0.4,0
			c-0.7,0-1.3,0-1.8-0.2c-0.5-0.1-0.9-0.3-1.2-0.7c-0.7,0.5-1.5,0.8-2.5,0.8c-0.8,0-1.5-0.2-2-0.5s-1-0.7-1.4-1.3s-0.7-1.1-0.8-1.7
			c-0.2-0.6-0.3-1.3-0.3-1.9V248c0-0.2,0-0.4,0.1-0.5c0-0.1,0.2-0.2,0.4-0.2h2c0.2,0,0.3,0,0.3,0.2c0,0.1,0,0.3,0,0.5v6.5
			c0,0.8,0.1,1.4,0.4,1.9s0.7,0.7,1.3,0.7c0.6,0,1.1-0.2,1.3-0.7s0.4-1.1,0.4-1.9v-6.6c0-0.3,0.1-0.5,0.4-0.5h0.1h2
			c0.1,0,0.2,0,0.2,0.1c0.1,0.1,0.1,0.2,0.1,0.3v7.6c0,0.4,0.1,0.8,0.2,1.1C468.5,256.8,468.7,256.9,469,256.9z"/>
		<path class="st1" d="M489.5,259.1c0,0.1,0,0.3,0,0.4c0,0.2-0.1,0.2-0.3,0.2h-2c-0.3,0-0.4-0.1-0.5-0.2s-0.1-0.3-0.1-0.5v-6.4
			c0-0.8-0.1-1.4-0.4-1.9s-0.7-0.7-1.3-0.7c-0.6,0-1.1,0.2-1.3,0.7s-0.4,1.1-0.4,1.9v6.5v0.1c0,0.2,0,0.3-0.1,0.4
			c-0.1,0.1-0.2,0.1-0.4,0.1h-2c-0.2,0-0.3,0-0.3-0.2c0-0.1,0-0.2,0-0.4v-6.5c0-0.8-0.1-1.4-0.4-1.9s-0.7-0.7-1.3-0.7
			c-0.6,0-1.1,0.2-1.3,0.7s-0.4,1.1-0.4,1.9v6.6c0,0.3-0.1,0.5-0.4,0.5h-2.2c-0.1,0-0.2,0-0.2-0.1c-0.1-0.1-0.1-0.2-0.1-0.3v-7.6
			c0-0.4-0.1-0.8-0.2-1.1c-0.1-0.3-0.4-0.5-0.7-0.5c-0.2,0-0.3,0-0.4-0.1c-0.1-0.1-0.1-0.2-0.1-0.3v-2.1c0-0.1,0.1-0.2,0.2-0.2
			c0.1,0,0.2,0,0.4,0c0.7,0,1.3,0,1.8,0.2c0.5,0.1,0.9,0.3,1.2,0.7c0.7-0.5,1.5-0.8,2.5-0.8c0.7,0,1.3,0.1,1.8,0.4
			c0.5,0.2,1,0.6,1.3,1c0.4-0.4,0.8-0.7,1.3-1c0.5-0.2,1.1-0.4,1.8-0.4c0.8,0,1.5,0.2,2,0.5s1,0.7,1.4,1.3s0.7,1.1,0.8,1.7
			c0.2,0.6,0.3,1.3,0.3,1.9V259.1z"/>
	</g>
</g>
</svg>
