<?xml version="1.0" encoding="UTF-8"?><svg id="a" xmlns="http://www.w3.org/2000/svg" xmlns:xlink="http://www.w3.org/1999/xlink" viewBox="0 0 679.8 258.38"><defs><style>.c{fill:none;}.d{fill:#f4c934;}.e{fill:#f5c934;}.f{fill:#fff;}.g{fill:#ffe9b3;}.h{clip-path:url(#b);}</style><clipPath id="b"><rect class="c" x="-617.81" y="309.33" width="1250.68" height="2241.18" transform="translate(1437.45 1422.39) rotate(90)"/></clipPath></defs><g class="h"><g><path class="g" d="M1105.81,796.56c-19.91-106.64-122.5-176.95-229.15-157.04,106.64-19.91,176.95-122.51,157.04-229.15-19.91-106.64-122.51-176.96-229.15-157.04-106.64,19.91-176.95,122.51-157.04,229.15-19.91-106.64-122.51-176.95-229.15-157.04-106.64,19.91-176.95,122.51-157.04,229.15l-44.93-240.65,916.72-171.16,153.09,819.94-337.44,63c106.64-19.91,176.95-122.51,157.04-229.15Z"/><circle class="d" cx="840.61" cy="446.43" r="196.43" transform="translate(-72.4 177.47) rotate(-11.56)"/></g></g><g><g><g><g><rect class="f" x="315.07" y="57.7" width="142.84" height="6.46"/><rect class="f" x="388.15" y="116.47" width="21.5" height="6.46"/><rect class="f" x="338.79" y="146.26" width="125.61" height="6.46"/><rect class="f" x="328.15" y="36.88" width="21.29" height="115.84"/><rect class="f" x="363.76" y="13.29" width="21.29" height="115.61"/><rect class="f" x="412.91" y="36.88" width="21.29" height="92.03"/></g><g><rect class="f" x="219.16" y="57.73" width="98.3" height="6.46"/><rect class="f" x="208.63" y="87.93" width="115.7" height="6.46"/><rect class="f" x="197.33" y="145.51" width="125" height="6.46"/><rect class="f" x="257.67" y="69.45" width="21.29" height="71.04"/><path class="f" d="M298.93,99.35c-2.42,7.24-6.29,15.36-12.07,20.83v18.87c17.27-7.9,25.16-27.29,28.55-39.7h-16.48Z"/><path class="f" d="M236.4,99.35c2.42,7.24,6.29,15.36,12.07,20.83v18.87c-17.27-7.9-25.16-27.29-28.55-39.7h16.48Z"/><path class="f" d="M265.45,0c-.29,.38-27.7,36.49-71.08,57.84,1.47,3.55,2.59,7.28,3.36,11.14,46.88-22.43,75.66-60.43,76.91-62.1l-9.19-6.87Z"/><path class="f" d="M322.33,41.46c-15.67-5.47-37.14-16.14-56.54-36.75l-12.54,11.81c24.25,25.75,51.03,37.67,69.08,43.14v-18.2Z"/></g><g><rect class="f" x="501.47" y="93.8" width="147.61" height="6.46"/><rect class="f" x="472.61" y="85.37" width="21.29" height="68.04"/><path class="f" d="M483.52,48.48c-5.82,10.18-14.88,23.36-27.51,34.65v20.13c23.89-17.03,38.48-40.9,45.45-54.78h-17.95Z"/><path class="f" d="M574.19,86.51h19.75c-16.8-24.62-37.84-37.45-42.97-40.34v18.75c6.15,4.39,14.85,11.52,23.22,21.59Z"/><path class="f" d="M600.46,182.92l-3.06,8.37c-3.68,8.21-11.1,12.67-19.82,11.96-9.52-.77-22.37-8.53-27.29-27.87-4.95-19.51-7.29-107.05-7.9-146.34h-21.1c.42,27.49,2.36,127.14,8.55,151.54,6.3,24.8,24.37,41.95,46.03,43.71,1.21,.1,2.4,.15,3.58,.15,16.14,0,30.01-8.98,36.96-24.08l-15.97-17.42Z"/></g><g><rect class="f" x="67.94" y="31.19" width="149.02" height="6.46"/><rect class="f" y="62.76" width="191.31" height="6.46"/><rect class="f" x="95.98" y="84.17" width="64.82" height="6.46"/><rect class="f" x="95.98" y="119.87" width="64.82" height="6.46"/><rect class="f" x="95.98" y="100.85" width="64.82" height="6.46"/><rect class="f" x="113.8" y="49.67" width="27.03" height="6.46"/><rect class="f" x="89.4" y="12.72" width="21.29" height="43.41"/><rect class="f" x="117.75" y="74.6" width="21.29" height="49.63"/><rect class="f" x="144.42" y="12.72" width="21.29" height="43.41"/><path class="f" d="M96.86,135.24c-8.08,8.53-21.93,12.92-30.18,14.58v16.03c7.66-1.25,38.54-7.63,49.05-30.61h-18.87Z"/><path class="f" d="M161.13,135.24c8.08,8.53,21.93,12.92,30.18,14.58v16.03c-7.66-1.25-38.54-7.63-49.05-30.61h18.87Z"/><g><path class="f" d="M165.97,131.41h17.85c3.22-7.39,5.02-15.53,5.02-24.1,0-9.38-2.15-18.26-5.97-26.19h-18.33c5.35,7.36,8.52,16.41,8.52,26.19,0,8.87-2.61,17.14-7.09,24.1Z"/><path class="f" d="M90.81,131.41c-4.48-6.96-7.09-15.23-7.09-24.1,0-9.78,3.17-18.83,8.52-26.19h-18.33c-3.83,7.93-5.97,16.81-5.97,26.19,0,8.56,1.8,16.71,5.02,24.1h17.85Z"/></g></g></g><path class="e" d="M616.11,237.33c5.53-29.64,34.05-49.18,63.69-43.65-29.64-5.53-49.18-34.05-43.65-63.69-5.53,29.64-34.05,49.18-63.69,43.65,29.64,5.53,49.18,34.05,43.65,63.69Z"/></g><g><g><path class="f" d="M145.41,209.03c9.85-9.81,15.2-15.65,15.2-20.96,0-3.73-1.98-6.43-6.25-6.43-2.74,0-5.13,1.71-7.02,3.91l-2.16-2.11c2.65-2.83,5.49-4.81,9.58-4.81,5.85,0,9.45,3.69,9.45,9.31,0,6.12-5.53,12.1-13.45,20.42,1.71-.18,3.69-.27,5.4-.27h9.63v3.15h-20.38v-2.2Z"/><path class="f" d="M170.33,195.13c0-10.71,3.78-16.51,10.12-16.51s10.03,5.85,10.03,16.51-3.73,16.69-10.03,16.69-10.12-5.98-10.12-16.69Zm16.6,0c0-9.49-2.61-13.5-6.48-13.5s-6.57,4-6.57,13.5,2.65,13.72,6.57,13.72,6.48-4.23,6.48-13.72Z"/><path class="f" d="M194.8,209.03c9.85-9.81,15.2-15.65,15.2-20.96,0-3.73-1.98-6.43-6.25-6.43-2.74,0-5.13,1.71-7.02,3.91l-2.16-2.11c2.65-2.83,5.49-4.81,9.58-4.81,5.85,0,9.45,3.69,9.45,9.31,0,6.12-5.53,12.1-13.45,20.42,1.71-.18,3.69-.27,5.4-.27h9.63v3.15h-20.38v-2.2Z"/><path class="f" d="M219.5,209.03c9.85-9.81,15.2-15.65,15.2-20.96,0-3.73-1.98-6.43-6.25-6.43-2.74,0-5.13,1.71-7.02,3.91l-2.16-2.11c2.65-2.83,5.49-4.81,9.58-4.81,5.85,0,9.45,3.69,9.45,9.31,0,6.12-5.53,12.1-13.45,20.42,1.71-.18,3.69-.27,5.4-.27h9.63v3.15h-20.38v-2.2Z"/></g><g><path class="f" d="M277.48,181.93c3.93,3.4,8.57,8.29,10.65,11.62l-2.28,1.6c-.64-1.04-1.48-2.24-2.52-3.52-23.27,1.32-25.51,1.4-26.96,1.96-.12-.6-.56-1.92-.84-2.6,.8-.2,1.88-1.08,3.24-2.4,1.4-1.32,6.17-6.41,9.37-11.42l2.6,1.2c-3.29,4.45-6.93,8.69-10.58,12.02l21.23-1.04c-1.88-2.12-4.05-4.29-6.01-6.05l2.08-1.36Zm-18.83,15.14h25.31v16.54h-2.8v-2.12h-19.83v2.2h-2.68v-16.62Zm2.68,2.56v9.29h19.83v-9.29h-19.83Z"/><path class="f" d="M301.15,194.38c-1.16-1.28-3.69-3.08-5.77-4.21l1.56-1.8c2.08,1.04,4.57,2.72,5.81,4.01l-1.6,2Zm-5.01,17.42c1.48-3.12,3.52-8.25,5.01-12.74l2.08,1.44c-1.32,4.13-3.12,9.09-4.69,12.7l-2.4-1.4Zm5.69-27.8c-1.12-1.36-3.52-3.25-5.53-4.53l1.56-1.72c2,1.16,4.45,2.96,5.57,4.29l-1.6,1.96Zm4.33,7.89c-.4,1.96-1.04,4.12-1.76,5.57-.32-.28-1.04-.68-1.44-.92,.8-1.44,1.24-3.24,1.56-5.05l1.64,.4Zm5.45-1.6c-.12-.36-.28-.8-.48-1.24-5.53,.72-6.45,.96-7.01,1.2-.08-.32-.4-1.12-.64-1.48,.6-.08,1.2-.6,1.88-1.4,.48-.36,1.52-1.6,2.56-3.08-2.76,.24-3.41,.4-3.81,.56-.12-.32-.44-1.12-.64-1.44,.44-.08,.8-.44,1.16-1.04,.44-.52,1.88-2.8,2.52-4.89l1.76,.64c-.72,1.68-1.72,3.41-2.68,4.73l2.76-.2c.4-.6,.8-1.2,1.12-1.84l1.68,.76c-1.44,2.32-3.16,4.65-5.01,6.49l3.73-.4c-.28-.52-.56-1-.84-1.4l1.4-.52c.84,1.24,1.68,2.88,1.96,3.93l-1.44,.64Zm18.46,15.54s-.04,.76-.16,1.08c-.8,3.48-1.6,5.25-2.72,6.05-.8,.6-1.56,.72-2.88,.72-1.16,.04-3.56,0-6.09-.16-.08-.64-.36-1.48-.8-2.12,2.6,.28,5.25,.32,6.21,.32s1.32-.04,1.72-.32c.68-.44,1.28-1.56,1.8-3.72h-21.23c.64-1.64,1.24-3.89,1.72-5.77h18.23v-2.28h-19.75v-1.76h22.23v5.81h-18.71c-.2,.76-.4,1.44-.64,2.16h21.07Zm-22.11-9.05c-.04-1.32-.36-3.41-.92-5.01l1.52-.36c.52,1.6,.92,3.61,.96,4.85l-1.56,.52Zm3.44-5.97c.72,1.36,1.32,3.2,1.52,4.33l-1.44,.64c-.2-1.2-.8-3.08-1.44-4.57l1.36-.4Zm10.69-7.89h-9.61v-1.68h4.37c-.32-.96-1.04-2.28-1.64-3.29l1.84-.48c.68,.96,1.44,2.36,1.76,3.16l-1.84,.6h5.13v1.68Zm-8.53,7.53h7.49v5.89h-7.49v-5.89Zm7.49-4.45h-7.37v-1.56h7.37v1.56Zm0,2.92h-7.37v-1.6h7.37v1.6Zm-5.69,5.85h3.85v-2.8h-3.85v2.8Zm9.29-3.08c-.36,1.96-1,4.08-1.76,5.61-.28-.28-1.04-.76-1.44-1,.8-1.36,1.28-3.2,1.56-4.97l1.64,.36Zm5.65-1.28c-.12-.48-.36-.96-.64-1.56-5.57,.8-6.49,1.04-7.01,1.24-.12-.32-.4-1.12-.64-1.48,.6-.08,1.16-.6,1.84-1.36,.48-.44,1.48-1.6,2.56-3.08-2.72,.24-3.45,.4-3.81,.56-.08-.32-.4-1.12-.64-1.48,.48-.04,.8-.44,1.16-1,.44-.56,1.88-2.76,2.52-4.89l1.76,.64c-.72,1.68-1.68,3.41-2.68,4.73l2.8-.2c.4-.6,.76-1.2,1.08-1.8l1.72,.76c-1.48,2.32-3.24,4.61-5.09,6.49l3.77-.48c-.28-.48-.52-.92-.8-1.36l1.36-.48c.92,1.28,1.8,3.04,2.16,4.17l-1.44,.6Zm-3.76,6.69c-.04-1.44-.44-3.69-1-5.41l1.48-.4c.56,1.76,1,3.97,1.04,5.29l-1.52,.52Zm3.36-6.45c.84,1.64,1.56,3.77,1.8,5.09l-1.44,.68c-.24-1.44-.96-3.6-1.72-5.29l1.36-.48Z"/><path class="f" d="M373.61,181.49v2.32h-34.89v-2.32h16.58c-.36-1.2-.84-2.64-1.28-3.77l2.52-.6c.56,1.4,1.16,3.08,1.6,4.37h15.46Zm-1.36,29.28c0,1.36-.32,1.88-1.32,2.28-1,.32-2.64,.32-5.17,.32-.16-.64-.52-1.44-.84-2,1.76,.08,3.57,.04,4.01,.04,.48-.04,.68-.16,.68-.6v-12.14h-26.8v15.02h-2.56v-17.3h32v14.38Zm-4.41-24.55v7.89h-22.91v-7.89h22.91Zm-2.76,2h-17.5v3.89h17.5v-3.89Zm-.72,21.07h-14.3v2.04h-2.48v-10.13h16.78v8.09Zm-14.3-6.05v4.01h11.9v-4.01h-11.9Z"/><path class="f" d="M398.96,188.33h-18.54v-2.16h2.96v-6.65h2.12v6.65h3.36v-8.93h2.24v3.6h6.57v2.08h-6.57v3.24h7.85v2.16Zm-3.28,1.44h2.04v22.99h-2.04v-1.52h-13.86v-21.47h2.04v8.09h11.82v-8.09Zm0,19.39v-9.21h-11.82v9.21h11.82Zm-7.37-1.44c-.32-.56-.84-1.28-1.32-2-.48,1.16-1.08,2.2-1.84,3.04-.24-.24-.84-.88-1.24-1.16,1.6-1.64,2.24-4.09,2.56-6.93l1.6,.2c-.12,1.12-.32,2.12-.56,3.12,.76,.88,1.56,1.92,1.96,2.6l-1.16,1.12Zm-.2-18.26c-.12,1.08-.32,2.08-.56,3.04,.72,.84,1.44,1.88,1.84,2.52l-1.16,1.12c-.28-.52-.76-1.2-1.2-1.92-.48,1.16-1.08,2.2-1.84,2.96-.24-.24-.8-.84-1.24-1.12,1.56-1.64,2.28-4,2.56-6.77l1.6,.16Zm6.17,7.57c-.48-.72-1.28-1.88-2.04-2.88-.52,1.12-1.2,2.16-2,2.92-.24-.24-.8-.84-1.2-1.16,1.68-1.56,2.44-3.84,2.76-6.61l1.6,.2c-.12,1.08-.36,2.08-.64,3.04,1,1.12,2.08,2.52,2.64,3.36l-1.12,1.12Zm.08,11.66c-.48-.8-1.32-1.96-2.12-3-.52,1.16-1.16,2.2-1.92,3-.24-.28-.88-.84-1.24-1.16,1.68-1.6,2.44-3.93,2.76-6.81l1.6,.24c-.16,1.08-.36,2.08-.64,3.04,1.04,1.2,2.12,2.6,2.72,3.53l-1.16,1.16Zm14.62-30.6c-.2,.56-.44,1.12-.64,1.72,2.12,4.21,5.69,8.77,8.69,11.05-.56,.48-1.24,1.44-1.64,2.04-2.72-2.36-5.81-6.65-8.05-10.85-1.92,4.12-4.45,8.13-7.33,11.13-.4-.48-1.24-1.36-1.72-1.76,3.68-3.68,6.85-9.25,8.49-14.1l2.2,.76Zm6.89,18.95c-1.76,3.84-5.05,8.37-7.41,11.21,1.24,1.36,2.4,2.68,3.28,3.73l-1.72,1.76c-1.76-2.32-5.33-6.21-8.05-8.93l1.6-1.52c1,1,2.12,2.12,3.24,3.32,1.92-2.16,4.29-5.49,5.81-8.33h-12.34v-2.36h13.62l.4-.16,1.56,1.28Zm-3.85-7.61v2.32h-8.85v-2.32h8.85Z"/><path class="f" d="M434.97,186.25h-12.02v-2.2h12.02v2.2Zm-.8,24.99h-7.81v1.92h-2.24v-13.42h10.05v11.5Zm-.28-19.87h-9.57v-2.12h9.57v2.12Zm-9.57,3.08h9.57v2.16h-9.57v-2.16Zm5.01-11.02c-.56-1.44-1.88-3.68-2.96-5.29l2.04-1.04c1.2,1.6,2.52,3.68,3.12,5.09l-2.2,1.24Zm-2.96,18.55v7.01h5.57v-7.01h-5.57Zm22.51-23.51c-.24,.4-.48,.8-.72,1.2,2.56,3.8,7.17,7.65,11.54,9.37-.64,.56-1.48,1.64-1.92,2.4-1.32-.6-2.68-1.4-3.96-2.36v1.52h-13.74v-1.8c-1.48,1.24-3,2.36-4.53,3.21-.36-.76-1-1.84-1.6-2.48,4.85-2.4,10.21-7.57,12.86-12.42l2.08,1.36Zm8.37,32.4c0,1.2-.16,1.84-.88,2.24-.72,.4-1.84,.44-3.45,.44-.08-.68-.32-1.6-.64-2.28,1.12,.04,2,.04,2.32,0,.32,0,.4-.12,.4-.44v-6.41h-4.04v8.45h-2v-8.45h-3.93v8.45h-2v-8.45h-3.89v9.45h-2.24v-19.59h20.35v16.58Zm-14.22-8.73v-5.57h-3.89v5.57h3.89Zm9.77-13.9c-2.32-1.84-4.41-4.17-6.01-6.57-1.72,2.36-3.84,4.61-6.05,6.57h12.06Zm-3.84,13.9v-5.57h-3.93v5.57h3.93Zm6.05,0v-5.57h-4.04v5.57h4.04Z"/><path class="f" d="M477.71,203.68c-4.09,1.64-8.29,3.37-11.62,4.61l-.88-2.68c1.44-.48,3.28-1.16,5.29-1.84v-14.26h-4.65v-2.52h4.65v-9.29h2.52v9.29h3.56v2.52h-3.56v13.34l4.12-1.56,.56,2.4Zm23.91,6.93v2.12h-26.72v-2.12h26.72Zm-.32-27.68h-25.35v-2.08h11.33c-.52-1-1.2-2.16-1.92-3.04l2.16-1c1,1.2,2.08,2.84,2.52,3.96l-.16,.08h11.42v2.08Zm-1.84,14.02h-21.59v-12.18h21.59v12.18Zm-20.35,11.7v-9.89h18.79v9.89h-18.79Zm17.98-22.07h-16.98v8.57h16.98v-8.57Zm-15.54,16.3h13.82v-2.4h-13.82v2.4Zm0,4.09h13.82v-2.44h-13.82v2.44Zm12.38-13.54h-10.77v-5.09h10.77v5.09Zm-2-3.6h-6.81v2.12h6.81v-2.12Z"/></g></g></g></svg>