<?xml version="1.0" encoding="utf-8"?>
<!-- Generator: Adobe Illustrator 26.1.0, SVG Export Plug-In . SVG Version: 6.00 Build 0)  -->
<svg version="1.1" id="a" xmlns="http://www.w3.org/2000/svg" xmlns:xlink="http://www.w3.org/1999/xlink" x="0px" y="0px"
	 viewBox="0 0 717.2 320.2" style="enable-background:new 0 0 717.2 320.2;" xml:space="preserve">
<style type="text/css">
	.st0{fill:#FFE9B3;}
	.st1{fill:#FFFFFF;}
	.st2{fill:#F5C934;}
</style>
<g>
	<g>
		<g>
			<path class="st0" d="M100.1,301c-1-1.4-2.4-3-3.5-4.2c-0.5-0.5-0.5-1.1-0.1-1.6c0.4-0.4,0.9-0.5,1.5-0.2c1.5,0.7,3.4,1.9,5,3.1
				c1.2,1,1.3,2.2,0.3,3.2C102.2,302.4,101.1,302.3,100.1,301z M104.9,305c-0.7,4-1.9,8.7-3,12c-0.7,1.8-1.9,2.3-3.4,1.5
				s-1.7-2-0.8-3.5c1.6-2.8,3.5-6.6,5.2-10.6c0.3-0.7,0.8-0.9,1.3-0.7C104.8,303.8,105,304.3,104.9,305z M104.3,293.9
				c-1.1,1.1-2.2,0.9-3.2-0.4c-1-1.4-2.2-2.8-3.3-4.1c-0.4-0.5-0.4-1.1-0.1-1.5c0.4-0.5,0.9-0.6,1.5-0.3c1.6,0.7,3.3,1.8,4.8,3.1
				C105.2,291.7,105.4,292.8,104.3,293.9z M127.4,299c0,0.9-0.5,1.3-1.3,1.3h-7.7v4.9h5.2c1.3,0,2,0.7,2,2v10.4c0,1.4-0.8,2-2.1,2
				c-1.4,0-2.2-0.6-2.2-2v-0.7h-10.2v0.7c0,1.4-0.8,2-2.1,2c-1.4,0-2.2-0.6-2.2-2v-10.5c0-1.3,0.7-2,2-2h5.1v-4.9h-7.5
				c-0.8,0-1.3-0.6-1.3-1.3c0-0.8,0.5-1.3,1.3-1.3h7.5v-4.4c-2.2,0.2-4.5,0.4-6.4,0.4c-0.7,0-1.2-0.3-1.2-1
				c-0.1-0.6,0.2-1.1,0.9-1.2c4.4-0.5,10.2-2,14.5-3.9c1.4-0.6,2.7-0.3,3.2,1.1c0.5,1.3-0.1,2.5-1.6,2.9c-1.4,0.4-3.1,0.8-5,1.1v5
				h7.7C126.9,297.7,127.4,298.2,127.4,299z M111.5,307.8c-0.2,0-0.4,0.2-0.4,0.4v6.3h10.2v-6.3c0-0.2-0.2-0.4-0.4-0.4H111.5z"/>
			<path class="st0" d="M144.1,312.5c0.3,0.6,0.2,1.1-0.4,1.5c-2.8,1.9-6.1,3.5-9.3,4.5c-1.3,0.4-2.5-0.1-2.8-1.5
				c-0.2-1.2,0.3-2.1,1.4-2.4v-10.4c0-1,0.6-1.5,1.6-1.5s1.6,0.5,1.6,1.5v9.8c0.3-0.1,0.7-0.2,1.1-0.3V300h-2.1c-1.3,0-2-0.7-2-2
				v-6.9c0-1.3,0.7-2,2-2h6c1.3,0,2,0.7,2,2v6.9c0,1.3-0.7,2-2,2h-0.3v3.2h2.1c0.8,0,1.2,0.4,1.2,1.2c0,0.8-0.4,1.2-1.2,1.2h-2.1
				v7.2c0.7-0.2,1.3-0.4,1.9-0.6C143.3,311.9,143.9,312,144.1,312.5z M137,297.6h2.2c0.2,0,0.4-0.2,0.4-0.4v-5.3
				c0-0.2-0.2-0.4-0.4-0.4H137c-0.2,0-0.4,0.2-0.4,0.4v5.3C136.6,297.4,136.8,297.6,137,297.6z M162.7,316.6c0,0.8-0.4,1.2-1.2,1.2
				h-12.7v0.2c0,1.2-0.7,1.8-2,1.8s-1.9-0.6-1.9-1.8v-8.9c-0.4,0.4-0.9,0.8-1.3,1.1c-0.6,0.4-1,0.4-1.4,0c-0.4-0.4-0.4-0.9,0-1.4
				c1.6-2,2.9-4.5,3.8-7.2c0.4-1.3,1.4-1.6,2.4-1.2c1.1,0.4,1.4,1.3,0.9,2.5c-0.1,0.2-0.1,0.3-0.2,0.5h3.1v-1.3
				c0-1.1,0.7-1.8,1.9-1.8c1.2,0,1.9,0.7,1.9,1.8v1.3h4.8c0.8,0,1.2,0.4,1.2,1.1c0,0.8-0.4,1.2-1.2,1.2H156v1.7h4.2
				c0.7,0,1.1,0.4,1.1,1.1s-0.4,1.1-1.1,1.1H156v1.7h4.2c0.7,0,1.1,0.4,1.1,1.1s-0.4,1.1-1.1,1.1H156v1.9h5.4
				C162.2,315.4,162.7,315.9,162.7,316.6z M144.6,297.1c1.4-0.3,2.9-0.8,4.5-1.4v-4.2c0-0.2-0.2-0.4-0.4-0.4h-4
				c-0.7,0-1.1-0.4-1.1-1.1s0.4-1.1,1.1-1.1h5.9c1.3,0,2,0.7,2,2v8c0,1-0.6,1.5-1.7,1.5c-1.1,0-1.8-0.6-1.8-1.5V298
				c-1.1,0.8-2.3,1.5-3.5,1.9c-0.9,0.3-1.7,0-2-0.9S143.6,297.3,144.6,297.1z M146.2,295.1c-0.6-0.7-1.4-1.5-2-2.1
				c-0.3-0.4-0.4-0.8-0.2-1.1c0.3-0.4,0.6-0.4,1.1-0.3c0.9,0.3,2.1,1,2.9,1.7c0.7,0.6,0.8,1.3,0.1,2
				C147.5,295.8,146.8,295.8,146.2,295.1z M152.2,305.8h-3.4v1.7h3.4V305.8z M152.2,309.7h-3.4v1.7h3.4V309.7z M148.8,315.4h3.4
				v-1.9h-3.4V315.4z M154,296.9c1.4-0.3,2.9-0.7,4.3-1.3v-4.2c0-0.2-0.2-0.4-0.4-0.4h-3.8c-0.7,0-1.1-0.4-1.1-1.1s0.4-1.1,1.1-1.1
				h5.7c1.3,0,2,0.7,2,2v8.9c0,1-0.6,1.6-1.8,1.6c-1.2,0-1.7-0.6-1.7-1.6v-1.9c-1,0.7-2.2,1.3-3.3,1.8c-0.9,0.3-1.7,0-2-0.9
				C152.7,297.9,153,297.2,154,296.9z M153.4,293c-0.3-0.3-0.4-0.7-0.1-1.1s0.6-0.4,1.1-0.2c0.9,0.3,2.1,1,2.9,1.6
				c0.7,0.6,0.8,1.3,0.1,2s-1.3,0.7-2,0C154.8,294.4,154.1,293.7,153.4,293z"/>
			<path class="st0" d="M197.7,301.2c0,0.9-0.5,1.4-1.3,1.4H186c-2,1.9-4.1,3.5-6.4,5v1.9c3.7-1.2,6.8-2.8,9.4-4.8
				c1.3-1,2.6-0.8,3.4,0.3c0.9,1.2,0.6,2.4-0.9,3.1c-3.4,1.8-7.7,3-12,3.5v0.6c0,2.1,0.2,2.4,2.6,2.5c2.7,0.1,5.2,0.1,8.1-0.1
				c2.1-0.1,2.4-0.7,2.4-4.4c0-0.8,0.3-1.2,1-1.2c0.6,0,1,0.3,1.2,1.1c1.2,6,0.7,8.3-3.7,8.6c-3.3,0.2-6.3,0.3-9.9,0.1
				c-5.2-0.2-6.2-1-6.2-5.2V310c-2.2,1-4.4,1.9-6.9,2.6c-0.7,0.2-1.2,0-1.4-0.6s0-1.1,0.7-1.4c2.8-1.1,5.3-2.4,7.6-3.8V306
				c0-1.4,0.8-2.1,2.2-2.1c0.6,0,1,0.1,1.4,0.3c0.7-0.5,1.3-1.1,2-1.7H168c-0.8,0-1.3-0.5-1.3-1.4s0.5-1.3,1.3-1.3h9.6V295h-6.2
				c-0.8,0-1.2-0.5-1.2-1.3c0-0.9,0.4-1.3,1.2-1.3h6.2v-2.9c0-1.3,0.8-2.1,2.2-2.1s2.2,0.7,2.2,2.1v2.9h4.4c0.8,0,1.2,0.5,1.2,1.3
				l0,0c0.6-0.9,1.1-1.9,1.6-2.9c0.8-1.5,2.1-1.8,3.4-1.1c1.3,0.7,1.6,1.9,0.5,3.6c-1.4,2.4-3,4.5-4.8,6.5h7.8
				C197.2,299.8,197.7,300.3,197.7,301.2z M182.2,299.8h1.2c1.3-1.4,2.5-3.1,3.7-4.9c-0.1,0-0.3,0.1-0.4,0.1h-4.4v4.8H182.2z"/>
			<path class="st0" d="M214.1,290.6c-0.5,1.9-1.3,3.8-2.3,5.8v21.2c0,1.4-0.8,2.1-2.2,2.1s-2.2-0.7-2.2-2.1V303
				c-1.2,1.4-2.4,2.7-3.6,3.6c-0.6,0.4-1.2,0.4-1.6,0c-0.4-0.5-0.4-1,0.1-1.6c3.5-4.3,5.8-9.5,7.4-15.6c0.4-1.5,1.5-2,2.9-1.7
				C214,287.9,214.5,288.9,214.1,290.6z M228.8,318.6c-2.7,0.2-5.3,0.2-7.7,0c-3.9-0.2-4.8-1.2-4.8-5.3v-23.6c0-1.3,0.8-2,2.2-2
				s2.2,0.7,2.2,2V301c2.2-1.7,4.4-3.8,6.1-5.9c1.1-1.3,2.4-1.3,3.5-0.4c1.2,1,1.1,2.4-0.3,3.7c-2.6,2.3-5.9,4.2-9.2,5.5v8.6
				c0,1.5,0.4,2,1.8,2.1c1.7,0.1,3.5,0.1,5.3,0s2-0.6,2-6.3c0-0.8,0.4-1.2,1-1.2c0.7,0,1.1,0.3,1.2,1
				C233.7,315.7,232.9,318.3,228.8,318.6z"/>
			<path class="st0" d="M306.4,292.5c0,0.8-0.5,1.3-1.3,1.3h-27.5c-0.8,0-1.3-0.5-1.3-1.3s0.5-1.3,1.3-1.3h11.3v-1.8
				c0-1.3,0.9-2.1,2.5-2.1s2.5,0.8,2.5,2.1v1.8h11.3C305.9,291.2,306.4,291.7,306.4,292.5z M305.1,305.6v9.9c0,3.9-3.5,5-8.8,3.1
				c-0.7-0.3-0.9-0.7-0.8-1.3c0.1-0.6,0.6-0.9,1.3-0.8c3.4,0.3,3.9,0,3.9-1.7v-8.3c0-0.2-0.2-0.4-0.4-0.4h-18
				c-0.2,0-0.4,0.2-0.4,0.4v11.2c0,1.3-0.8,2-2.2,2s-2.2-0.7-2.2-2v-12.1c0-1.3,0.8-2.1,2.1-2.1H303
				C304.3,303.5,305.1,304.3,305.1,305.6z M284.2,302.2c-1.3,0-2-0.7-2-2v-3.1c0-1.3,0.7-2,2-2h14.1c1.3,0,2,0.7,2,2v3.1
				c0,1.3-0.7,2-2,2H284.2z M295.8,315.3h-9.1c-1.3,0-2-0.7-2-2v-3.8c0-1.3,0.7-2,2-2h9.1c1.3,0,2,0.7,2,2v3.8
				C297.8,314.6,297.1,315.3,295.8,315.3z M286.3,299.3c0,0.2,0.2,0.4,0.4,0.4h9c0.2,0,0.4-0.2,0.4-0.4v-1.4c0-0.2-0.2-0.4-0.4-0.4
				h-9c-0.2,0-0.4,0.2-0.4,0.4V299.3z M293.9,310.2c0-0.2-0.2-0.4-0.4-0.4H289c-0.2,0-0.4,0.2-0.4,0.4v2.3c0,0.2,0.2,0.4,0.4,0.4
				h4.5c0.2,0,0.4-0.2,0.4-0.4V310.2z"/>
			<path class="st0" d="M326.9,297.3h-14.7c-0.8,0-1.2-0.4-1.2-1.2c0-0.8,0.4-1.2,1.2-1.2h1.4v-4.6c0-1,0.6-1.5,1.7-1.5
				s1.7,0.5,1.7,1.5v4.6h1.7v-6c0-1.1,0.7-1.6,1.8-1.6c1.2,0,1.8,0.6,1.8,1.6v1.6h3.8c0.8,0,1.2,0.4,1.2,1.2s-0.4,1.2-1.2,1.2h-3.8
				v2.1h4.7c0.8,0,1.2,0.4,1.2,1.2C328.2,296.8,327.7,297.3,326.9,297.3z M341.5,300.9c-0.9,1-2.1,1.1-3.2-0.2c-1.7-2-3.1-4.8-4-7.8
				c-0.6,1.3-1.2,2.6-1.9,3.8c0.3,0,0.5,0.1,0.8,0.4c0.9,0.9,1.9,2.1,2.6,3.4c0.6,1,0.3,1.9-0.7,2.4s-1.9,0.2-2.3-0.9
				c-0.4-1.2-0.9-2.6-1.4-3.7c0,0,0,0,0-0.1c-1.1,1.4-2.2,2.7-3.4,3.5c-0.5,0.4-0.9,0.4-1.2,0.1v16.4c0,0.9-0.6,1.4-1.5,1.4
				s-1.5-0.5-1.5-1.4v-0.6h-8.5v0.7c0,0.9-0.5,1.4-1.5,1.4s-1.5-0.5-1.5-1.4v-18.9c0-0.9,0.6-1.4,1.5-1.4c1,0,1.5,0.5,1.5,1.4v4.5
				c0.6-1.2,1-2.9,1.2-5.3c0.1-0.8,0.5-1.1,1.2-1.1c0.7,0.1,1.1,0.5,1,1.2c-0.1,0.6-0.2,1.2-0.3,1.8c0.5,0.5,0.9,1.1,1.3,1.7
				c0,0.1,0.1,0.1,0.1,0.2c0.3-1.1,0.6-2.4,0.8-3.8c0.1-0.8,0.6-1.1,1.3-1c0.7,0.1,1.1,0.4,1,1.2c-0.1,0.7-0.3,1.5-0.5,2.3
				c0.5,0.6,1.1,1.3,1.4,1.9c0,0,0,0,0,0.1v-3.9c0-0.9,0.6-1.4,1.5-1.4c1,0,1.5,0.5,1.5,1.4v0.8c2.3-3,3.6-6.6,4.8-11.4
				c0.3-1.4,1.1-1.8,2.4-1.6c1.2,0.2,1.8,1.1,1.5,2.5c0,0.1,0,0.2-0.1,0.2c1.2,3,3.2,5.8,5.6,7.8
				C342.2,298.7,342.4,299.8,341.5,300.9z M315.3,304.9v0.9h8.5v-1.5c-0.1,0.1-0.2,0.2-0.3,0.3c-0.8,0.4-1.2,0.1-1.4-0.6
				c-0.1-0.3-0.2-0.7-0.3-1c-0.4,1-0.9,1.8-1.4,2.4c-0.3,0.3-0.8,0.4-1.1,0.1c-0.3-0.3-0.4-0.6-0.2-1c0.1-0.2,0.2-0.4,0.3-0.7
				c-0.6,0.3-1.1,0.1-1.2-0.5c-0.1-0.2-0.1-0.5-0.2-0.7c-0.4,1-0.9,1.9-1.3,2.4c-0.3,0.4-0.8,0.4-1.1,0.2
				C315.4,305,315.3,304.9,315.3,304.9z M315.3,313.9c0.6-1.2,1-2.8,1.2-5c0.1-0.7,0.4-1,1.1-1.1h-2.2v6.1H315.3z M315.3,315.4h4.4
				c-0.1,0-0.3-0.1-0.4-0.2c-0.3-0.3-0.4-0.7-0.1-1.1c0.1-0.2,0.2-0.4,0.3-0.6c-0.6,0.4-1.1,0.2-1.3-0.4c-0.1-0.2-0.2-0.5-0.3-0.8
				c-0.4,1.1-0.9,2-1.4,2.6c-0.3,0.4-0.8,0.3-1.1,0.1l0,0v0.4H315.3z M322.7,309.1c-0.1,0.7-0.2,1.3-0.4,2c0.5,0.4,1,1,1.4,1.7v-4.9
				h-6c0.7,0.1,1.1,0.5,1,1.2c-0.1,0.5-0.2,1-0.3,1.5c0.4,0.5,0.9,1.1,1.3,1.6l0.1,0.2c0.3-1,0.4-2.1,0.6-3.5c0.1-0.8,0.6-1.1,1.3-1
				C322.4,307.9,322.8,308.4,322.7,309.1z M323.8,315.4v-0.8c0,0,0,0-0.1,0c-0.7,0.4-1.2,0.2-1.5-0.5c-0.1-0.4-0.3-0.9-0.5-1.3
				c-0.4,0.9-0.8,1.7-1.3,2.2c-0.2,0.2-0.4,0.3-0.6,0.3L323.8,315.4L323.8,315.4z M340.2,306.3c-1,2.6-2.9,5.4-4.9,7.4
				c0.8,0.8,1.4,1.6,2,2.3c1,1.2,0.9,2.4-0.3,3.2c-1.2,0.8-2.2,0.5-3-0.9c-1.3-2.5-3.3-5.2-4.9-7.2c-0.4-0.5-0.4-1,0-1.4
				s0.9-0.4,1.4-0.1c1,0.7,2.2,1.7,3.3,2.7c1.1-2,2.1-4.1,2.6-6.2c0.1-0.3-0.1-0.5-0.4-0.5h-7.3c-0.8,0-1.2-0.4-1.2-1.2
				s0.4-1.2,1.2-1.2h9.4C340,303.2,340.8,304.7,340.2,306.3z"/>
			<path class="st0" d="M351.8,309.6c-1,2.7-2.5,5.3-4.3,7.1c-0.4,0.4-0.9,0.5-1.3,0.1s-0.5-0.8-0.2-1.3c1-1.7,1.9-4.2,2.6-7.1
				c0.3-1.2,1.1-1.7,2.3-1.3C352,307.3,352.3,308.3,351.8,309.6z M346.2,293.4c0-0.8,0.4-1.2,1.2-1.2h5.3v-3c0-1.3,0.8-2.1,2.3-2.1
				c1.4,0,2.3,0.8,2.3,2.1v3h5.3c0.8,0,1.2,0.4,1.2,1.2c0,0.8-0.4,1.2-1.2,1.2h-15.2C346.6,294.6,346.2,294.2,346.2,293.4z
				 M357,305.6v10.3c0,3.4-3.1,4.5-7.6,2.7c-0.6-0.3-0.9-0.7-0.7-1.3c0.1-0.6,0.6-0.8,1.3-0.7c2.7,0.3,2.9-0.1,2.9-1.6v-9.4h-3
				c-1.3,0-2-0.7-2-2v-5.1c0-1.3,0.7-2,2-2h9.7c1.3,0,2,0.7,2,2v5.1c0,1.3-0.7,2-2,2H357z M352.4,303.2h4.8c0.2,0,0.4-0.2,0.4-0.4
				v-3.5c0-0.2-0.2-0.4-0.4-0.4h-4.8c-0.2,0-0.4,0.2-0.4,0.4v3.5C352,303,352.2,303.2,352.4,303.2z M373.2,318.8
				c-4.4,0-5.1-0.6-5.1-3.9v-8.2c-1.2,6.4-3.6,9.9-7.6,12.7c-0.6,0.4-1,0.3-1.4-0.1c-0.3-0.4-0.3-0.9,0.1-1.3c1-1.1,1.9-2.2,2.6-3.4
				c-0.1,0.1-0.3,0.2-0.5,0.3c-1.1,0.5-2,0-2.3-1.3c-0.4-1.7-1-3.5-1.6-5.3c-0.2-0.6,0-1.1,0.5-1.3c0.5-0.2,1-0.1,1.3,0.4
				c1.1,1.4,2.2,3.2,3,5c0.2,0.3,0.2,0.7,0.2,0.9c1.4-3.2,2-7.2,2.2-13.6H363c-0.8,0-1.2-0.5-1.2-1.3s0.4-1.2,1.2-1.2h1.7
				c0.1-2.3,0.1-4.8,0.1-7.7c0-1.5,0.8-2.1,2.1-2.1c1.3,0,1.9,0.5,2,2.1c0.1,2.9,0.1,5.4,0,7.8h6.6c0.7,0,1.2,0.4,1.2,1.2
				c0,0.8-0.5,1.3-1.2,1.3h-6.6c0,0.7-0.1,1.3-0.1,2c0.3-0.2,0.7-0.3,1.2-0.3c1.2,0,1.9,0.7,1.9,1.9v10.3c0,1.5,0.2,1.8,1.4,1.8
				c1.4,0,1.3-0.5,1.4-5.1c0-0.8,0.4-1.1,1-1.1s1,0.4,1.1,1.1C377.8,317.3,377.2,318.8,373.2,318.8z M370.3,290.1
				c-0.2-0.6-0.1-1.1,0.3-1.4c0.5-0.3,0.9-0.2,1.3,0.2c1.2,1.1,2.4,2.7,3.3,4.3c0.7,1.2,0.5,2.2-0.7,2.8c-1.1,0.6-2,0.1-2.4-1.2
				C371.6,293.3,371,291.6,370.3,290.1z"/>
			<path class="st0" d="M412,316.9c-0.3,1.4-1.3,1.8-2.8,1.4c-3.3-0.7-7.8-3.2-10.3-6.1v5.7c0,1.3-0.8,2-2.2,2c-1.4,0-2.2-0.7-2.2-2
				v-5.1c-2.7,2.5-7.3,4.8-11.9,5.7c-0.7,0.1-1.2-0.1-1.3-0.7c-0.2-0.6,0.1-1,0.7-1.2c3.7-1.3,7.1-3.4,9.7-6.2H383
				c-0.8,0-1.2-0.5-1.2-1.3s0.4-1.3,1.2-1.3h11.5v-1.4h-8.3c-0.8,0-1.2-0.4-1.2-1.2c0-0.8,0.4-1.2,1.2-1.2h8.3v-1.4h-10.1
				c-0.8,0-1.2-0.5-1.2-1.3s0.4-1.3,1.2-1.3h6.3c-0.7-1.1-1.3-2.1-1.9-3c-0.1-0.2-0.2-0.3-0.2-0.5h-5.1c-0.8,0-1.2-0.4-1.2-1.3
				s0.4-1.3,1.2-1.3h3.7l-0.2-0.4c-0.7-1.3-1.5-2.8-2.1-3.9c-0.3-0.6-0.2-1,0.2-1.4c0.4-0.3,0.9-0.3,1.4,0c1.2,0.9,2.5,2.2,3.4,3.4
				c0.7,0.8,0.7,1.7,0,2.3h1.9v-5c0-1.2,0.7-1.8,2-1.8s2,0.6,2,1.8v5h2.1v-5c0-1.2,0.7-1.8,2-1.8s2,0.6,2,1.8v5h1.2
				c0.7-1.4,1.4-3,2.1-4.7c0.5-1.2,1.6-1.4,2.7-0.9c1.1,0.6,1.3,1.6,0.6,2.7c-0.7,1-1.5,2-2.4,2.9h4.1c0.8,0,1.2,0.4,1.2,1.3
				s-0.4,1.3-1.2,1.3h-5.5c0.3,0.6,0.2,1.2-0.3,1.9c-0.4,0.6-0.9,1.1-1.4,1.5h6.4c0.8,0,1.2,0.4,1.2,1.3c0,0.8-0.4,1.3-1.2,1.3
				h-10.2v1.4h8.4c0.8,0,1.2,0.4,1.2,1.2c0,0.8-0.4,1.2-1.2,1.2h-8.4v1.4h11.5c0.8,0,1.2,0.4,1.2,1.3c0,0.8-0.4,1.3-1.2,1.3h-10.2
				c2.7,1.8,6.4,3.1,10.3,3.9C412.1,314.6,412.4,315.6,412,316.9z M394.1,300h5.4c0.6-1.1,1.1-2.2,1.5-3.2c0-0.1,0.1-0.2,0.1-0.3
				h-9.3c0.7,0.5,1.3,1,1.8,1.6C394.2,298.9,394.3,299.5,394.1,300z"/>
			<path class="st0" d="M485.8,311.2c0,0.9-0.4,1.3-1.2,1.3h-11.7v5.5c0,1.5-0.8,2.2-2.3,2.2c-1.4,0-2.3-0.7-2.3-2.2v-5.5h-11.6
				c-0.8,0-1.3-0.5-1.3-1.3c0-0.9,0.5-1.3,1.3-1.3h11.6v-3.2h-9.7c-0.8,0-1.2-0.4-1.2-1.3c0-0.8,0.4-1.3,1.2-1.3h6
				c0,0,0-0.1-0.1-0.1c-0.6-1.2-1.3-2.5-2.1-3.7c-0.2-0.4-0.3-0.7-0.2-1h-4.7c-0.8,0-1.2-0.5-1.2-1.3s0.4-1.3,1.2-1.3h10.8v-3h-8
				c-0.8,0-1.2-0.4-1.2-1.3s0.4-1.3,1.2-1.3h8v-1.9c0-1.4,0.8-2.1,2.3-2.1s2.3,0.7,2.3,2.1v1.9h8.1c0.8,0,1.2,0.4,1.2,1.3
				s-0.4,1.3-1.2,1.3h-8.1v3H484c0.8,0,1.2,0.5,1.2,1.3c0,0.9-0.4,1.3-1.2,1.3h-5.4c0.7,0.6,0.7,1.5-0.1,2.4c-0.7,0.9-1.3,1.7-2,2.4
				h6.3c0.8,0,1.2,0.4,1.2,1.3s-0.4,1.3-1.2,1.3h-9.9v3.2h11.7C485.3,309.9,485.8,310.3,485.8,311.2z M473.1,304.1
				c0.6-1.3,1.2-2.9,1.7-4.2c0.1-0.3,0.2-0.5,0.3-0.7h-10.3c1,0.7,1.9,1.6,2.7,2.6c0.7,0.8,0.9,1.6,0.4,2.3L473.1,304.1L473.1,304.1
				z"/>
			<path class="st0" d="M520.1,306v11.8c0,1.2-0.7,1.8-2,1.8s-2-0.7-2-1.8v-0.3h-9.8v0.4c0,1.1-0.7,1.8-2,1.8s-2-0.7-2-1.8v-10.2
				c-0.9,0.7-1.8,0.6-2.5-0.4c-0.4-0.7-0.8-1.3-1.2-1.9v12.5c0,1.2-0.7,1.8-2,1.8s-2-0.6-2-1.8v-10.7c-1,0.8-1.9,1.5-2.9,2.1
				c-0.6,0.3-1.1,0.2-1.4-0.3s-0.3-1,0.2-1.4c3.5-3.1,6.2-6.8,7.3-10.5c0.1-0.3-0.1-0.5-0.3-0.5h-6.1c-0.8,0-1.2-0.5-1.2-1.2
				c0-0.8,0.4-1.2,1.2-1.2h3v-4.6c0-1.1,0.7-1.9,2-1.9s2,0.7,2,1.9v4.6h1.5c1.5,0,2.5,1.1,2,2.6c-0.7,2-1.7,3.9-2.9,5.7
				c1.3,0.7,2.5,1.7,3.4,2.5l0.1,0.1c0.2-0.8,0.9-1.2,1.9-1.2h13.7C519.4,303.9,520.1,304.8,520.1,306z M502.3,290.7
				c0-0.8,0.4-1.2,1.2-1.2H519c0.8,0,1.2,0.4,1.2,1.2c0,0.8-0.4,1.3-1.2,1.3h-15.5C502.7,292,502.3,291.5,502.3,290.7z M516.5,293.7
				c1.3,0,2,0.7,2,2v4.4c0,1.3-0.7,2-2,2h-10.4c-1.3,0-2-0.7-2-2v-4.4c0-1.3,0.7-2,2-2H516.5z M506.3,309.5h3v-3.1h-2.6
				c-0.2,0-0.4,0.2-0.4,0.4V309.5z M506.3,315.1h3v-3.3h-3V315.1z M514.6,296.5c0-0.2-0.2-0.4-0.4-0.4h-5.7c-0.2,0-0.4,0.2-0.4,0.4
				v3c0,0.2,0.2,0.4,0.4,0.4h5.7c0.2,0,0.4-0.2,0.4-0.4V296.5z M513.1,309.5h3v-2.7c0-0.2-0.2-0.4-0.4-0.4h-2.6V309.5z M516.1,315.1
				v-3.3h-3v3.3H516.1z"/>
			<path class="st0" d="M555,316c-0.3,4-3.7,4.5-8.2,2.3c-0.6-0.3-0.8-0.7-0.6-1.3c0.1-0.6,0.6-0.8,1.3-0.7c3,0.6,3.5,0.4,3.7-1.4
				c0.3-3.4,0.5-7.6,0.5-13.1c0-0.3-0.2-0.4-0.4-0.4h-9.9c-0.9,1.2-2,2.2-3.1,3.1c0.2-0.1,0.4-0.1,0.7-0.1h2.8v-0.7
				c0-1.2,0.7-1.9,2-1.9c1.2,0,1.9,0.7,1.9,1.9v0.7h2.8c1.3,0,2,0.7,2,2v2.4c0,1.3-0.7,2-2,2h-2.8v2.2c0.6-0.1,1.1-0.1,1.6-0.2
				c-0.1-0.1-0.2-0.2-0.2-0.4c-0.2-0.6-0.2-1,0.2-1.3c0.4-0.3,0.9-0.3,1.3,0.1c0.8,0.7,1.6,1.5,2.1,2.5c0.5,0.8,0.3,1.5-0.5,2
				s-1.6,0.3-1.9-0.7c-0.1-0.2-0.2-0.4-0.2-0.6c-2.7,1-6.3,2-9.8,2.4c-1.2,0.2-2.1-0.3-2.3-1.5c-0.1-1.1,0.4-1.9,1.8-1.9
				c1.3,0,2.7-0.1,4-0.1v-2.5H539c-1.3,0-2-0.7-2-2v-2.4c0-0.5,0.1-0.9,0.3-1.2c-0.2,0.1-0.4,0.3-0.6,0.4c-0.5,0.3-1,0.3-1.3-0.1
				c0,0.8,0.1,1.7,0.1,2.5c0,7.2-0.9,11.6-4.9,11.6c-1.6,0-3.1-0.8-4.5-2.3c-0.4-0.5-0.4-1-0.2-1.5c0.2-0.5,0.8-0.6,1.4-0.3
				c0.9,0.4,1.7,0.7,2.3,0.6c1.6,0,1.9-3.5,1.9-9v-0.7c-1.2,1.7-2.7,3.2-4.5,4.4c-0.6,0.4-1.1,0.4-1.5-0.1c-0.3-0.5-0.3-1,0.1-1.5
				c2.2-2.3,4.1-5.1,5.4-8.8c-0.2-1-0.4-2-0.7-3c-1,1-2.1,2-3.3,2.7c-0.6,0.4-1.1,0.3-1.5-0.2c-0.3-0.5-0.3-1,0.2-1.5
				c1.2-1.1,2.3-2.5,3.3-4.1c-0.7-1.4-1.6-2.9-2.7-4.4c-0.3-0.5-0.3-1,0.1-1.4c0.4-0.4,0.9-0.4,1.3,0.1c1,0.9,1.9,1.9,2.7,2.9
				c0.3-0.8,0.7-1.6,1-2.5c0.4-1.3,1.4-1.8,2.5-1.3c1.2,0.4,1.6,1.4,1,2.7c-0.7,1.5-1.5,2.9-2.4,4.2c1.5,2.8,2.3,5.9,2.6,9.5
				c0.1-0.1,0.1-0.2,0.2-0.3c1.9-1.9,3.3-4,4.2-6.5h-1.3c-1.3,0-2-0.7-2-2v-4.5c0-1.3,0.7-2,2-2h14.4c1.3,0,2,0.7,2,2v4.5
				c0,1.3-0.7,2-2,2h-9c-0.2,0.5-0.4,1-0.8,1.5h10.4c1.3,0,2,0.7,2,2C555.5,307.1,555.4,312,555,316z M540.2,294.6
				c0,0.2,0.2,0.4,0.4,0.4h1.3v-3.7h-1.3c-0.2,0-0.4,0.2-0.4,0.4V294.6z M540.3,308.1c0,0.2,0.2,0.4,0.4,0.4h1.3v-2h-1.3
				c-0.2,0-0.4,0.2-0.4,0.4V308.1z M544.7,295.1h1.7v-3.7h-1.7V295.1z M546.8,306.6h-1.4v2h1.4c0.2,0,0.4-0.2,0.4-0.4V307
				C547.3,306.7,547.1,306.6,546.8,306.6z M549.3,295.1h1.3c0.2,0,0.4-0.2,0.4-0.4v-2.9c0-0.2-0.2-0.4-0.4-0.4h-1.3V295.1z"/>
			<path class="st0" d="M590.8,302.7c0,0.8-0.4,1.3-1.2,1.3H581v3.5h5.7c1.3,0,2,0.7,2,2v8.3c0,1.3-0.8,1.9-2.1,1.9
				c-1.4,0-2.1-0.6-2.1-1.9v-0.4h-11.2v0.4c0,1.3-0.8,1.9-2.1,1.9c-1.4,0-2.1-0.6-2.1-1.9v-8.3c0-1.3,0.7-2,2-2h5.7V304h-7.9
				c-0.4,0-0.8-0.2-1-0.4c-0.4,6.6-1.7,11.9-5,15.7c-0.5,0.6-1.1,0.7-1.6,0.2c-0.6-0.4-0.6-1-0.3-1.7c2.3-4.5,2.6-10.3,2.6-20.8
				v-6.1c0-1.3,0.7-2,2-2h21.8c1.3,0,2,0.7,2,2v4.9c0,1.3-0.7,2-2,2H581v3.7h8.6C590.4,301.4,590.8,301.9,590.8,302.7z M576.6,301.4
				v-3.7H568v1.1c0,1,0,2,0,2.9c0.2-0.2,0.5-0.3,0.9-0.3H576.6z M568,295.3h16.6c0.2,0,0.4-0.2,0.4-0.4v-3.1c0-0.2-0.2-0.4-0.4-0.4
				h-16.2c-0.2,0-0.4,0.2-0.4,0.4L568,295.3L568,295.3z M573.6,309.9c-0.2,0-0.4,0.2-0.4,0.4v4.7h11.2v-4.7c0-0.2-0.2-0.4-0.4-0.4
				H573.6z"/>
		</g>
		<circle class="st1" cx="254.3" cy="303" r="6"/>
		<circle class="st1" cx="434.9" cy="303" r="6"/>
	</g>
	<g>
		<g>
			<g>
				<g>
					<rect x="352.2" y="57.7" class="st1" width="142.9" height="6.5"/>
					<rect x="425.3" y="116.6" class="st1" width="21.5" height="6.5"/>
					<rect x="375.9" y="146.4" class="st1" width="125.7" height="6.5"/>
					<rect x="365.3" y="36.9" class="st1" width="21.3" height="115.9"/>
					<rect x="400.9" y="13.3" class="st1" width="21.3" height="115.7"/>
					<rect x="450.1" y="36.9" class="st1" width="21.3" height="92.1"/>
				</g>
				<g>
					<rect x="256.2" y="57.8" class="st1" width="98.4" height="6.5"/>
					<rect x="245.7" y="88" class="st1" width="115.8" height="6.5"/>
					<rect x="234.4" y="145.6" class="st1" width="125.1" height="6.5"/>
					<rect x="294.8" y="69.5" class="st1" width="21.3" height="71.1"/>
					<path class="st1" d="M336,99.4c-2.4,7.2-6.3,15.4-12.1,20.8v18.9c17.3-7.9,25.2-27.3,28.6-39.7C352.5,99.4,336,99.4,336,99.4z"
						/>
					<path class="st1" d="M273.5,99.4c2.4,7.2,6.3,15.4,12.1,20.8v18.9c-17.3-7.9-25.2-27.3-28.6-39.7
						C257,99.4,273.5,99.4,273.5,99.4z"/>
					<path class="st1" d="M302.5,0c-0.3,0.4-27.7,36.5-71.1,57.9c1.5,3.6,2.6,7.3,3.4,11.1c46.9-22.4,75.7-60.5,77-62.1L302.5,0z"/>
					<path class="st1" d="M359.5,41.5c-15.7-5.5-37.2-16.2-56.6-36.8l-12.5,11.8c24.3,25.8,51.1,37.7,69.1,43.2V41.5z"/>
				</g>
				<g>
					<rect x="538.7" y="93.9" class="st1" width="147.7" height="6.5"/>
					<rect x="509.9" y="85.4" class="st1" width="21.3" height="68.1"/>
					<path class="st1" d="M520.8,48.5c-5.8,10.2-14.9,23.4-27.5,34.7v20.1c23.9-17,38.5-40.9,45.5-54.8
						C538.8,48.5,520.8,48.5,520.8,48.5z"/>
					<path class="st1" d="M611.5,86.6h19.8c-16.8-24.6-37.9-37.5-43-40.4V65C594.4,69.4,603.1,76.5,611.5,86.6z"/>
					<path class="st1" d="M637.8,183.1l-3.1,8.4c-3.7,8.2-11.1,12.7-19.8,12c-9.5-0.8-22.4-8.5-27.3-27.9
						c-5-19.5-7.3-107.1-7.9-146.5h-21.1c0.4,27.5,2.4,127.2,8.6,151.6c6.3,24.8,24.4,42,46.1,43.7c1.2,0.1,2.4,0.1,3.6,0.1
						c16.2,0,30-9,37-24.1L637.8,183.1z"/>
				</g>
				<g>
					<rect x="104.9" y="31.2" class="st1" width="149.1" height="6.5"/>
					<rect x="36.9" y="62.8" class="st1" width="191.5" height="6.5"/>
					<rect x="133" y="84.2" class="st1" width="64.9" height="6.5"/>
					<rect x="133" y="120" class="st1" width="64.9" height="6.5"/>
					<rect x="133" y="100.9" class="st1" width="64.9" height="6.5"/>
					<rect x="150.8" y="49.7" class="st1" width="27" height="6.5"/>
					<rect x="126.4" y="12.7" class="st1" width="21.3" height="43.4"/>
					<rect x="154.7" y="74.7" class="st1" width="21.3" height="49.7"/>
					<rect x="181.4" y="12.7" class="st1" width="21.3" height="43.4"/>
					<path class="st1" d="M133.8,135.3c-8.1,8.5-21.9,12.9-30.2,14.6v16c7.7-1.2,38.6-7.6,49.1-30.6H133.8z"/>
					<path class="st1" d="M198.1,135.3c8.1,8.5,21.9,12.9,30.2,14.6v16c-7.7-1.2-38.6-7.6-49.1-30.6H198.1z"/>
					<g>
						<path class="st1" d="M203,131.5h17.9c3.2-7.4,5-15.5,5-24.1c0-9.4-2.1-18.3-6-26.2h-18.3c5.4,7.4,8.5,16.4,8.5,26.2
							C210.1,116.3,207.5,124.5,203,131.5z"/>
						<path class="st1" d="M127.8,131.5c-4.5-7-7.1-15.2-7.1-24.1c0-9.8,3.2-18.8,8.5-26.2h-18.3c-3.8,7.9-6,16.8-6,26.2
							c0,8.6,1.8,16.7,5,24.1H127.8z"/>
					</g>
				</g>
			</g>
		</g>
		<path class="st2" d="M653.5,237.5c5.5-29.7,34.1-49.2,63.7-43.7c-29.7-5.5-49.2-34.1-43.7-63.7c-5.5,29.7-34.1,49.2-63.7,43.7
			C639.4,179.3,659,207.8,653.5,237.5z"/>
	</g>
	<g>
		<path class="st1" d="M248.4,259.8c-0.1,0-0.2-0.2-0.2-0.5v-13.8c0-0.2,0-0.2,0-0.3s-0.1-0.1-0.2-0.1h-3.5c-0.3,0-0.4-0.1-0.4-0.3
			v-2.1c0-0.3,0.2-0.4,0.5-0.4h10.1c0.3,0,0.4,0.1,0.4,0.3v2c0,0.2,0,0.4-0.1,0.4s-0.2,0.1-0.5,0.1h-3.3c-0.1,0-0.2,0.1-0.2,0.3v14
			c0,0.1,0,0.2-0.1,0.3s-0.2,0.1-0.3,0.1L248.4,259.8L248.4,259.8z"/>
		<path class="st1" d="M264.7,256.9c0.2,0,0.3,0,0.4,0.1c0.1,0.1,0.1,0.2,0.1,0.3v2.1c0,0.1-0.1,0.2-0.2,0.2c-0.1,0-0.2,0-0.4,0
			c-0.6,0-1.2,0-1.6-0.1c-0.4-0.1-0.8-0.2-1.1-0.5c-0.4,0.3-0.8,0.5-1.2,0.5c-0.4,0.1-0.8,0.1-1.1,0.1c-0.4,0-0.8,0-1.3-0.2
			c-0.5-0.1-0.9-0.4-1.4-0.8s-0.8-1-1.1-1.9c-0.3-0.9-0.4-2-0.4-3.5s0.1-2.6,0.4-3.4s0.6-1.5,1.1-1.9s0.9-0.7,1.4-0.8
			s0.9-0.2,1.3-0.2c0.2,0,0.4,0,0.6,0s0.4,0.1,0.7,0.1c0.1-0.1,0.2-0.2,0.4-0.2h2.2c0.1,0,0.2,0,0.2,0.1c0.1,0.1,0.1,0.2,0.1,0.3
			v7.6c0,0.4,0.1,0.8,0.2,1.1C264.2,256.8,264.4,256.9,264.7,256.9z M259.7,256.9c0.1,0,0.3,0,0.4-0.1c0.2,0,0.3-0.2,0.4-0.4
			c0.1-0.2,0.2-0.6,0.3-1s0.1-1.1,0.1-1.9s0-1.4-0.1-1.9s-0.2-0.8-0.3-1s-0.3-0.3-0.4-0.4c-0.1,0-0.3-0.1-0.4-0.1
			c-0.1,0-0.3,0-0.4,0.1c-0.2,0-0.3,0.2-0.4,0.4c-0.1,0.2-0.2,0.6-0.3,1c-0.1,0.5-0.1,1.1-0.1,1.9s0,1.4,0.1,1.9s0.2,0.8,0.3,1
			s0.3,0.4,0.4,0.4C259.4,256.9,259.6,256.9,259.7,256.9z"/>
		<path class="st1" d="M272.2,242.3c0.3,0,0.4,0.1,0.4,0.3v2c0,0.1,0,0.2-0.1,0.3c0,0.2-0.2,0.2-0.5,0.2h-1.9
			c-0.2,0-0.3-0.1-0.3-0.3v-2.1c0-0.1,0-0.3,0.1-0.3c0.1-0.1,0.2-0.1,0.4-0.1L272.2,242.3L272.2,242.3z M270.3,247.3
			c-0.1,0-0.2,0-0.3,0.1c-0.1,0-0.2,0.2-0.2,0.5v11.4c0,0.1,0,0.2,0.1,0.3c0,0.1,0.1,0.2,0.3,0.2h2.2c0.2,0,0.3-0.2,0.3-0.5v-11.4
			c0-0.2,0-0.3-0.1-0.4c0-0.1-0.1-0.2-0.3-0.2L270.3,247.3L270.3,247.3z"/>
		<path class="st1" d="M288.1,259.4c0,0.1-0.1,0.2-0.2,0.3c-0.1,0.1-0.1,0.1-0.3,0.1h-2.5c-0.1,0-0.2,0-0.3-0.1
			c0-0.1-0.1-0.2-0.1-0.3l-1.2-6.3c0-0.2-0.1-0.2-0.1,0l-1.1,6.3c0,0.1-0.1,0.2-0.1,0.3s-0.1,0.1-0.3,0.1h-2.4c-0.1,0-0.2,0-0.3-0.1
			s-0.1-0.2-0.2-0.3l-2.3-11.6v-0.2c0-0.2,0-0.3,0-0.3s0.1,0,0.2,0h1.9c0.1,0,0.2,0,0.4,0.1c0.2,0.1,0.2,0.2,0.3,0.5l1,6.7
			c0,0.1,0.1,0.2,0.2,0.2c0.1,0,0.2-0.1,0.2-0.2l0.9-6.7c0-0.2,0.1-0.3,0.1-0.4c0.1-0.1,0.2-0.1,0.3-0.1h2.3c0.1,0,0.2,0.1,0.3,0.2
			c0,0.1,0.1,0.2,0.1,0.3l1,6.7c0,0.1,0.1,0.2,0.2,0.2s0.2-0.1,0.2-0.2l0.7-4.6c0.2-1.7,0.5-3,0.9-4c0.3-1,0.8-1.8,1.2-2.3
			c0.5-0.5,1-0.9,1.6-1c0.6-0.2,1.3-0.2,2.1-0.2c0.3,0,0.4,0,0.5,0s0.1,0.1,0.1,0.2v1.8c0,0.2,0,0.3-0.1,0.4
			c-0.1,0.1-0.3,0.1-0.5,0.1c-0.4,0-0.8,0-1.1,0.1c-0.3,0.1-0.6,0.2-0.8,0.6c-0.2,0.3-0.5,0.8-0.7,1.5c-0.2,0.7-0.4,1.7-0.6,2.9
			L288.1,259.4z"/>
		<path class="st1" d="M303,256.9c0.2,0,0.3,0,0.4,0.1s0.1,0.2,0.1,0.3v2.1c0,0.1-0.1,0.2-0.2,0.2s-0.2,0-0.4,0
			c-0.6,0-1.2,0-1.6-0.1c-0.4-0.1-0.8-0.2-1.1-0.5c-0.4,0.3-0.8,0.5-1.2,0.5c-0.4,0.1-0.8,0.1-1.1,0.1c-0.4,0-0.8,0-1.3-0.2
			c-0.5-0.1-0.9-0.4-1.4-0.8s-0.8-1-1.1-1.9c-0.3-0.9-0.4-2-0.4-3.5s0.1-2.6,0.4-3.4s0.6-1.5,1.1-1.9s0.9-0.7,1.4-0.8
			s0.9-0.2,1.3-0.2c0.2,0,0.4,0,0.6,0s0.4,0.1,0.7,0.1c0.1-0.1,0.2-0.2,0.4-0.2h2.2c0.1,0,0.2,0,0.2,0.1c0.1,0.1,0.1,0.2,0.1,0.3
			v7.6c0,0.4,0.1,0.8,0.2,1.1C302.4,256.8,302.7,256.9,303,256.9z M298,256.9c0.1,0,0.3,0,0.4-0.1c0.2,0,0.3-0.2,0.4-0.4
			c0.1-0.2,0.2-0.6,0.3-1s0.1-1.1,0.1-1.9s0-1.4-0.1-1.9s-0.2-0.8-0.3-1s-0.3-0.3-0.4-0.4c-0.1,0-0.3-0.1-0.4-0.1s-0.3,0-0.4,0.1
			c-0.2,0-0.3,0.2-0.4,0.4s-0.2,0.6-0.3,1c-0.1,0.5-0.1,1.1-0.1,1.9s0,1.4,0.1,1.9s0.2,0.8,0.3,1s0.3,0.4,0.4,0.4
			C297.7,256.9,297.9,256.9,298,256.9z"/>
		<path class="st1" d="M312.7,247.3c0.8,0,1.5,0.2,2,0.5c0.6,0.3,1,0.7,1.4,1.3s0.7,1.1,0.8,1.7c0.2,0.6,0.3,1.3,0.3,1.9v6.5
			c0,0.2,0,0.4-0.1,0.5c0,0.1-0.2,0.2-0.4,0.2h-2c-0.2,0-0.3,0-0.3-0.2c0-0.1,0-0.3,0-0.5v-6.5c0-0.8-0.1-1.4-0.4-1.9
			s-0.7-0.7-1.3-0.7c-0.6,0-1.1,0.2-1.3,0.7s-0.4,1.1-0.4,1.9v6.6c0,0.3-0.1,0.5-0.4,0.5h-2.2c-0.1,0-0.2,0-0.2-0.1
			c-0.1-0.1-0.1-0.2-0.1-0.3v-7.6c0-0.4-0.1-0.8-0.2-1.1s-0.4-0.5-0.7-0.5c-0.2,0-0.3,0-0.4-0.1s-0.1-0.2-0.1-0.3v-2.1
			c0-0.1,0.1-0.2,0.2-0.2s0.2,0,0.4,0c0.7,0,1.3,0,1.8,0.2c0.5,0.1,0.9,0.3,1.2,0.7C310.9,247.6,311.8,247.3,312.7,247.3z"/>
		<path class="st1" d="M335,255.2c0-0.6-0.2-1-0.5-1.4s-0.7-0.8-1.2-1.1s-1-0.7-1.5-1s-1.1-0.7-1.5-1.2s-0.9-0.9-1.2-1.5
			s-0.5-1.3-0.5-2.1c0-1.6,0.4-2.8,1.1-3.5s1.9-1,3.4-1c0.7,0,1.2,0.1,1.8,0.3c0.5,0.2,1,0.5,1.4,0.9s0.7,0.8,1,1.3
			c0.2,0.5,0.3,1.1,0.3,1.8c0,0.4-0.1,0.6-0.3,0.6h-2.1c-0.1,0-0.2,0-0.3-0.1s-0.1-0.2-0.1-0.4c0-0.5-0.2-0.9-0.5-1.1
			s-0.7-0.3-1.2-0.3c-0.6,0-1.1,0.1-1.4,0.3s-0.5,0.6-0.5,1.1c0,0.6,0.2,1.2,0.5,1.6s0.7,0.9,1.2,1.2s1,0.7,1.6,1s1.1,0.7,1.6,1.1
			c0.5,0.4,0.9,0.8,1.2,1.4s0.5,1.1,0.5,1.9c0,0.9-0.1,1.7-0.4,2.3c-0.3,0.7-0.7,1.2-1.1,1.6s-1,0.7-1.5,0.9
			c-0.6,0.2-1.1,0.3-1.6,0.3c-0.4,0-0.9-0.1-1.5-0.3c-0.5-0.2-1.1-0.5-1.5-0.8c-0.5-0.4-0.9-0.8-1.2-1.4s-0.5-1.2-0.5-2
			c0-0.1,0-0.2,0-0.2l0.1-0.1h2.4c0.1,0,0.2,0,0.2,0.1c0.1,0,0.1,0.2,0.1,0.4c0,0.3,0,0.6,0.2,0.8c0.1,0.2,0.2,0.4,0.4,0.5
			c0.2,0.1,0.3,0.2,0.6,0.2c0.2,0,0.4,0.1,0.7,0.1c0.3,0,0.6,0,0.8-0.1c0.2,0,0.4-0.1,0.6-0.2c0.1-0.1,0.3-0.3,0.3-0.5
			S335,255.6,335,255.2z"/>
		<path class="st1" d="M344.7,242.3c0.3,0,0.4,0.1,0.4,0.3v2c0,0.1,0,0.2-0.1,0.3c0,0.2-0.2,0.2-0.5,0.2h-1.9
			c-0.2,0-0.3-0.1-0.3-0.3v-2.1c0-0.1,0-0.3,0.1-0.3c0.1-0.1,0.2-0.1,0.4-0.1L344.7,242.3L344.7,242.3z M342.8,247.3
			c-0.1,0-0.2,0-0.3,0.1c-0.1,0-0.2,0.2-0.2,0.5v11.4c0,0.1,0,0.2,0.1,0.3c0,0.1,0.1,0.2,0.3,0.2h2.2c0.2,0,0.3-0.2,0.3-0.5v-11.4
			c0-0.2,0-0.3-0.1-0.4c0-0.1-0.1-0.2-0.3-0.2L342.8,247.3L342.8,247.3z"/>
		<path class="st1" d="M354,259.8c-0.4,0-0.9-0.1-1.4-0.2s-0.9-0.4-1.4-0.9c-0.4-0.5-0.8-1.1-1-2c-0.3-0.9-0.4-2.1-0.4-3.6v-10.2
			c0-0.2,0.1-0.3,0.2-0.5c0.1-0.1,0.2-0.2,0.4-0.2h2c0.1,0,0.2,0.1,0.2,0.2c0.1,0.1,0.1,0.3,0.1,0.5v10c0,0.8,0,1.5,0.1,2
			s0.2,0.9,0.4,1.2c0.1,0.3,0.3,0.5,0.4,0.6s0.3,0.2,0.4,0.2c0.2,0,0.3,0,0.4,0.1s0.1,0.2,0.1,0.3v2.1c0,0.1-0.1,0.2-0.2,0.2
			S354.1,259.8,354,259.8z"/>
		<path class="st1" d="M360.2,259.8c-0.1,0-0.2,0-0.3-0.1s-0.1-0.2-0.2-0.3l-2.5-11.6v-0.1c0-0.2,0-0.3,0-0.3s0.1,0,0.2,0h1.9
			c0.1,0,0.2,0,0.4,0c0.2,0,0.2,0.2,0.3,0.5l1,6.7c0,0.1,0.1,0.2,0.2,0.2s0.2-0.1,0.2-0.2l0.9-6.7c0.1-0.2,0.1-0.4,0.2-0.5
			c0-0.1,0.1-0.1,0.2-0.1h2.2c0.1,0,0.1,0,0.2,0.1c0,0.1,0,0.2,0,0.5l-2.4,11.5c-0.1,0.1-0.1,0.2-0.2,0.3s-0.1,0.1-0.3,0.1
			L360.2,259.8L360.2,259.8z"/>
		<path class="st1" d="M372,254.9c0,0.5,0.1,0.8,0.2,1.1c0.1,0.3,0.2,0.5,0.3,0.6s0.2,0.2,0.4,0.3c0.1,0,0.2,0,0.3,0
			c0.1,0,0.2,0,0.3,0c0.1,0,0.2-0.1,0.3-0.2c0.1-0.1,0.2-0.2,0.3-0.4s0.2-0.5,0.2-0.8c0-0.1,0.1-0.2,0.2-0.2h2.6
			c0.1,0,0.2,0.1,0.2,0.2c-0.1,1-0.4,1.8-0.7,2.4c-0.3,0.6-0.7,1-1,1.3c-0.4,0.3-0.8,0.5-1.2,0.5c-0.4,0.1-0.8,0.1-1.1,0.1
			c-0.4,0-0.8,0-1.3-0.2c-0.5-0.1-0.9-0.4-1.4-0.8s-0.8-1-1.1-1.9s-0.4-2-0.4-3.5s0.1-2.6,0.4-3.4s0.6-1.5,1.1-1.9s0.9-0.7,1.4-0.8
			s0.9-0.2,1.3-0.2c0.3,0,0.7,0,1.1,0.1s0.8,0.3,1.2,0.6c0.4,0.3,0.7,0.7,1,1.3s0.5,1.4,0.7,2.4c0,0.1,0,0.2,0,0.3s0,0.2,0,0.2v1.9
			c0,0.1,0,0.2-0.1,0.3c0,0.1-0.2,0.2-0.5,0.2h-4.5C372,254.7,372,254.7,372,254.9z M372,252.1c0,0.1,0,0.2,0.1,0.2h2.1
			c0.1,0,0.1-0.1,0.1-0.2c-0.1-0.7-0.3-1.2-0.5-1.5s-0.4-0.4-0.7-0.4s-0.4,0.1-0.7,0.4S372.2,251.3,372,252.1z"/>
		<path class="st1" d="M387.5,247.3c0.2,0,0.4,0,0.5,0s0.2,0.1,0.2,0.3v2.2c0,0.1-0.1,0.2-0.2,0.2s-0.3,0.1-0.5,0.1
			c-0.3,0-0.6,0-0.9,0.2c-0.3,0.1-0.6,0.2-0.9,0.4s-0.5,0.4-0.7,0.7s-0.3,0.6-0.3,0.9v2.4v4.4c0,0.2,0,0.3-0.1,0.4s-0.2,0.2-0.3,0.2
			h-2c-0.2,0-0.3-0.1-0.4-0.2c0-0.1-0.1-0.2-0.1-0.4v-4.5v-6.8c0-0.2,0-0.4,0.1-0.5s0.1-0.2,0.2-0.2h2c0.1,0,0.3,0.1,0.4,0.2
			c0.1,0.1,0.2,0.3,0.2,0.5v0.2c0.4-0.2,0.9-0.5,1.3-0.6C386.5,247.4,387,247.3,387.5,247.3z"/>
		<path class="st1" d="M409.1,252.3c0,1.7-0.1,3-0.4,4c-0.3,1-0.7,1.7-1.1,2.2c-0.5,0.5-1,0.8-1.6,1c-0.6,0.1-1.2,0.2-1.9,0.2
			c-0.5,0-0.9,0-1.3-0.1s-0.8-0.2-1.2-0.4s-0.7-0.5-1-0.9s-0.6-0.9-0.8-1.6c-0.2-0.6-0.4-1.4-0.5-2.4c-0.1-0.9-0.2-2.1-0.2-3.4
			c0-1.9,0.1-3.5,0.3-4.6c0.2-1.2,0.6-2,1-2.6s1-1,1.6-1.2s1.3-0.3,2.1-0.3c0.6,0,1.2,0.1,1.8,0.2s1,0.4,1.5,0.8s0.8,0.9,1.1,1.6
			c0.3,0.7,0.5,1.6,0.6,2.8c0,0.3,0,0.5-0.2,0.5l-2.5,0.1c-0.1,0-0.2,0-0.2-0.1s-0.1-0.2-0.1-0.4c-0.2-1-0.4-1.7-0.8-2
			c-0.3-0.3-0.7-0.5-1.2-0.5c-0.3,0-0.6,0.1-0.9,0.2c-0.3,0.2-0.5,0.5-0.7,0.9s-0.4,1-0.5,1.8s-0.2,1.7-0.1,3c0,1.2,0.1,2.3,0.2,3
			s0.3,1.4,0.5,1.8c0.2,0.4,0.4,0.7,0.7,0.8c0.3,0.1,0.5,0.2,0.8,0.2s0.5-0.1,0.8-0.2s0.4-0.3,0.6-0.6c0.2-0.3,0.3-0.7,0.5-1.3
			c0.1-0.5,0.2-1.2,0.3-2.1h-2c-0.3,0-0.4-0.1-0.4-0.3v-2.1c0-0.3,0.2-0.4,0.5-0.4h4.4c0.3,0,0.4,0.1,0.4,0.3v0.8v1.1L409.1,252.3
			L409.1,252.3z"/>
		<path class="st1" d="M419.3,247.3c0.2,0,0.4,0,0.5,0s0.2,0.1,0.2,0.3v2.2c0,0.1-0.1,0.2-0.2,0.2s-0.3,0.1-0.5,0.1
			c-0.3,0-0.6,0-0.9,0.2c-0.3,0.1-0.6,0.2-0.9,0.4s-0.5,0.4-0.7,0.7s-0.3,0.6-0.3,0.9v2.4v4.4c0,0.2,0,0.3-0.1,0.4s-0.2,0.2-0.3,0.2
			h-2c-0.2,0-0.3-0.1-0.4-0.2c0-0.1-0.1-0.2-0.1-0.4v-4.5v-6.8c0-0.2,0-0.4,0.1-0.5s0.1-0.2,0.2-0.2h2c0.1,0,0.3,0.1,0.4,0.2
			c0.1,0.1,0.2,0.3,0.2,0.5v0.2c0.4-0.2,0.9-0.5,1.3-0.6C418.3,247.4,418.8,247.3,419.3,247.3z"/>
		<path class="st1" d="M427.6,247.3c0.4,0,0.8,0.1,1.3,0.2c0.5,0.1,0.9,0.4,1.4,0.8s0.8,1,1.1,1.9c0.3,0.8,0.4,2,0.4,3.4
			c0,1.5-0.1,2.6-0.4,3.5c-0.3,0.8-0.6,1.5-1.1,1.9s-0.9,0.7-1.4,0.8c-0.5,0.1-0.9,0.2-1.3,0.2s-0.8,0-1.3-0.2
			c-0.5-0.1-0.9-0.4-1.4-0.8s-0.8-1-1.1-1.9s-0.4-2-0.4-3.5s0.1-2.6,0.4-3.4s0.6-1.5,1.1-1.9s0.9-0.7,1.4-0.8
			C426.8,247.4,427.2,247.3,427.6,247.3z M427.6,256.9c0.1,0,0.3,0,0.4-0.1c0.2,0,0.3-0.2,0.4-0.4c0.1-0.2,0.2-0.6,0.3-1
			s0.1-1.1,0.1-1.9s0-1.4-0.1-1.9s-0.2-0.8-0.3-1c-0.1-0.2-0.3-0.3-0.4-0.4c-0.1,0-0.3-0.1-0.4-0.1s-0.3,0-0.4,0.1
			c-0.2,0-0.3,0.2-0.4,0.4s-0.2,0.6-0.3,1c-0.1,0.5-0.1,1.1-0.1,1.9s0,1.4,0.1,1.9s0.2,0.8,0.3,1c0.1,0.2,0.3,0.4,0.4,0.4
			C427.3,256.9,427.5,256.9,427.6,256.9z"/>
		<path class="st1" d="M446.3,256.9c0.2,0,0.3,0,0.4,0.1s0.1,0.2,0.1,0.3v2.1c0,0.1-0.1,0.2-0.2,0.2s-0.2,0-0.4,0
			c-0.7,0-1.3,0-1.8-0.2c-0.5-0.1-0.9-0.3-1.2-0.7c-0.7,0.5-1.5,0.8-2.5,0.8c-0.8,0-1.5-0.2-2-0.5s-1-0.7-1.4-1.3s-0.7-1.1-0.8-1.7
			c-0.2-0.6-0.3-1.3-0.3-1.9V248c0-0.2,0-0.4,0.1-0.5c0-0.1,0.2-0.2,0.4-0.2h2c0.2,0,0.3,0,0.3,0.2c0,0.1,0,0.3,0,0.5v6.5
			c0,0.8,0.1,1.4,0.4,1.9s0.7,0.7,1.3,0.7c0.6,0,1.1-0.2,1.3-0.7s0.4-1.1,0.4-1.9v-6.6c0-0.3,0.1-0.5,0.4-0.5h0.1h2
			c0.1,0,0.2,0,0.2,0.1c0.1,0.1,0.1,0.2,0.1,0.3v7.6c0,0.4,0.1,0.8,0.2,1.1C445.7,256.8,445.9,256.9,446.3,256.9z"/>
		<path class="st1" d="M455.4,247.3c0.4,0,0.8,0.1,1.3,0.2c0.5,0.1,0.9,0.4,1.3,0.8s0.8,1,1.1,1.9s0.4,2,0.4,3.4
			c0,1.5-0.1,2.6-0.4,3.5s-0.6,1.5-1.1,1.9s-0.9,0.7-1.3,0.8c-0.5,0.1-0.9,0.2-1.3,0.2c-0.2,0-0.4,0-0.6,0s-0.4,0-0.6-0.1v4.5
			c0,0.2,0,0.3-0.1,0.4s-0.2,0.2-0.3,0.2h-2c-0.2,0-0.3-0.1-0.4-0.2s-0.1-0.2-0.1-0.4v-4.5v-11.8c0-0.2,0-0.4,0.1-0.5
			s0.1-0.2,0.2-0.2h2c0.2,0,0.3,0.1,0.4,0.2c0.2-0.1,0.5-0.1,0.7-0.2C455,247.3,455.2,247.3,455.4,247.3z M455.4,256.9
			c0.1,0,0.3,0,0.4-0.1s0.3-0.2,0.4-0.4c0.1-0.2,0.2-0.6,0.3-1s0.1-1.1,0.1-1.9s0-1.4-0.1-1.9s-0.2-0.8-0.3-1
			c-0.1-0.2-0.3-0.3-0.4-0.4s-0.3-0.1-0.4-0.1s-0.3,0-0.4,0s-0.3,0.1-0.4,0.3s-0.2,0.4-0.3,0.7c-0.1,0.3-0.1,0.8-0.1,1.3v1.9
			c0,0.6,0,1,0.1,1.3s0.2,0.6,0.3,0.7s0.2,0.3,0.4,0.3C455.2,256.9,455.3,256.9,455.4,256.9z"/>
		<path class="st1" d="M471.1,259.8c-0.2,0-0.3-0.1-0.3-0.4v-16.5c0-0.3,0.1-0.5,0.2-0.5c0.2,0,0.3-0.1,0.3-0.1h8.6
			c0.3,0,0.4,0.1,0.4,0.3v2c0,0.1,0,0.2-0.1,0.3c0,0.2-0.2,0.2-0.5,0.2h-5.8c-0.1,0-0.2,0-0.3,0.1c-0.1,0-0.1,0.2-0.1,0.3v3.6
			c0,0.2,0.1,0.3,0.2,0.4c0.1,0.1,0.2,0.1,0.4,0.1h4.2c0.3,0,0.4,0.1,0.4,0.3v2c0,0.1,0,0.2-0.1,0.3c0,0.1-0.2,0.2-0.5,0.2h-4.2
			c-0.2,0-0.3,0-0.4,0.1c0,0.1,0,0.2,0,0.3v6.4c0,0.2,0,0.3,0,0.4s-0.1,0.1-0.2,0.1L471.1,259.8L471.1,259.8z"/>
		<path class="st1" d="M486.7,247.3c0.4,0,0.8,0.1,1.3,0.2c0.5,0.1,0.9,0.4,1.4,0.8s0.8,1,1.1,1.9c0.3,0.8,0.4,2,0.4,3.4
			c0,1.5-0.1,2.6-0.4,3.5c-0.3,0.8-0.6,1.5-1.1,1.9s-0.9,0.7-1.4,0.8c-0.5,0.1-0.9,0.2-1.3,0.2s-0.8,0-1.3-0.2
			c-0.5-0.1-0.9-0.4-1.4-0.8s-0.8-1-1.1-1.9s-0.4-2-0.4-3.5s0.1-2.6,0.4-3.4s0.6-1.5,1.1-1.9s0.9-0.7,1.4-0.8
			C485.9,247.4,486.3,247.3,486.7,247.3z M486.7,256.9c0.1,0,0.3,0,0.4-0.1c0.2,0,0.3-0.2,0.4-0.4c0.1-0.2,0.2-0.6,0.3-1
			s0.1-1.1,0.1-1.9s0-1.4-0.1-1.9s-0.2-0.8-0.3-1c-0.1-0.2-0.3-0.3-0.4-0.4c-0.1,0-0.3-0.1-0.4-0.1s-0.3,0-0.4,0.1
			c-0.2,0-0.3,0.2-0.4,0.4s-0.2,0.6-0.3,1c-0.1,0.5-0.1,1.1-0.1,1.9s0,1.4,0.1,1.9s0.2,0.8,0.3,1c0.1,0.2,0.3,0.4,0.4,0.4
			C486.4,256.9,486.6,256.9,486.7,256.9z"/>
		<path class="st1" d="M501.1,247.3c0.2,0,0.4,0,0.5,0s0.2,0.1,0.2,0.3v2.2c0,0.1-0.1,0.2-0.2,0.2s-0.3,0.1-0.5,0.1
			c-0.3,0-0.6,0-0.9,0.2c-0.3,0.1-0.6,0.2-0.9,0.4s-0.5,0.4-0.7,0.7s-0.3,0.6-0.3,0.9v2.4v4.4c0,0.2,0,0.3-0.1,0.4s-0.2,0.2-0.3,0.2
			h-2c-0.2,0-0.3-0.1-0.4-0.2c0-0.1-0.1-0.2-0.1-0.4v-4.5v-6.8c0-0.2,0-0.4,0.1-0.5s0.1-0.2,0.2-0.2h2c0.1,0,0.3,0.1,0.4,0.2
			c0.1,0.1,0.2,0.3,0.2,0.5v0.2c0.4-0.2,0.9-0.5,1.3-0.6C500.1,247.4,500.6,247.3,501.1,247.3z"/>
		<path class="st1" d="M515.9,256.9c0.2,0,0.3,0,0.4,0.1c0.1,0.1,0.1,0.2,0.1,0.3v2.1c0,0.1-0.1,0.2-0.2,0.2c-0.1,0-0.2,0-0.4,0
			c-0.7,0-1.3,0-1.8-0.2c-0.5-0.1-0.9-0.3-1.2-0.7c-0.7,0.5-1.5,0.8-2.5,0.8c-0.8,0-1.5-0.2-2-0.5s-1-0.7-1.4-1.3s-0.7-1.1-0.8-1.7
			c-0.2-0.6-0.3-1.3-0.3-1.9V248c0-0.2,0-0.4,0.1-0.5c0-0.1,0.2-0.2,0.4-0.2h2c0.2,0,0.3,0,0.3,0.2c0,0.1,0,0.3,0,0.5v6.5
			c0,0.8,0.1,1.4,0.4,1.9s0.7,0.7,1.3,0.7c0.6,0,1.1-0.2,1.3-0.7s0.4-1.1,0.4-1.9v-6.6c0-0.3,0.1-0.5,0.4-0.5h0.1h2
			c0.1,0,0.2,0,0.2,0.1c0.1,0.1,0.1,0.2,0.1,0.3v7.6c0,0.4,0.1,0.8,0.2,1.1C515.4,256.8,515.6,256.9,515.9,256.9z"/>
		<path class="st1" d="M536.4,259.1c0,0.1,0,0.3,0,0.4c0,0.2-0.1,0.2-0.3,0.2h-2c-0.3,0-0.4-0.1-0.5-0.2c-0.1-0.1-0.1-0.3-0.1-0.5
			v-6.4c0-0.8-0.1-1.4-0.4-1.9s-0.7-0.7-1.3-0.7c-0.6,0-1.1,0.2-1.3,0.7c-0.2,0.5-0.4,1.1-0.4,1.9v6.5v0.1c0,0.2,0,0.3-0.1,0.4
			c-0.1,0.1-0.2,0.1-0.4,0.1h-2c-0.2,0-0.3,0-0.3-0.2c0-0.1,0-0.2,0-0.4v-6.5c0-0.8-0.1-1.4-0.4-1.9s-0.7-0.7-1.3-0.7
			c-0.6,0-1.1,0.2-1.3,0.7c-0.2,0.5-0.4,1.1-0.4,1.9v6.6c0,0.3-0.1,0.5-0.4,0.5h-2.2c-0.1,0-0.2,0-0.2-0.1c-0.1-0.1-0.1-0.2-0.1-0.3
			v-7.6c0-0.4-0.1-0.8-0.2-1.1c-0.1-0.3-0.4-0.5-0.7-0.5c-0.2,0-0.3,0-0.4-0.1c-0.1-0.1-0.1-0.2-0.1-0.3v-2.1c0-0.1,0.1-0.2,0.2-0.2
			c0.1,0,0.2,0,0.4,0c0.7,0,1.3,0,1.8,0.2c0.5,0.1,0.9,0.3,1.2,0.7c0.7-0.5,1.5-0.8,2.5-0.8c0.7,0,1.3,0.1,1.8,0.4
			c0.5,0.2,1,0.6,1.3,1c0.4-0.4,0.8-0.7,1.3-1c0.5-0.2,1.1-0.4,1.8-0.4c0.8,0,1.5,0.2,2,0.5s1,0.7,1.4,1.3c0.4,0.6,0.7,1.1,0.8,1.7
			c0.2,0.6,0.3,1.3,0.3,1.9L536.4,259.1L536.4,259.1z"/>
	</g>
	<g>
		<g>
			<path class="st1" d="M15.9,223.4v-3.2c7.1-6.6,14.6-16.3,16.9-23.5c0.7-2.4,1.1-5.2,0.2-7.5c-0.7-1.7-2.1-2.6-3.5-2.6
				c-1.4-0.1-2.8,0.7-3.6,2.3c-1.2,2.5-1.5,6.3-1.4,9.8h-8.3c0.1-3.2,0.6-6.5,2.1-9.3c1.6-2.9,4.1-4.9,7.2-5.8
				c3.2-0.9,7.5-0.7,10.7,0.9c3.1,1.6,4.7,4.3,5.1,7.4c0.4,2.9-0.2,6.1-1.5,8.9c-2.6,5.6-7.6,13.4-13.1,19.2h14.9v3.4H15.9z"/>
			<path class="st1" d="M70.4,214.2c-0.9,2.8-2.3,5.4-4.7,7.2c-2,1.5-4.3,2.4-6.8,2.4c-3.4,0-6.2-1.3-8.3-3.4
				c-2.1-2.1-3.4-5-4.1-8.1c-1.1-5.1-0.9-15.9,1.3-21c1.3-3.2,3.6-5.9,7-7.3c3.2-1.3,6.8-1.1,9.8,0.6c2.9,1.7,4.7,4.7,5.7,7.8
				C72.2,198.3,72.1,208.6,70.4,214.2z M60.7,187.1c-0.9-0.5-2.1-0.6-3.2,0.2c-1.1,0.7-1.8,2.2-2.1,3.5c-1.6,6.1-1.6,17.3-0.4,25.4
				c0.2,1.6,1,2.6,1.9,3.2c1.2,0.7,2.5,0.8,3.6,0.1c0.8-0.5,1.6-1.5,1.8-2.8c1.6-7.2,1.8-19.3,0.4-26.6
				C62.5,188.9,61.7,187.6,60.7,187.1z"/>
			<path class="st1" d="M75.8,223.4v-3.2c7.1-6.6,14.6-16.3,16.9-23.5c0.7-2.4,1.1-5.2,0.2-7.5c-0.7-1.7-2.1-2.6-3.5-2.6
				c-1.4-0.1-2.8,0.7-3.6,2.3c-1.2,2.5-1.5,6.3-1.4,9.8h-8.3c0.1-3.2,0.6-6.5,2.1-9.3c1.6-2.9,4.1-4.9,7.2-5.8
				c3.2-0.9,7.5-0.7,10.7,0.9c3.1,1.6,4.7,4.3,5.1,7.4c0.4,2.9-0.2,6.1-1.5,8.9c-2.6,5.6-7.6,13.4-13.1,19.2h14.9v3.4H75.8z"/>
			<path class="st1" d="M105.8,223.4v-3.2c7.1-6.6,14.6-16.3,16.9-23.5c0.7-2.4,1.1-5.2,0.2-7.5c-0.7-1.7-2.1-2.6-3.5-2.6
				c-1.4-0.1-2.8,0.7-3.6,2.3c-1.2,2.5-1.5,6.3-1.4,9.8h-8.3c0.1-3.2,0.6-6.5,2.1-9.3c1.6-2.9,4.1-4.9,7.2-5.8
				c3.2-0.9,7.5-0.7,10.7,0.9c3.1,1.6,4.7,4.3,5.1,7.4c0.4,2.9-0.2,6.1-1.5,8.9c-2.6,5.6-7.6,13.4-13.1,19.2h14.9v3.4H105.8z"/>
		</g>
		<g>
			<g>
				<path class="st1" d="M168.3,183.3c-0.9,1-1.9,2-2.8,3c-3.2,3.3-10,6.6-14.4,8.2c2.9,0,5.9,0,8.8,0c5.8-0.1,11.5-0.4,17.2-0.5
					c-1.9-3.5-4.4-6-7.7-8.3l0.5-0.4c4.6,1.6,8.5,1.4,13,5.3c1.4,1.2,3.4,4.4,3.4,6.3c0,2.1-1.9,3.1-3.8,3.1c-0.7,0-2.2-0.5-2.7-1.1
					c-0.6-0.9-1.1-1.8-1.6-2.8l-0.6-1c-2.8,1-5.6,1.8-8.4,2.4c-7.1,1.7-14.9,2.2-22.1,2.9l-1-6c0.6,0,1.2-0.1,1.8-0.3
					c1-0.3,2.6-1.8,3.3-2.4c2.8-2.6,5.2-5,7-8.4H168.3z M157.8,202v1.8h16.1l2.2-2.2l7.3,1.5l-2.3,2.2v20.2h-7v-3.5h-16.3v3.6h-7.1
					V202H157.8z M174.1,218.8v-12.1h-16.3v12.1H174.1z"/>
				<path class="st1" d="M204.2,208.1c-0.5,0-1-0.2-1.4-0.4c0,3.4-0.2,6.7-0.6,10c-0.2,1.3-0.3,2.8-0.7,4.1l-0.8,2.6l-6.5-5.5
					c3.5-4.5,5.9-10,7.4-15.5l0.8,0l0.4,2.3c1.9-1.7,2.9-3.1,3.5-5.7h0.6c0.2,1.2,0.5,2.4,0.5,3.7
					C207.3,205.6,206.5,208.1,204.2,208.1z M199.9,200.6c-1,0-2.2-0.6-2.5-1.7c-0.3-1.4-0.2-3.1-1-4.5c-0.3-0.7-1-1.4-1.6-1.9
					l0.6-0.5c1.6,0.5,4.9,1.9,6.4,2.9c0.8,0.6,1.4,2.2,1.4,3.1C203.2,199.7,201.4,200.6,199.9,200.6z M201.6,190.9
					c-2.1,0-2.7-0.8-3-2.8c-0.2-0.8-0.5-1.6-1-2.3c-0.6-1-1.4-1.8-2.2-2.5l0.5-0.5c2.2,0.5,8.7,1.6,8.5,5.1
					C204.3,189.6,203.2,190.9,201.6,190.9z M225.1,206c-0.5,0-1-0.2-1.3-0.6v1h-3.7V205h-2.3v1.4h-3.7v-1c-0.4,0.2-1,0.5-1.5,0.5
					c-0.4,0-0.6-0.1-0.7-0.5c-0.4-1.1-0.4-2.3-0.6-3.5c-0.1-0.9-0.4-1.4-0.8-2.2l0.5-0.2c1,0.9,2.1,1.8,2.9,2.9v-3.8
					c-0.5,0.2-1.1,0.4-1.7,0.4c-1,0-1.3-0.8-1.5-1.6c-2,0.8-3.9,1.8-5.9,2.7l-1.8-2.8c2.5-1.1,3.2-2.2,4.7-4.4l-3.3,1.5l-1.8-2.7
					c0.3-0.2,0.7-0.4,1-0.7c0.6-0.5,2.5-4.6,2.8-5.6l0.4-1.4l5,0.7c-1.7,2.5-3.8,4.5-6,6.6l3.3-0.7c0.4-0.7,0.7-1.3,1-2l4.2,0.9
					l-3.9,4.4c1.8,0.9,3.9,1.7,4.2,3.9h3.2v0.8h2.1l1.3-1l3.4,1.7l-0.9,0.6v4.4c1.2-1.5,1.7-2.5,2.1-4.5h0.6c0.5,1.3,1,2.7,1,4.1
					C227.4,205,226.6,206,225.1,206z M235.9,217.6c-0.3,1.8-0.5,3.5-1,5.2c-0.7,2.3-2.9,2.8-4.9,2.9c-0.8,0.1-1.5,0.1-2.3,0.1
					c-1.4,0-0.4-1.1-1.6-2.2c-0.6-0.6-3.3-1-4.1-1.1l0.1-0.7c1.7,0.1,3.4,0.3,5.1,0.3c1.1,0,2.2-0.1,2.4-1.5c0.2-1,0.3-1.9,0.5-2.8
					h-19.4l-2,1.9l-4.7-2.2l2-1.5l1-5.2l5.4,0.1l-0.2,0.5h16.3v-2h-21.7v-2.3h21.5l1.9-1.4l5.8,1l-2,1.6v6.1h-1.6l5.4,1.6
					L235.9,217.6z M209.8,194.5l-2.5,2.2l3.3-0.6C210.4,195.4,210.2,195,209.8,194.5z M208.8,206.7c-0.8,0-1.1-0.3-1.1-1.1
					c0-1,0.5-1.9,0.5-2.9c0-0.9-0.1-1.8-0.2-2.7l0.6-0.1c1.2,1.4,2.6,2.9,2.6,4.8C211.2,206.1,210.2,206.7,208.8,206.7z
					 M228.4,214.6v-0.9h-16.6l-0.5,2.1h18.6l1.7-1.2H228.4z M213,188.4v-2.1h4.4c-1.2-1.3-0.1-1.7-2-3.4l0.4-0.4
					c1.6-0.1,5.3,0,5.2,2.5c0,0.5-0.4,1-0.7,1.3h3.5v2.1H213z M214.5,195.9v-2h8.5v2H214.5z M214.6,192.2v-2h8.3v2H214.6z
					 M220.1,200.3h-2.3v2.8h2.3V200.3z M234.6,199c-1.7,0-1.7-0.9-2.2-2.3c-2.4,1-4.8,1.9-7.3,2.8l-1.9-2.7c2.4-1.1,3.9-2.9,5.3-5
					L224,193l-0.6-2.8c0.3-0.2,0.6-0.4,1-0.7c1.5-1.2,2.8-5,3.4-6.8l4.5,0.8c-1.1,1.4-2.4,3.3-3.8,4.5l-2.5,2.1l3.8-0.3
					c0.8-1.2,1-1.8,1.6-3.2l4.5,0.7c-1.5,2-2.8,3.5-4.5,5.3c1.6,0.7,5.4,2.2,5.4,4.3C236.6,198.1,235.7,199,234.6,199z M230.5,193.3
					l-3.6,3.1l5.2-0.9C231.5,194.3,231.4,194.2,230.5,193.3z M230.4,205.6c-1,0-1.7-0.6-1.7-1.6c0-0.7,0.1-1.4,0.1-2.1
					c0-1-0.2-1.4-0.7-2.4l0.6-0.2c1.3,1.1,3.6,2.9,3.6,4.7C232.3,205.1,231.5,205.6,230.4,205.6z M235.3,206c-0.3,0-0.7,0-1-0.2
					c-0.9-0.5-0.8-1.1-0.9-2.1c0-0.7-0.1-1.3-0.4-1.9c-0.2-0.7-0.6-1.3-1-1.9l0.5-0.3c1.2,0.8,2.4,1.7,3.5,2.7
					c0.6,0.5,1.2,1.2,1.2,2.1C237.2,205.5,236.4,206,235.3,206z"/>
				<path class="st1" d="M289.1,218c-2.5,0.4-3.8,1.1-3.8,3.9c0,0.7,0.3,1,0.7,1.6l-0.6,0.4c-3.1-1.7-6.3-3.8-8.4-6.7
					c-3.9-5.3-4.8-7.8-5.8-14.4h-1.9v15.2c2.2-0.3,4.3-0.9,6.4-1.6l0.4,0.4c-2.3,2.6-6.1,5.8-9.1,7.5l-2.2,1.2l-3.3-6.5
					c1.3-0.4,1.6-0.6,1.6-1.9v-8.2c-1.8,1.9-3.7,3.4-5.7,5.1v1.7c1.6-0.3,3.2-0.8,4.7-1.3l0.5,0.4c-3.6,4-9.8,7.7-14.6,10.1
					l-1.9-6.7c1.8-0.2,3.6-0.6,5.4-1v-12.3h-5.6v-2.9h5.6v-4.5h-2.6v-0.4c-1,0.7-1.9,1.4-2.8,2.2l-0.7-0.4c1.2-1.9,2.2-3.9,2.8-6
					c0.9-3.4,1.5-6.8,1.8-10.3l8.7,0.2c-0.6,1.4-1.1,2.7-1.8,4.1c1.4,0.2,3,0.6,4.3,1.3c1,0.6,1.6,1.3,1.6,2.6
					c0,1.4-1.2,2.3-2.6,2.3c-0.7,0-1.2-0.2-1.8-0.7c-1.4-1.1-0.7-2.8-1.6-3.6c-0.1-0.2-0.4-0.3-0.5-0.5c-0.8,1-1.5,2.1-2.2,3.1
					c-0.8,1.1-1.9,2.1-2.8,3.1h9.6v2.9h-3.4v4.5h3.8v2.9h-3.8v6c1-1.7,1.8-3.4,2.3-5.2l3.4,1.4v-23.6h6.2v1.3h8.2l1.7-1.9l6.5,1.6
					l-1.7,1.8v18h-6.3V203H273c0.9,3.3,2.5,5.5,4.8,7.9c1.3-2.2,1.8-3.7,2.4-6.1l6,2.1c-2.2,2.3-3.9,3.8-6.5,5.8
					c3.2,2.6,5.4,3.5,9.3,4.7L289.1,218z M248.4,215.4c-1.1,0-2.2-0.4-2.2-1.7c0-1.2,0.5-2.4,0.5-3.7c0-0.9-0.2-1.7-0.3-2.6l0.5-0.3
					c1.8,1.5,4,3.5,4,6C250.9,214.7,249.8,215.4,248.4,215.4z M277.6,188h-8.5v4.3h8.5V188z M277.6,195.3h-8.5v4.8h8.5V195.3z"/>
				<path class="st1" d="M319.6,225.3h-4.8v-1.4h-12.2l-2.4,1.9l-4.3-2.9l2.1-1.4V197h4.4v6.9c1.1-2.5,1.7-4.8,1.9-7.5l4,0
					c-0.5,1.2-0.8,2.4-1.3,3.6c0.5,0.3,1,0.7,1.5,1.1c0.9-1.9,1-2.7,1.2-4.7l4.6,0.1c-0.4,0.7-0.8,1.5-1.1,2.3
					c-0.3,0.8-0.8,1.4-1.2,2.1c1,0.6,2,1.2,2.9,2v-5.7h4.4c2-2.9,3.8-6.8,4.4-10.4c0.2-1.3,0.4-2.7,0.5-4h7.7
					c-0.2,0.6-0.4,1.2-0.7,1.8c0.3,0.9,0.6,1.7,1,2.5c0.5,1.2,1.8,2.7,2.7,3.6c1.2,1.4,2.8,2.5,4.6,2.9l0,0.6
					c-1.8,0.7-2.2,1.1-2.7,3c-0.1,0.6-0.3,1.4-0.3,2c0,0.5,0.2,1.1,0.3,1.7l-0.7,0.3c-1.6-1.4-2.1-2-3.2-3.9
					c-2.2-3.7-2.6-5.4-3.3-9.7c-1.3,2.5-3.1,4.6-4.9,6.8c1.1,0.3,3.2,0.6,4.6,1.5c1.4,0.8,2.5,1.9,2.5,3.4c0,1.9-1.9,2.9-3.6,3.1
					c-1.1,0.1-2.8-0.3-3.1-1.8c-0.1-0.5,0-1.5,0-2c0-0.3-0.5-2.2-0.7-2.5l-0.6-0.8c-1.3,1.3-2.7,2.7-4.2,3.8V225.3z M304.7,192.5
					h2.8V183h4.9v3.7h5.5v2.8h-5.5v3.1h7.5v2.7h-23.1v-2.7h3.2v-6.8h4.8V192.5z M304,210l4,0c-0.3,1.1-0.7,2.3-1.1,3.4
					c0.6,0.4,1.1,0.9,1.6,1.4c0.5-1.5,0.8-3,1-4.6l4.5,0c-0.4,1.3-1,2.6-1.6,3.8c0.9,0.6,1.7,1.3,2.4,2v-6.8h-12.4v8.6
					C303.6,214.9,303.8,213.1,304,210z M305.9,221.1c0.5-1,1-2,1.4-3c-0.9,0-1.5-0.1-1.5-1.1c0-0.6,0.1-1.1,0.2-1.7
					c-0.2,0.5-0.4,1-0.7,1.4c-0.5,1-2.2,2.9-2.9,3.8v0.6H305.9z M305.8,206.5l1.5-2.3c-1.1,0-1-0.8-1.1-1.6l-0.1-1.1
					c-1,1.9-2.2,3.5-3.5,5.1H305.8z M314.8,221.1v-1.7c-0.5,0.3-1.1,0.7-1.7,0.7c-0.2,0-0.4-0.1-0.6-0.2c-1-0.8-0.6-1.4-0.7-2.6
					c0-0.5-0.2-1-0.2-1.5c-1.3,2-2.8,3.7-4.5,5.3H314.8z M314.8,206.5V205c-0.5,0.6-1,0.9-1.7,0.9c-0.6,0-1.5-0.3-1.6-1
					c0-0.4,0-0.9-0.1-1.2c-0.1-0.3-0.4-0.8-0.5-1.1c-1.1,1.4-2.2,2.7-3.5,4H314.8z M329.6,208.1h-8.8v-2.8h9.9l2-2.1l6,2.6l-2.4,1.7
					c-2.1,4-4.1,6.6-7.2,9.9c1.9,1.1,4.8,3,4.8,5.5c0,2.1-2,3.2-3.9,3.2c-1.2,0-2.3-0.6-2.9-1.7c-0.9-1.6-1.3-3.5-2.2-5.1
					c-1.2-2-2.9-3.8-4.6-5.4l0.4-0.4c2.2,0.8,4.3,1.6,6.5,2.6C328.6,212.9,328.8,211.5,329.6,208.1z"/>
				<path class="st1" d="M364.3,187.7c-1.4-1-1.2-2.9-2.7-3.7l-1.1-0.6l0.1-0.5c1.1,0,3.9-0.7,5-0.7c2,0,5.1,0.6,5.1,3.5
					c0,0.8-0.6,1.4-1.1,1.9h18.6v3.2h-41.9v-3.2H364.3z M355.2,204.2v1.3h23.2l1.9-2.1l8.1,1.4l-2.4,2.1v14.5c0,0.8-0.2,1.4-0.6,2
					c-1,1.7-5.6,2.1-7.4,2.1c-3,0-0.6-1.9-3.1-3.1c-1-0.5-3.2-0.8-4.3-1l0.1-0.7c2,0.1,4,0.2,6,0.2c1.5,0,2,0,2-1.7v-10.9h-23.6
					v16.9h-6.9v-21.2H355.2z M359.9,193.1h13.5l1.9-1.8l7.7,1.4l-2.2,1.8v8.7h-7v-0.9h-14.1l0,1.1h-6.7V192h6.7V193.1z M364.6,210.9
					h4.2l1.6-1.7l6.7,1.2l-2.1,1.7v8.1h-5.9v-1h-4.5l0,1.1h-5.8v-10.6h5.8V210.9z M374,199.2v-3h-14.1v3H374z M369.2,216.5v-2.8
					h-4.6v2.8H369.2z"/>
				<path class="st1" d="M402.2,189v22.5h1.8v-26.9h4.1v26.9h1.8V189h4.6v26.9h-4.6v-1.2h-7.8l-1.1,1.1l-4.6-1.9l1.3-1.3V189H402.2z
					 M423.8,195.1c-1-1.2-1.7-2.4-2.3-3.8c-1.9,1.9-3.8,3.4-6.1,4.8l-0.3-0.4c2.1-3.9,3-8.2,3.5-12.5h7c-0.3,1-0.6,2.1-1,3.1h5.3
					l1.6-1.6l7.4,1.2l-2.2,1.7c-1.4,2.7-3.2,5.1-5.5,7.1c2.8,1,5.7,1.7,8.6,2v0.4c-2.2,0.7-3.4,2.4-1.8,4.4l-0.3,0.3
					c-3.8-0.6-7.4-2.2-10.8-4.1c-3.7,1.8-7.5,3.2-11.5,3.9l-0.3-0.5C418.1,199.5,421.2,197.3,423.8,195.1z M416.8,208.7h6v-2.3h-6.8
					v-3.1h6.8v-3.2h6.7v3.2h8.2v3.1h-8.2v2.2h7.1v2.9h-7.1v2.8h9v3.2h-9v8.5h-6.7v-8.5h-7.5v-3.2h7.5v-2.8h-6V208.7z M422.9,189.3
					l-0.4,0.8c1,1,2.4,1.8,3.6,2.6c0.9-1,1.5-2.1,2.1-3.3H422.9z"/>
				<path class="st1" d="M446.8,192.1v-3h6.9c-2.2-0.7-1.6-2.2-2-4.1c-0.1-0.8-0.8-1.3-1.3-1.8l0.2-0.3c2.6-0.5,7.7-0.3,7.8,3.7
					c0,1.3-0.6,1.7-1.5,2.5h4.6v3H446.8z M448.1,205.1v-3h12.5v3H448.1z M448.3,198.6v-3h12v3H448.3z M461,210.5v13.8h-5V222h-2.3
					v2.6h-5.3v-16.3h5.3v0.9h2l1.8-1.9l4.9,1.6L461,210.5z M455.9,212.1h-2.3v6.9h2.3V212.1z M487.1,196.4c0,0.6,0.2,1.1,0.3,1.7
					l-0.4,0.3c-1.5-0.8-2.9-1.7-4.3-2.8v1.5h-16.4v-1.8c-1.7,1-3.5,1.9-5.3,2.7l-0.3-0.3c1.4-1.3,2.7-2.8,3.9-4.2
					c2.8-3.4,4-6.5,5.3-10.6h8.8c-0.4,0.5-0.6,1-0.9,1.5c0.6,1,1.3,2,2,2.9c2.2,2.6,7.4,4,10.6,4.5l0.1,0.4
					C488.7,192.9,487.1,194.1,487.1,196.4z M487.3,202.3v18.9c0,0.7,0,1.6-0.3,2.2c-0.2,0.6-0.7,1-1.2,1.3c-1,0.6-3.9,1.2-5,1.2
					c-2.4,0-0.9-2.3-2.6-3.2c-0.9-0.5-2.2-0.7-3.2-0.9l0.1-0.6c1.3,0.1,2.6,0.1,3.9,0.1c1.1,0,2.8,0.2,2.8-1.4v-7.6h-2.1v7.9h-3.9
					v-7.9h-1.8v8.3h-4v-8.3h-2.1v12.1h-5.3v-24.7h5.3v1.3h13.8l1.9-2.1l5.8,1.7L487.3,202.3z M469.9,203.8h-2.1v5.7h2.1V203.8z
					 M476.4,186.4c-2.4,3-4.9,5.6-8.2,7.7h12.7C478.6,191.8,477.2,189.6,476.4,186.4z M475.7,203.8h-1.8v5.7h1.8V203.8z
					 M481.8,203.8h-2.1v5.7h2.1V203.8z"/>
				<path class="st1" d="M501.7,211.6v-17.6H498v-2.7h3.8v-7.9h5.7v7.9h2.2v2.7h-2.2v14.9c1-0.5,2.1-1,3-1.7v-16.3h5.8v1h16.1
					l1.8-1.5l5.5,1l-1.8,1.8v15.1h-2l2.7,0.5l-2,1.5v10.2h-6v-0.9h-12v0.9h-6.2v-12h6.2v0.6h11.8l2.2-1.5l0-0.4h-16.3v1h-5
					c-3.6,4.1-7.3,7.4-11.8,10.5l-2.1-5.6C498.8,212.6,500.3,212.1,501.7,211.6z M539.8,221.6v2.6h-32.1v-2.6H539.8z M522.8,187.5
					c-1.6-1-0.7-2.6-2.4-3.8l-0.9-0.6l0.3-0.4c1.6-1,8.3-1.2,8.5,3c0,0.7-0.9,1.4-1.4,1.8h12.8v2.5h-30.2v-2.5H522.8z M532.5,204.8
					v-10.4h-16.3v10.4H532.5z M526.3,196.4l1.5-1.4l4.2,1l-1.6,1.4v6.6h-4v-1.1h-3.8v1.1h-4.2v-8.6h4.2v1H526.3z M530.5,213.1v-1.6
					h-12v1.6H530.5z M530.5,217.3v-1.9h-12v1.9H530.5z M526.4,200.7v-2.3h-3.8v2.3H526.4z"/>
			</g>
		</g>
	</g>
</g>
</svg>
